<svg width="29" height="27" viewBox="0 0 29 27" fill="none" xmlns="http://www.w3.org/2000/svg"><path d="M26.611.9L16.056 8.752l1.963-4.634L26.611.9z" fill="#E17726" stroke="#E17726" stroke-width=".322" stroke-linecap="round" stroke-linejoin="round"/><path d="M2.219.9l10.49 7.916-1.866-4.698L2.22.9zm20.595 18.181l-2.832 4.313 6.05 1.673 1.705-5.889-4.923-.097zm-21.689.097l1.706 5.889 6.017-1.674-2.8-4.312-4.923.097z" fill="#E27625" stroke="#E27625" stroke-width=".322" stroke-linecap="round" stroke-linejoin="round"/><path d="M8.526 11.809L6.853 14.35l5.953.257-.193-6.435-4.087 3.636zm11.81 0l-4.151-3.7-.129 6.5 5.953-.258-1.673-2.542zM8.848 23.393l3.604-1.737-3.121-2.446-.483 4.183zm7.562-1.737l3.572 1.737-.483-4.183-3.089 2.446z" fill="#E27625" stroke="#E27625" stroke-width=".322" stroke-linecap="round" stroke-linejoin="round"/><path d="M19.982 23.393l-3.572-1.737.29 2.317-.032.997 3.314-1.576zm-11.134 0l3.347 1.577-.032-.997.29-2.317-3.605 1.738z" fill="#D5BFB2" stroke="#D5BFB2" stroke-width=".322" stroke-linecap="round" stroke-linejoin="round"/><path d="M12.26 17.666l-2.993-.87 2.091-.965.901 1.835zm4.344 0l.868-1.835 2.124.966-2.992.869z" fill="#233447" stroke="#233447" stroke-width=".322" stroke-linecap="round" stroke-linejoin="round"/><path d="M8.848 23.393l.515-4.312-3.314.097 2.8 4.215zM19.5 19.081l.482 4.313 2.832-4.216-3.314-.097zm2.51-4.73l-5.954.257.547 3.058.87-1.835 2.123.966 2.414-2.446zM9.266 16.797l2.092-.966.901 1.835.547-3.058-5.953-.257 2.413 2.446z" fill="#CC6228" stroke="#CC6228" stroke-width=".322" stroke-linecap="round" stroke-linejoin="round"/><path d="M6.853 14.351l2.478 4.86-.065-2.414-2.413-2.446zm12.743 2.446L19.5 19.21l2.51-4.859-2.414 2.446zm-6.79-2.189l-.547 3.058.676 3.636.16-4.795-.289-1.899zm3.25 0l-.29 1.9.13 4.794.707-3.636-.547-3.058z" fill="#E27525" stroke="#E27525" stroke-width=".322" stroke-linecap="round" stroke-linejoin="round"/><path d="M16.604 17.666l-.708 3.636.514.354 3.09-2.446.096-2.413-2.992.869zm-7.337-.869l.064 2.413 3.121 2.446.483-.354-.676-3.636-2.992-.87z" fill="#F5841F" stroke="#F5841F" stroke-width=".322" stroke-linecap="round" stroke-linejoin="round"/><path d="M16.668 24.97l.032-.997-.29-.226h-3.99l-.257.226.032.997-3.347-1.577 1.159.966L12.387 26h4.055l2.382-1.641 1.158-.966-3.314 1.577z" fill="#C0AC9D" stroke="#C0AC9D" stroke-width=".322" stroke-linecap="round" stroke-linejoin="round"/><path d="M16.41 21.656l-.515-.354h-2.96l-.483.354-.29 2.317.258-.226h3.99l.29.226-.29-2.317z" fill="#161616" stroke="#161616" stroke-width=".322" stroke-linecap="round" stroke-linejoin="round"/><path d="M27.062 9.267l.9-4.345L26.613.9 16.41 8.494l3.926 3.315 5.535 1.609 1.223-1.416-.515-.386.837-.772-.644-.515.837-.644-.547-.418zM.9 4.922l.9 4.345-.578.418.836.644-.643.514.869.773-.547.386 1.222 1.416 5.567-1.61 3.926-3.314L2.22.9.9 4.922z" fill="#763E1A" stroke="#763E1A" stroke-width=".322" stroke-linecap="round" stroke-linejoin="round"/><path d="M25.871 13.418l-5.535-1.61 1.674 2.543-2.51 4.86 3.314-.033h4.924l-1.867-5.76zM8.527 11.809l-5.568 1.609-1.834 5.76H6.05l3.282.032-2.478-4.859 1.674-2.542zm7.529 2.799l.354-6.114 1.61-4.376h-7.177l1.61 4.376.353 6.114.129 1.931v4.763h2.96v-4.763l.161-1.93z" fill="#F5841F" stroke="#F5841F" stroke-width=".322" stroke-linecap="round" stroke-linejoin="round"/></svg>