<svg width="52" height="60" viewBox="0 0 52 60" xmlns="http://www.w3.org/2000/svg"><g fill="none" fill-rule="evenodd"><path fill="#13132E" d="M23.578 16.648l.02 24.196h4.5l-.021-5.227 10.6-12.448h-5.085l-5.515 7.425V16.648z"/><path fill="#13132E" d="M31.127 34.884l3.12 4.227h5.361l-5.361-7.57zm-19.066 4.227h5.362l3.119-4.227-3.119-3.344z"/><path fill="#13132E" d="M23.469 16.648v13.946l-5.516-7.425h-5.085l10.6 12.448.083 5.227h4.498l-.082-24.196z"/><path fill="#3ACF6E" d="M25.858 0L.126 14.857l5.876 3.393L25.835 6.8l19.832 11.45v22.9l5.924 3.42V14.858z"/><path fill="#2E80DD" d="M0 45.143L25.733 60l25.733-14.857-5.924-3.42-19.832 11.45-19.833-11.45v-22.9L0 15.429z"/></g></svg>