<svg width="104" height="106" viewBox="0 0 104 106" xmlns="http://www.w3.org/2000/svg"><g fill="none" fill-rule="evenodd"><path stroke="#2E80DD" fill="#2E80DD" d="M26.77 39.207l-.132 28.586 25.219 14.651 24.562-14.39-4.262-2.477-20.19 11.708L31.03 65.091l.022-23.395z"/><path stroke="#3ACF6E" fill="#3ACF6E" d="M77.23 66.793l.132-28.586-25.219-14.651-24.562 14.39 4.262 2.477 20.19-11.708L72.97 40.909l-.022 23.395z"/><g fill="#FFF" fill-rule="nonzero"><path d="M54.354 64.666l-.022-5.687 11.532-13.543h-5.531l-6 8.078V38.342h-4.895l.022 26.324z"/><path d="M57.65 58.181l3.394 4.6h5.833l-5.833-8.237zm-11.515 0l-3.393 4.6h-5.833l5.833-8.237z"/><path d="M49.408 64.666l-.09-5.687-11.531-13.543h5.531l6 8.078V38.342h4.895l.09 26.324z"/></g>
</g></svg>