<svg width="457" height="409" viewBox="0 0 457 409" xmlns="http://www.w3.org/2000/svg"><g fill="#BFC8D6" fill-rule="evenodd" opacity=".271"><path d="M119.157 41.308a.853.853 0 01-.139-.012l-10.112-1.69a.838.838 0 01.277-1.652l10.111 1.69a.838.838 0 01-.137 1.664m20.224 3.382a.855.855 0 01-.14-.011l-10.111-1.692a.837.837 0 01.276-1.651l10.112 1.69a.838.838 0 01-.137 1.664m20.223 3.382a.834.834 0 01-.139-.011l-10.112-1.692a.837.837 0 01.276-1.651l10.112 1.69a.838.838 0 01-.137 1.664m20.223 3.382a.855.855 0 01-.138-.011l-10.112-1.691a.838.838 0 01.276-1.652l10.112 1.69a.838.838 0 01-.138 1.664m20.224 3.382a.855.855 0 01-.139-.011L189.8 53.134a.838.838 0 01.276-1.652l10.112 1.691a.837.837 0 01-.137 1.663m20.223 3.382a.853.853 0 01-.138-.011l-10.112-1.691a.837.837 0 01.276-1.652l10.112 1.691a.837.837 0 01-.138 1.663m20.224 3.383a.831.831 0 01-.139-.012l-10.111-1.691a.837.837 0 11.276-1.652l10.111 1.691a.837.837 0 01-.137 1.664m20.224 3.382a.853.853 0 01-.14-.012l-10.111-1.69a.837.837 0 01.276-1.653l10.112 1.691a.837.837 0 01-.137 1.664m20.223 3.382a.853.853 0 01-.14-.012l-10.11-1.69a.837.837 0 01.276-1.653l10.111 1.691a.837.837 0 01-.137 1.664m20.224 3.382a.83.83 0 01-.14-.012l-10.112-1.69a.837.837 0 01.277-1.653l10.112 1.692a.837.837 0 01-.137 1.663m20.223 3.382a.83.83 0 01-.14-.012l-10.11-1.69a.837.837 0 01.275-1.652l10.112 1.69a.838.838 0 01-.137 1.664m20.224 3.382a.851.851 0 01-.14-.011l-10.11-1.691a.837.837 0 01.275-1.652l10.112 1.69a.837.837 0 01-.137 1.664m20.223 3.382a.851.851 0 01-.14-.011l-10.11-1.692a.837.837 0 01.275-1.651l10.112 1.69a.837.837 0 01-.137 1.664m20.224 3.382a.85.85 0 01-.14-.011l-10.11-1.691a.838.838 0 01.275-1.652l10.112 1.691a.837.837 0 01-.137 1.663m20.223 3.382a.851.851 0 01-.138-.011l-10.113-1.691a.837.837 0 01.276-1.652l10.113 1.691a.837.837 0 01-.138 1.663m10.181 27.697a.837.837 0 01-.822-.997l1.963-10.123a.837.837 0 011.643.319l-1.963 10.122a.837.837 0 01-.82.679m-3.927 20.244a.837.837 0 01-.822-.997l1.963-10.122a.837.837 0 111.643.319l-1.963 10.122a.837.837 0 01-.82.678m-3.927 20.245a.837.837 0 01-.822-.997l1.963-10.122a.837.837 0 011.643.319l-1.964 10.122a.837.837 0 01-.82.678m-3.927 20.245a.837.837 0 01-.822-.997l1.963-10.122a.838.838 0 011.643.318l-1.964 10.123a.836.836 0 01-.82.678m-3.926 20.245a.837.837 0 01-.822-.997l1.963-10.123a.838.838 0 011.642.32l-1.963 10.122a.837.837 0 01-.82.678m-3.927 20.244a.837.837 0 01-.822-.997l1.963-10.122a.837.837 0 111.643.319l-1.963 10.122a.837.837 0 01-.82.678m-3.927 20.245a.838.838 0 01-.822-.997l1.963-10.122a.837.837 0 011.643.319l-1.963 10.122a.837.837 0 01-.821.678m-3.926 20.245a.837.837 0 01-.822-.997l1.963-10.122a.837.837 0 111.643.319l-1.964 10.122a.837.837 0 01-.82.678m-3.926 20.245a.837.837 0 01-.822-.997l1.962-10.123a.837.837 0 111.643.32l-1.963 10.122a.837.837 0 01-.82.678m-3.928 20.244a.837.837 0 01-.822-.997l1.963-10.122a.837.837 0 011.643.319l-1.963 10.122a.837.837 0 01-.82.678m-3.927 20.245a.837.837 0 01-.822-.997l1.963-10.122a.837.837 0 111.643.319l-1.963 10.122a.837.837 0 01-.82.678m-3.927 20.245a.837.837 0 01-.822-.997l1.963-10.122a.837.837 0 111.643.318l-1.964 10.123a.836.836 0 01-.82.678m-251.364-28.475a.827.827 0 01-.145-.012l-9.74-1.707a.837.837 0 01.289-1.65l9.74 1.707a.837.837 0 01-.144 1.662m19.48 3.413a.83.83 0 01-.146-.012l-9.74-1.707a.837.837 0 01.29-1.65l9.739 1.707a.837.837 0 01-.143 1.662m19.48 3.414a.827.827 0 01-.145-.013l-9.74-1.707a.837.837 0 01.288-1.65l9.74 1.707a.837.837 0 01-.143 1.663m19.48 3.412a.825.825 0 01-.146-.012l-9.74-1.707a.838.838 0 01.289-1.65l9.74 1.707a.837.837 0 01-.143 1.662m19.48 3.413a.847.847 0 01-.146-.012l-9.74-1.707a.837.837 0 01.289-1.65l9.74 1.707a.837.837 0 01-.144 1.662m19.48 3.413a.829.829 0 01-.145-.012l-9.74-1.707a.837.837 0 01.289-1.65l9.74 1.707a.837.837 0 01-.144 1.662m19.48 3.413a.857.857 0 01-.146-.012l-9.74-1.707a.838.838 0 01.29-1.65l9.74 1.707a.838.838 0 01-.144 1.662m19.48 3.413a.857.857 0 01-.146-.012l-9.74-1.707a.837.837 0 01.29-1.65l9.74 1.707a.837.837 0 01-.144 1.662m19.48 3.413a.842.842 0 01-.146-.013l-9.74-1.706a.838.838 0 01.29-1.65l9.74 1.707a.838.838 0 01-.144 1.662m19.48 3.413a.86.86 0 01-.146-.012l-9.74-1.707a.838.838 0 01.29-1.65l9.739 1.707a.838.838 0 01-.144 1.662m19.48 3.413a.841.841 0 01-.145-.013l-9.74-1.706a.837.837 0 01.289-1.65l9.74 1.707a.838.838 0 01-.144 1.662m19.48 3.413a.856.856 0 01-.146-.013l-9.74-1.706a.838.838 0 01.29-1.65l9.74 1.707a.838.838 0 01-.144 1.662m19.48 3.413a.84.84 0 01-.146-.013l-9.74-1.706a.837.837 0 01.29-1.65l9.74 1.707a.838.838 0 01-.144 1.662M81.526 53.412a.838.838 0 01-.714-1.274l5.168-8.472a.837.837 0 111.428.872l-5.167 8.473a.836.836 0 01-.715.401M71.19 70.36a.838.838 0 01-.714-1.274l5.168-8.473a.837.837 0 111.429.873l-5.168 8.473a.836.836 0 01-.715.401M60.857 87.306a.838.838 0 01-.714-1.274l5.167-8.473a.836.836 0 111.429.872l-5.167 8.474a.836.836 0 01-.715.4m-10.335 16.947a.838.838 0 01-.714-1.274l5.168-8.473a.837.837 0 111.428.873l-5.167 8.473a.836.836 0 01-.715.401M40.187 121.2a.838.838 0 01-.714-1.274l5.168-8.473a.837.837 0 111.429.873l-5.168 8.473a.836.836 0 01-.715.401m-10.334 16.947a.838.838 0 01-.714-1.274l5.167-8.473a.837.837 0 111.43.872l-5.168 8.473a.836.836 0 01-.715.402m-10.335 16.947a.838.838 0 01-.714-1.274l5.168-8.473a.837.837 0 111.428.872l-5.167 8.473a.836.836 0 01-.715.402M9.183 172.039a.838.838 0 01-.714-1.274l5.168-8.473a.837.837 0 111.429.873l-5.168 8.473a.837.837 0 01-.715.401M264.54 3.24a.836.836 0 01-.139-1.664l9.102-1.548a.835.835 0 01.58.113l.527.325a.838.838 0 01-.878 1.426l-.26-.16-8.79 1.496a.861.861 0 01-.141.011m-19.425 3.306a.838.838 0 01-.14-1.663l9.713-1.653a.838.838 0 01.28 1.651l-9.712 1.653a.841.841 0 01-.141.012M225.69 9.85a.836.836 0 01-.14-1.663l9.712-1.653a.837.837 0 01.281 1.651l-9.711 1.653a.841.841 0 01-.142.012m65.251 2.514a.83.83 0 01-.438-.124l-8.386-5.174a.837.837 0 01.877-1.426l8.387 5.174a.838.838 0 01-.44 1.55m-84.677.791a.837.837 0 01-.14-1.662l9.714-1.653a.837.837 0 01.28 1.65l-9.713 1.653a.843.843 0 01-.141.012m-19.425 3.306a.837.837 0 01-.14-1.663l9.714-1.653a.837.837 0 01.28 1.65l-9.713 1.654a.837.837 0 01-.14.012m-19.426 3.305a.837.837 0 01-.14-1.663l9.713-1.653a.838.838 0 01.28 1.651l-9.712 1.653a.837.837 0 01-.141.012m140.299 2.946a.83.83 0 01-.438-.125l-8.387-5.174a.838.838 0 01.878-1.425l8.386 5.174a.838.838 0 01-.44 1.55m-159.723.36a.837.837 0 01-.14-1.664l9.713-1.652a.837.837 0 11.28 1.65l-9.712 1.653a.836.836 0 01-.141.012m-19.425 3.306a.838.838 0 01-.14-1.663l9.713-1.653a.837.837 0 01.28 1.65l-9.712 1.654a.836.836 0 01-.141.012m-19.426 3.305a.837.837 0 01-.14-1.663l9.714-1.652a.837.837 0 01.28 1.65l-9.713 1.653a.836.836 0 01-.14.012m215.345 3.378a.83.83 0 01-.438-.125l-8.386-5.174a.838.838 0 01.878-1.425l8.386 5.174a.838.838 0 01-.44 1.55m16.772 10.348a.832.832 0 01-.438-.125l-8.386-5.174a.838.838 0 01.877-1.425l8.387 5.173a.838.838 0 01-.44 1.55m16.771 10.348a.833.833 0 01-.438-.124l-8.386-5.174a.838.838 0 01.878-1.426l8.386 5.174a.838.838 0 01-.44 1.55M374.8 64.103a.832.832 0 01-.438-.125l-8.386-5.174a.838.838 0 01.877-1.425l8.387 5.174a.838.838 0 01-.44 1.55m16.772 10.348a.832.832 0 01-.438-.125l-8.386-5.174a.838.838 0 01.877-1.425l8.387 5.174a.838.838 0 01-.44 1.55m16.771 10.348a.832.832 0 01-.438-.125L399.52 79.5a.838.838 0 01.878-1.425l8.386 5.173a.838.838 0 01-.44 1.55m11.834 14.236a.838.838 0 01-.796-.578l-2.731-8.387-.36-.221a.838.838 0 01.879-1.426l.62.383c.17.104.295.264.357.453l2.827 8.68a.838.838 0 01-.796 1.096m6.106 18.744a.838.838 0 01-.796-.578l-3.053-9.372a.837.837 0 011.592-.519l3.053 9.372a.838.838 0 01-.796 1.097m6.106 18.744a.838.838 0 01-.796-.578l-3.053-9.372a.838.838 0 011.592-.52l3.053 9.373a.838.838 0 01-.796 1.097m6.106 18.744a.838.838 0 01-.796-.579l-3.053-9.371a.838.838 0 011.592-.52l3.053 9.373a.838.838 0 01-.796 1.097m6.106 18.743a.838.838 0 01-.796-.578l-3.053-9.372a.838.838 0 011.592-.518l3.053 9.371a.838.838 0 01-.796 1.097m6.106 18.744a.838.838 0 01-.796-.578l-3.053-9.372a.838.838 0 011.592-.519l3.053 9.372a.838.838 0 01-.796 1.097m-8.148 35.232a.838.838 0 01-.715-1.271l5.078-8.392a.837.837 0 111.432.867l-5.078 8.392a.836.836 0 01-.717.404m-10.155 16.786a.837.837 0 01-.715-1.271l5.078-8.393a.837.837 0 111.432.867l-5.078 8.393a.836.836 0 01-.717.404m-10.155 16.785a.837.837 0 01-.715-1.27l5.077-8.394a.837.837 0 111.432.868l-5.078 8.392a.837.837 0 01-.716.404m-10.155 16.786a.837.837 0 01-.715-1.271l5.077-8.393a.837.837 0 111.432.867l-5.078 8.393a.837.837 0 01-.716.404m-10.155 16.785a.838.838 0 01-.715-1.271l5.077-8.393a.837.837 0 011.432.867l-5.077 8.393a.837.837 0 01-.717.404m-10.156 16.785a.838.838 0 01-.715-1.271l5.078-8.392a.837.837 0 111.432.867l-5.078 8.393a.837.837 0 01-.717.403m-10.155 16.786a.838.838 0 01-.715-1.271l5.077-8.393a.836.836 0 111.432.867l-5.077 8.393a.836.836 0 01-.717.404m-10.155 16.785a.837.837 0 01-.715-1.27l5.077-8.394a.837.837 0 111.432.868l-5.078 8.392a.837.837 0 01-.716.404m-14.259 11.552a.837.837 0 01-.25-1.636l8.674-2.724.043-.07a.837.837 0 011.431.868l-.206.34a.837.837 0 01-.465.366l-8.976 2.817a.84.84 0 01-.25.039m-18.712 5.875a.837.837 0 01-.25-1.636l9.355-2.938a.836.836 0 11.502 1.598l-9.356 2.937a.84.84 0 01-.25.039m-18.712 5.875a.837.837 0 01-.25-1.637l9.355-2.937a.837.837 0 11.501 1.598l-9.355 2.937a.84.84 0 01-.25.039m-18.713 5.875a.837.837 0 01-.25-1.637l9.356-2.937a.838.838 0 01.502 1.598l-9.357 2.937a.84.84 0 01-.25.039m-18.712 5.874a.837.837 0 01-.25-1.636l9.355-2.937a.837.837 0 11.502 1.598l-9.356 2.937a.84.84 0 01-.25.038m-18.712 5.875a.837.837 0 01-.25-1.636l9.355-2.938a.837.837 0 11.502 1.598l-9.356 2.938a.838.838 0 01-.251.038m-18.711 5.875a.837.837 0 01-.25-1.636l9.355-2.938a.837.837 0 11.502 1.598l-9.356 2.938a.845.845 0 01-.251.038m-18.712 5.875a.837.837 0 01-.25-1.637l9.356-2.937a.837.837 0 01.502 1.598l-9.357 2.937a.845.845 0 01-.25.039m-18.712 5.875a.838.838 0 01-.25-1.637l9.355-2.937a.836.836 0 11.502 1.598l-9.356 2.937a.842.842 0 01-.251.039M15.708 205.01a.836.836 0 01-.684-.353l-5.701-8.054a.838.838 0 011.365-.968l5.702 8.054a.837.837 0 01-.682 1.322m11.404 16.11a.835.835 0 01-.684-.354l-5.702-8.055a.838.838 0 011.366-.968l5.702 8.055a.837.837 0 01-.682 1.321m11.403 16.11a.836.836 0 01-.683-.353l-5.702-8.055a.837.837 0 011.366-.968l5.701 8.055a.837.837 0 01-.682 1.321m11.404 16.11a.836.836 0 01-.684-.354l-5.701-8.054a.837.837 0 011.365-.968l5.702 8.054a.837.837 0 01-.682 1.322m11.404 16.11a.836.836 0 01-.684-.354l-5.702-8.055a.837.837 0 011.366-.968l5.702 8.055a.838.838 0 01-.682 1.322m11.403 16.11a.835.835 0 01-.683-.354l-5.702-8.055a.837.837 0 011.366-.968l5.701 8.055a.837.837 0 01-.682 1.321m11.404 16.11a.835.835 0 01-.684-.354l-5.701-8.054a.838.838 0 011.365-.968l5.702 8.054a.838.838 0 01-.682 1.322m12.226 15.394a.834.834 0 01-.574-.228l-3.991-3.76a.823.823 0 01-.109-.126l-2.534-3.579a.838.838 0 011.366-.968l2.485 3.51 3.93 3.704a.838.838 0 01-.573 1.447m14.364 13.533a.833.833 0 01-.574-.227l-7.182-6.767a.838.838 0 011.148-1.22l7.182 6.767a.838.838 0 01-.574 1.447m14.364 13.534a.833.833 0 01-.574-.228l-7.182-6.767a.838.838 0 011.147-1.219l7.182 6.767a.838.838 0 01-.573 1.447m14.364 13.533a.833.833 0 01-.574-.227l-7.182-6.767a.838.838 0 011.148-1.22l7.182 6.768a.838.838 0 01-.574 1.446m14.364 13.534a.834.834 0 01-.573-.228l-7.183-6.766a.838.838 0 011.148-1.22l7.182 6.767a.838.838 0 01-.574 1.447m14.364 13.534a.833.833 0 01-.573-.228l-7.182-6.767a.838.838 0 011.147-1.22l7.182 6.768a.838.838 0 01-.574 1.447m14.364 13.533a.833.833 0 01-.573-.227l-7.182-6.767a.838.838 0 011.147-1.22l7.182 6.767a.837.837 0 01-.574 1.447M95.104 61.87c-.463 0-.678-.375-.678-.837V50.985c0-.463.215-.838.678-.838.462 0 .677.375.677.838v10.048c0 .462-.215.837-.677.837m0 20.096c-.463 0-.678-.375-.678-.837V71.08c0-.463.215-.838.678-.838.462 0 .677.375.677.838v10.048c0 .462-.215.837-.677.837m0 20.096c-.463 0-.678-.375-.678-.837V91.177c0-.463.215-.838.678-.838.462 0 .677.375.677.838v10.048c0 .462-.215.837-.677.837m0 20.096c-.463 0-.678-.375-.678-.837v-10.048c0-.463.215-.838.678-.838.462 0 .677.375.677.838v10.048c0 .462-.215.837-.677.837m0 20.096c-.463 0-.678-.375-.678-.837v-10.048c0-.463.215-.837.678-.837.462 0 .677.374.677.837v10.048c0 .462-.215.837-.677.837m0 20.096c-.463 0-.678-.375-.678-.837v-10.048c0-.462.215-.837.678-.837.462 0 .677.375.677.837v10.048c0 .462-.215.837-.677.837m0 20.096c-.463 0-.678-.375-.678-.837v-10.048c0-.462.215-.837.678-.837.462 0 .677.375.677.837v10.048c0 .462-.215.837-.677.837m0 20.096c-.463 0-.678-.375-.678-.837v-10.048c0-.462.215-.837.678-.837.462 0 .677.375.677.837v10.048c0 .462-.215.837-.677.837m0 20.096c-.463 0-.678-.374-.678-.837v-10.048c0-.462.215-.837.678-.837.462 0 .677.375.677.837V221.8c0 .463-.215.837-.677.837m0 20.096c-.463 0-.678-.375-.678-.837V231.85c0-.462.215-.837.678-.837.462 0 .677.375.677.837v10.048c0 .462-.215.837-.677.837m0 20.096c-.463 0-.678-.374-.678-.837v-10.048c0-.462.215-.837.678-.837.462 0 .677.375.677.837v10.048c0 .463-.215.837-.677.837m0 20.097c-.463 0-.678-.375-.678-.838v-10.048c0-.462.215-.837.678-.837.462 0 .677.375.677.837v10.048c0 .463-.215.838-.677.838m0 15.072c-.463 0-.678-.375-.678-.838v-5.024c0-.462.215-.837.678-.837.462 0 .677.375.677.837v5.024c0 .463-.215.838-.677.838"/><path d="M366.357 354.1a.83.83 0 01-.146-.013l-4.946-.866a.838.838 0 01.29-1.65l4.136.725.8-4.125a.838.838 0 011.642.32l-.956 4.931a.837.837 0 01-.82.678M4.304 188.901a.835.835 0 01-.683-.353l-2.903-4.1a.838.838 0 01-.031-.92l2.615-4.29a.837.837 0 111.43.873l-2.33 3.818 2.584 3.65a.837.837 0 01-.682 1.322M91.86 36.466a.838.838 0 01-.713-1.274l2.616-4.288a.836.836 0 01.574-.39l4.95-.842a.836.836 0 11.28 1.65l-4.574.78-2.417 3.963a.836.836 0 01-.715.4M452.715 211.2a.837.837 0 01-.715-1.271l2.402-3.97-1.438-4.412a.838.838 0 011.592-.519l1.556 4.777a.84.84 0 01-.08.693l-2.6 4.298a.837.837 0 01-.717.404M193.378 408.475a.838.838 0 01-.574-.227l-3.655-3.445a.838.838 0 011.147-1.219l3.3 3.108 4.323-1.357a.838.838 0 01.5 1.598l-4.79 1.504a.838.838 0 01-.25.038"/><path d="M367.135 350.083a.837.837 0 01-.807-.618l-1.319-4.848a.837.837 0 111.615-.44l1.32 4.848a.837.837 0 01-.81 1.058M95.104 41.774c-.463 0-.678-.375-.678-.837v-5.024c0-.463.215-.838.678-.838.462 0 .677.375.677.838v5.024c0 .462-.215.837-.677.837"/></g></svg>