<svg width="42" height="43" viewBox="0 0 42 43" xmlns="http://www.w3.org/2000/svg"><path d="M21 .833c-11.612 0-21 9.388-21 21s9.388 21 21 21 21-9.388 21-21-9.388-21-21-21zm-6.339 2.86a30.167 30.167 0 00-2.843 4.913H7.052a19.043 19.043 0 017.61-4.913zm-9.113 6.7h5.515A31.596 31.596 0 008.95 20.94H1.812a19.156 19.156 0 013.736-10.547zm0 22.88a19.156 19.156 0 01-3.736-10.547H8.95a31.42 31.42 0 002.147 10.548H5.548zm1.504 1.787h4.81a32.289 32.289 0 002.834 4.93 19.11 19.11 0 01-7.644-4.93zm13.055 5.97a20.466 20.466 0 01-2.637-.301 30.34 30.34 0 01-3.633-5.66h6.27v5.96zm0-7.756H13.02a29.888 29.888 0 01-2.285-10.548h9.37v10.548zm0-12.334h-9.37a30.1 30.1 0 012.267-10.547h7.103V20.94zm.008-12.334H13.82a29.339 29.339 0 013.65-5.66 19.027 19.027 0 012.645-.3v5.96zm16.337 1.787a19.066 19.066 0 013.736 10.547H33.05a31.42 31.42 0 00-2.147-10.547h5.549zm-1.504-1.787h-4.81a31.637 31.637 0 00-2.842-4.93 19.082 19.082 0 017.652 4.93zm-13.055-5.96c.894.042 1.778.145 2.637.3a30.34 30.34 0 013.633 5.66h-6.27v-5.96zm0 7.747h7.086a29.847 29.847 0 012.285 10.547h-9.37V10.393zm0 12.333h9.37a30.1 30.1 0 01-2.267 10.548h-7.103V22.726zm-.008 18.295v-5.96h6.295a29.339 29.339 0 01-3.65 5.66c-.859.162-1.743.257-2.645.3zm5.41-1.03a31.54 31.54 0 002.826-4.93h4.836a19.171 19.171 0 01-7.661 4.93zm3.582-6.717a32.984 32.984 0 002.165-10.548h7.154a19.156 19.156 0 01-3.736 10.548h-5.583z" fill="#2E80DD"/></svg>