<svg width="42" height="43" viewBox="0 0 42 43" xmlns="http://www.w3.org/2000/svg"><path d="M18.27 23.396H1.167c-.644 0-1.166.522-1.166 1.166v17.105c0 .644.522 1.166 1.166 1.166h17.105c.644 0 1.166-.522 1.166-1.166V24.562c0-.644-.522-1.166-1.166-1.166zm-1.165 17.105H2.332V25.729h14.773V40.5zm23.729-.039a1.16 1.16 0 00-.844.361 1.166 1.166 0 00.805 2.01h.039c.644 0 1.166-.522 1.166-1.166v-.039c0-.644-.522-1.166-1.166-1.166zm-15.828.038h-.079a1.166 1.166 0 000 2.333h.079a1.166 1.166 0 000-2.332zm7.934 0h-.079a1.166 1.166 0 000 2.333h.079a1.166 1.166 0 000-2.332zM1.166 11.138c.644 0 1.166-.522 1.166-1.166v-.079a1.166 1.166 0 10-2.332 0v.079c0 .644.522 1.166 1.166 1.166zm0 7.934c.644 0 1.166-.522 1.166-1.167v-.078a1.166 1.166 0 00-2.332 0v.078c0 .645.522 1.167 1.166 1.167zm0-15.868c.332 0 .632-.138.844-.36a1.166 1.166 0 00-.805-2.01h-.039A1.164 1.164 0 000 1.998v.04c0 .643.522 1.165 1.166 1.165zm15.828-.038h.078a1.166 1.166 0 000-2.333h-.078a1.166 1.166 0 000 2.333zm-7.934 0h.079a1.166 1.166 0 000-2.333H9.06a1.166 1.166 0 000 2.333zm15.868 0h.078a1.166 1.166 0 000-2.333h-.078a1.166 1.166 0 000 2.333zm7.933 0h.079a1.166 1.166 0 000-2.333h-.079a1.166 1.166 0 000 2.333zM40.834.833h-.04a1.166 1.166 0 00-.804 2.01A1.166 1.166 0 0042 2.038V2c0-.644-.522-1.166-1.166-1.166zm0 7.894c-.644 0-1.166.522-1.166 1.166v.079a1.166 1.166 0 002.332 0v-.079c0-.644-.522-1.166-1.166-1.166zm0 7.933c-.644 0-1.166.523-1.166 1.167v.078a1.166 1.166 0 002.332 0v-.078c0-.644-.522-1.166-1.166-1.166zm0 7.934c-.644 0-1.166.523-1.166 1.167v.078a1.166 1.166 0 002.332 0v-.078c0-.645-.522-1.167-1.166-1.167zm0 7.934c-.644 0-1.166.522-1.166 1.166v.079a1.166 1.166 0 002.332 0v-.079c0-.644-.522-1.166-1.166-1.166zM33.68 8.234h-6.99a1.166 1.166 0 000 2.333h4.308l-9.016 9.016a1.166 1.166 0 101.649 1.65l8.883-8.884v4.04a1.166 1.166 0 002.332 0V9.4c0-.644-.522-1.166-1.166-1.166z" fill="#FFB30D"/></svg>