<svg width="39" height="45" viewBox="0 0 39 45" xmlns="http://www.w3.org/2000/svg"><g fill="#3ACF6E"><path d="M37.404 7.823C31.37 6.169 25.3 3.595 19.851.378a.922.922 0 00-.938 0C13.307 3.688 7.565 6.122 1.36 7.823a.922.922 0 00-.679.89v9.426c0 9.707 4.478 16.133 8.235 19.813 4.045 3.964 8.756 6.155 10.466 6.155 1.71 0 6.422-2.191 10.466-6.155 3.757-3.68 8.235-10.106 8.235-19.813V8.712a.922.922 0 00-.679-.89zm-1.166 10.316c0 9.066-4.177 15.062-7.681 18.495-3.977 3.898-8.23 5.628-9.175 5.628-.945 0-5.197-1.73-9.175-5.628-3.504-3.433-7.68-9.429-7.68-18.495V9.413C8.46 7.728 13.986 5.376 19.381 2.24a74.956 74.956 0 0016.856 7.171v8.727z" stroke="#3ACF6E" stroke-width=".5"/><path d="M11.205 9.31a.922.922 0 00-1.197-.52 75.059 75.059 0 01-5.028 1.776.923.923 0 00-.646.88v3.563a.923.923 0 001.845 0V12.12a76.906 76.906 0 004.506-1.615.922.922 0 00.52-1.196zm19.169 20.687a.923.923 0 00-1.277.268 22.455 22.455 0 01-2.651 3.312 23.565 23.565 0 01-2.647 2.354.923.923 0 001.12 1.467 25.43 25.43 0 002.853-2.539 24.277 24.277 0 002.87-3.585.922.922 0 00-.268-1.277zm-17.28-9.702a2.98 2.98 0 00-2.121-.878c-.802 0-1.555.312-2.122.878a3.004 3.004 0 000 4.243l5.448 5.448a2.98 2.98 0 002.121.878 2.98 2.98 0 002.121-.879l11.373-11.372a3.004 3.004 0 000-4.242 2.98 2.98 0 00-2.122-.879 2.98 2.98 0 00-2.121.879l-9.251 9.25-3.326-3.326zm13.881-4.62a1.15 1.15 0 01.817-.338 1.156 1.156 0 01.817 1.971L17.237 28.682a1.147 1.147 0 01-.817.338c-.309 0-.599-.12-.817-.338l-5.447-5.447a1.156 1.156 0 01.817-1.972c.308 0 .598.12.816.338l3.979 3.979a.923.923 0 001.304 0l9.903-9.904z"/></g></svg>