<svg width="46" height="40" viewBox="0 0 46 40" xmlns="http://www.w3.org/2000/svg"><g fill="#E94747"><path d="M45.142 23c0-6.098-2.459-11.632-6.436-15.664a1.091 1.091 0 00-.22-.22C34.45 3.136 28.918.678 22.82.678c-6.098 0-11.632 2.459-15.664 6.436a1.097 1.097 0 00-.22.22C2.958 11.369.499 16.903.499 23a22.175 22.175 0 006.537 15.78l.002.002v.001c.002 0 .002.001.003.002a1.094 1.094 0 001.552 0l.052-.058 3.382-3.383a1.098 1.098 0 00-1.552-1.552l-2.64 2.64a19.956 19.956 0 01-5.11-12.336H6.46a1.098 1.098 0 100-2.195H2.726A20.045 20.045 0 017.842 9.574l2.633 2.632a1.094 1.094 0 001.552 0 1.098 1.098 0 000-1.552L9.395 8.02a20.045 20.045 0 0112.328-5.116v3.733a1.098 1.098 0 102.196 0V2.905A20.045 20.045 0 0136.247 8.02l-2.633 2.633a1.098 1.098 0 001.553 1.552l2.632-2.632a20.045 20.045 0 015.117 12.328h-3.733a1.098 1.098 0 100 2.195h3.733a19.956 19.956 0 01-5.11 12.336l-2.64-2.64a1.098 1.098 0 00-1.552 1.552l3.438 3.438a1.094 1.094 0 001.552 0A22.175 22.175 0 0045.142 23z"/><path d="M27.864 10.411a1.097 1.097 0 00-1.427.61l-3.172 7.92a4.07 4.07 0 00-4.086 2.207c-.734 1.44-.546 3.16.502 4.602.107.147.242.282.39.39.852.619 1.802.946 2.75.946a4.07 4.07 0 003.643-2.234c.733-1.44.545-3.16-.502-4.601a1.787 1.787 0 00-.391-.391 5.384 5.384 0 00-.244-.165l3.148-7.857a1.098 1.098 0 00-.61-1.427zm-3.357 13.445a1.885 1.885 0 01-1.686 1.034c-.469 0-.941-.164-1.404-.487-.527-.756-.63-1.577-.282-2.26a1.884 1.884 0 011.686-1.034c.228 0 .457.04.685.116.007.004.014.008.022.01.024.01.048.018.072.026.21.08.418.19.624.335.527.757.63 1.577.283 2.26z"/></g></svg>