<svg width="159" height="60" viewBox="0 0 159 60" xmlns="http://www.w3.org/2000/svg"><g fill="none" fill-rule="evenodd"><path fill="#000" fill-rule="nonzero" d="M81.634 38.455V30.86h7.38v-2.7h-7.38V20.6h-2.7v7.56h-7.416v2.7h7.416v7.596z"/><path fill="#13132E" d="M23.578 16.648l.02 24.196h4.5l-.021-5.227 10.6-12.448h-5.085l-5.515 7.425V16.648z"/><path fill="#13132E" d="M31.127 34.884l3.12 4.227h5.361l-5.361-7.57zm-19.066 4.227h5.362l3.119-4.227-3.119-3.344z"/><path fill="#13132E" d="M23.469 16.648v13.946l-5.516-7.425h-5.085l10.6 12.448.083 5.227h4.498l-.082-24.196z"/><path fill="#3ACF6E" d="M25.858 0L.126 14.857l5.876 3.393L25.835 6.8l19.832 11.45v22.9l5.924 3.42V14.858z"/><path fill="#2E80DD" d="M0 45.143L25.733 60l25.733-14.857-5.924-3.42-19.832 11.45-19.833-11.45v-22.9L0 15.429z"/><g fill-rule="nonzero"><g fill="#F26322"><path d="M117.666 34L109 39.01v9.993l2.474 1.424-.012-9.994 6.192-3.572 6.192 3.572v9.994l2.474-1.424V38.997z"/><path d="M118.897 50.427l-1.23.724-1.244-.712V40.433l-2.474 1.437v9.994L117.666 54l3.706-2.136V41.87l-2.475-1.437z"/></g><path d="M158.295 8.711a2.624 2.624 0 00-5.221-.37l-.027-.015c-2.146-.967-3.953.747-3.953.747l-4.782 4.805 1.89 1.819 3.848-3.781c1.797-1.797 2.775-.58 2.775-.58 1.353 1.142.047 2.495.047 2.495l1.936 1.866c1.58-1.708 1.672-3.198 1.192-4.383a2.624 2.624 0 002.295-2.603" fill="#F9AE41"/><path d="M156.024 20.779c.01-.017.014-.027.014-.027.968-2.146-.746-3.953-.746-3.953l-4.805-4.782-1.82 1.89 3.782 3.848c1.797 1.797.58 2.776.58 2.776-1.142 1.353-2.495.046-2.495.046l-1.866 1.936c1.707 1.58 3.197 1.673 4.383 1.192a2.624 2.624 0 102.973-2.926" fill="#EE4035"/><path d="M150.528 16.303l-3.848 3.78c-1.797 1.798-2.776.582-2.776.582-1.353-1.143-.047-2.496-.047-2.496l-1.935-1.866c-1.581 1.707-1.673 3.198-1.192 4.383a2.624 2.624 0 102.926 2.974l.026.014c2.146.968 3.954-.747 3.954-.747l4.781-4.805-1.889-1.819" fill="#4F91CD"/><path d="M144.28 14.245c-1.796-1.797-.58-2.776-.58-2.776 1.143-1.353 2.496-.046 2.496-.046l1.866-1.936c-1.708-1.58-3.198-1.673-4.383-1.192a2.624 2.624 0 10-2.974 2.926 1.735 1.735 0 00-.014.027c-.968 2.146.747 3.953.747 3.953l4.804 4.782 1.82-1.89-3.781-3.848" fill="#7AC043"/><path d="M120.79 10.255C119.384 8.85 118.043 7.51 117.644 6c-.399 1.51-1.74 2.85-3.146 4.255C112.39 12.362 110 14.749 110 18.33a7.645 7.645 0 1015.289 0c0-3.581-2.39-5.97-4.499-8.076m-7.54 9.857c-.47-.016-2.2-2.998 1.01-6.172l2.123 2.32a.182.182 0 01-.014.27c-.507.52-2.666 2.686-2.935 3.435-.055.154-.136.148-.185.147m4.396 3.93a2.63 2.63 0 01-2.63-2.63 2.74 2.74 0 01.656-1.736c.474-.58 1.973-2.21 1.973-2.21s1.477 1.654 1.97 2.204c.43.478.665 1.1.66 1.742a2.63 2.63 0 01-2.63 2.63m5.033-4.264c-.057.124-.186.33-.36.337-.308.012-.341-.147-.57-.485-.502-.743-4.881-5.32-5.7-6.205-.72-.779-.102-1.328.185-1.615l1.412-1.412s3.136 2.975 4.442 5.008.856 3.792.59 4.372" fill="#009CDE"/><path d="M144.917 49.345c.16-.071.322-.136.485-.198a8.811 8.811 0 011.27-.376c.323-.07.65-.12.978-.152a30.61 30.61 0 01-.61 1.732c.01.112.015.223.018.335a7.105 7.105 0 012.753 0c.003-.112.009-.223.018-.335a30.55 30.55 0 01-.61-1.732c.33.032.656.083.98.152a8.808 8.808 0 011.268.376 8.677 8.677 0 013.498 2.422 9.974 9.974 0 003.47-7.569c0-5.523-4.478-10-10-10-5.523 0-10 4.477-10 10a9.974 9.974 0 003.469 7.57 8.678 8.678 0 013.013-2.225" fill="#A5DBE8"/><path d="M151.952 49.345l.62 2.135.177.008c.114 0 .195.03.195.144 0 .19.01.404.028.59.154.132.343.28.486.424a10 10 0 001.507-1.077 8.677 8.677 0 00-3.013-2.224m-1.214-.021l.73-.177a8.796 8.796 0 00-2.25-.528c.187.584.39 1.161.61 1.732a7.512 7.512 0 00-.017.335 7.168 7.168 0 011.494.487l-.567-1.85" fill="#525353"/><path d="M143.412 52.646c.116.067.233.133.352.196.042-.2.109-.478.129-.684-.155.131-.338.344-.481.488m7.881-1.492a7.017 7.017 0 00-2.858-.603 7.09 7.09 0 00-1.377.135 7.39 7.39 0 00-1.525.464l-.05.311h5.903l-.093-.307" fill="#000"/><path d="M143.875 52.217c.018-.186.031-.352.031-.542 0-.115.079-.188.193-.188l.187-.006.631-2.136a8.678 8.678 0 00-3.013 2.224c.468.405.973.765 1.508 1.077.143-.144.291-.282.446-.414" fill="#525353"/><path d="M153.048 52.597c.04.203.05.244.057.245.119-.063.236-.128.353-.196a7.265 7.265 0 00-.451-.418l.041.37" fill="#000"/><path d="M151.293 51.154l.093.307h1.207l-.64-2.116a8.83 8.83 0 00-.486-.198l-.729.177.555 1.83" fill="#AA9678"/><path d="M144.305 51.901l.025-.017h-.024v.017" fill="#C4B6A1"/><path d="M152.585 51.884h-.024l.025.017-.001-.017" fill="#AA9678"/><path d="M152.55 51.844l-4.124.005.009 2.151a9.958 9.958 0 004.288-.965c-.085-.373-.093-.774-.107-1.165a.673.673 0 00-.065-.026" fill="#AA9678"/><path d="M148.428 51.858s-4.147-.006-4.154-.001c-.013.39-.094.854-.128 1.178 1.3.618 2.754.965 4.289.965l.002-2.135-.009-.007" fill="#C4B6A1"/><path fill="#786453" d="M148.446 51.668v.207z"/><path d="M151.528 50.263l.002.006-.002-.006s-.101-.08-.23-.229c.129.148.23.229.23.229" fill="#AA9678"/><path fill="#BBBCBD" d="M154.997 44.102V44.1v.003"/><path d="M154.975 43.935l.001.008.001.004v.001c.005.038.007.078.008.118l.001.022v.006l-.001.023a1.11 1.11 0 01-.008.116v.006l-.002.01a1.228 1.228 0 01-.023.118l.001-.001v-.002l.263-.274-.264-.276c.01.039.017.08.023.121" fill="#676A6A"/><path d="M155.167 44.248l.004-.015a.962.962 0 00.009-.116l.001-.026-.001-.025a.94.94 0 00-.01-.118l-.002-.013a.877.877 0 00-.029-.12c-.004-.014-.01-.026-.015-.04a.715.715 0 00-.177-.266.48.48 0 00-.064-.048c-.009-.006-.018-.01-.026-.014a.409.409 0 00-.176-.046.37.37 0 00-.175.046l-.026.013a.469.469 0 00-.124.111.713.713 0 00-.117.205l-.004.01a.881.881 0 00-.032.112l-.008.035a.873.873 0 00-.012.136l-.002.019h.002c0 .38.224.69.5.69a.429.429 0 00.21-.065l.028-.02a.513.513 0 00.103-.102l.023-.033a.674.674 0 00.04-.065l.012-.025a.794.794 0 00.068-.22zM154.7 44c-.103 0-.187-.116-.187-.259 0-.142.084-.258.187-.258.104 0 .188.116.188.258 0 .143-.084.26-.188.26z" fill="#000"/><path d="M154.598 43.482c-.083 0-.15.116-.15.258 0 .143.067.26.15.26.083 0 .15-.117.15-.26 0-.142-.067-.258-.15-.258" fill="#FFF"/><path d="M154.227 43.776a.77.77 0 01.11-.227.407.407 0 01.084-.089c.007-.005.015-.008.021-.013a.288.288 0 01.142-.046.294.294 0 01.141.046c.007.005.014.008.02.014a.405.405 0 01.1.11.776.776 0 01.095.205l-.356-1.63-.357 1.63" fill="#909393"/><path d="M149.864 44.076a.97.97 0 00-.006-.097v-.002a.954.954 0 00-.016-.093v-.002a.938.938 0 00-.025-.089v-.002a.894.894 0 00-.034-.085v-.001a.947.947 0 00-.504-.488h-.002a.935.935 0 00-.169-.052h-.004a.937.937 0 00-.359 0h-.006a.937.937 0 00-.165.05l-.005.001a.934.934 0 00-.29.187v.003h-.004a.955.955 0 00-.171.219l-.002.003a.892.892 0 00-.039.077l-.004.008a.915.915 0 00-.028.075l-.005.014a1.024 1.024 0 00-.02.072l-.005.021a.982.982 0 00-.012.074l-.003.022a.938.938 0 00.013.28v.004c.012.059.03.116.052.17v.002a.946.946 0 00.411.464h.002a.944.944 0 00.078.04l.006.002c.025.011.05.02.076.03.005 0 .009.003.013.004a.906.906 0 00.073.02c.007 0 .013.003.02.004a.995.995 0 00.073.012l.022.003a.94.94 0 001.04-.937v-.013zm-.941-.11a.354.354 0 110-.709.354.354 0 010 .708z" fill="#000"/><path d="M148.923 43.257a.354.354 0 100 .708.354.354 0 000-.708" fill="#FFF"/><path d="M148.275 43.407l.003-.001.001-.003.65-1.985v-.464l-.001-.006a5.53 5.53 0 00-1.491-.1l-.055.003c-.651.05-1.293.22-1.887.49-.509.233-.982.54-1.408.903a6.214 6.214 0 00-.33.305l-.06.059a6.166 6.166 0 00-.293.313l-.06.072a6.908 6.908 0 00-.274.342l-.021.03a7.01 7.01 0 00-.24.348c-.014.023-.03.045-.044.069a7.3 7.3 0 00-.176.299h2.956l2.73-.674" fill="#BBBCBD"/><path d="M150.77 43.183a8.886 8.886 0 00.027-.791v-.07a12.09 12.09 0 00-.023-.632h-.002v-.002l-.235-.134-.005-.003-.062-.035-.043-.024-.008-.005a5.813 5.813 0 00-.446-.212 7.37 7.37 0 00-1.045-.327v.47l.643 1.988.001.001a.929.929 0 01.21.297l.001.002a.894.894 0 01.033.085l.001.002c.01.03.018.059.024.089l.001.002a.95.95 0 01.016.093v.002a.97.97 0 01.006.097l.003.005h.787a8.6 8.6 0 00.114-.874l.002-.024" fill="#E3DDDB"/><path d="M151.811 42.491l-.001.004.001-.004" fill="#FCB03F"/><path d="M148.28 43.403a.96.96 0 01.29-.187l.004-.001a.937.937 0 01.165-.05h.006a.943.943 0 01.359 0h.004a.935.935 0 01.464.242v-.001l-.644-1.988-.649 1.985" fill="#909393"/><path d="M148.05 44.445a.928.928 0 01-.05-.17l-.001-.004a.938.938 0 01-.013-.28c0-.008.002-.015.003-.022a.982.982 0 01.012-.074l.005-.02c.006-.025.012-.05.02-.073l.005-.014a.915.915 0 01.028-.075l.004-.008a.892.892 0 01.039-.077l.002-.003a.955.955 0 01.17-.218l-2.73.674h-.004l2.703.66a.946.946 0 01-.191-.294l-.001-.002" fill="#676A6A"/><path d="M154.193 43.933c.001-.012.004-.023.006-.035a.981.981 0 01.026-.113l.002-.012.357-1.631v-.93c-.292-.24-.603-.372-.928-.372-.41 0-.792.226-1.078.506-.313.306-.554.691-.75 1.08l-.027.053a14.49 14.49 0 01.57.532l.178.18.187.191a18.404 18.404 0 01.611.673.275.275 0 01.03.033h.804l.001-.02a1.19 1.19 0 01.01-.135" fill="#E3DDDB"/><path d="M142.105 45.107l.007-.018c.108-.28.232-.553.372-.818.022-.041.043-.083.066-.123.012-.023.026-.045.039-.067a7.3 7.3 0 01.176-.3l.045-.068a7.01 7.01 0 01.239-.348l.02-.03c.088-.117.18-.231.275-.342l.06-.072c.094-.107.191-.212.292-.313l.06-.06c.107-.105.217-.206.33-.304h.001c.45-1.505 1.9-2.43 3.527-2.43.655 0 1.306.188 1.864.53.572.35.962.692 1.265 1.29l.005.009.024.045v.001l.002.001a6.032 6.032 0 01.951.727c.025.022.05.043.074.066l.001-.003.001-.001c.008-.017.016-.035.025-.051.23-1.447.957-2.236 1.71-2.236.567 0 .98.338 1.291 1.25l.003.009.001.001c.092.1.178.206.257.316l.005.007.012.04-.011-.048a7.013 7.013 0 00-13.311 4.428v-.003c.08-.37.187-.732.322-1.085" fill="#525353"/><path d="M155.199 44.09l-.245.274v.002a.907.907 0 01-.034.102l-.01.025a.714.714 0 01-.032.065l-.018.033a.59.59 0 01-.083.101c-.007.007-.015.015-.022.02a.326.326 0 01-.06.038.25.25 0 01-.11.027c-.222 0-.402-.309-.402-.69h-.808v.001a25.64 25.64 0 01.867 1.054l.02.026c.13.166.26.334.388.502l.038.049c.136.179.27.359.405.54a7 7 0 00.368-2.171l-.227-.01-.035.012" fill="#FFF"/><path d="M147.382 40.851l.055-.004a5.53 5.53 0 011.491.1v.001c.255.06.708.185 1.044.327.141.06.28.125.416.195l.03.017.009.005.042.023h.001l.062.036.005.003.219.125.01.005.006.004-.024-.045-.005-.01a3.651 3.651 0 00-1.341-1.46 3.594 3.594 0 00-1.864-.53c-1.627 0-3.001 1.096-3.45 2.6a6.045 6.045 0 011.407-.902 5.575 5.575 0 011.887-.49" fill="#000"/><path d="M155.093 41.775l-.005-.007a3.402 3.402 0 00-.257-.316l-.002-.003a2.85 2.85 0 00-.121-.124l-.047-.041c-.026-.024-.051-.048-.077-.07v.931l.356 1.631.012.038.247.276.002-.002h.258l.002-.072a7 7 0 00-.356-2.201l-.012-.04" fill="#BBBCBD"/><path d="M152.578 41.346c.286-.28.668-.506 1.078-.506.325 0 .636.131.928.372v.003c.026.021.051.045.077.069l.047.041c.041.04.082.082.121.124l.002.003v-.001l-.004-.01c-.311-.91-.814-1.502-1.381-1.502-.753 0-1.39 1.042-1.62 2.489l.002-.002c.196-.389.437-.774.75-1.08m-1.017 8.891s-.101-.08-.23-.228a2.326 2.326 0 01-.216-.29c-.048-.077-.087-.17-.13-.263-.05-.107-.05-.179-.078-.278a1.966 1.966 0 01-.01-1.036 2.68 2.68 0 01.308-.723l.039-.087c.05-.084.06-.08.108-.16.67-1.13 1.03-1.983.854-3.298a13.53 13.53 0 00-.066-.403l-.049.29c-.007.03-.025.063-.032.084-.29.86-.748 1.493-1.406 2.207a35.723 35.723 0 01-.786.809l-.218.216c-.068.067-.153.211-.254.317-.062.174-.132.37-.192.577l-.08-.03a9.383 9.383 0 01-2.135-1.155s.659.857 1.768 1.662c.102.074.208.143.318.206-.046.724.273 1.42 1.716 1.628.244.035.494.033.746.005-.003-.008.014-.008.013-.012-.002-.004.013-.015.013-.015" fill="#000"/><path d="M150.79 48.372a8.922 8.922 0 005.145-.749c.047-.022.1.036.147.013 0 0-1.345 1.374-2.952 2.15-.047.023-.093.048-.14.07-.156.07-.314.132-.472.189a4.456 4.456 0 01-.939.236l-.043.006a1.938 1.938 0 01-.006-.018l-.002-.006s-.101-.08-.23-.229a2.283 2.283 0 01-.466-.844 1.931 1.931 0 01-.053-.813l.01-.005" fill="#9F2254"/><path d="M149.871 46.913a35.338 35.338 0 00.787-.809c.658-.714 1.141-1.383 1.432-2.243a.802.802 0 00.02-.077l.003-.014a2.45 2.45 0 00.02-.108c.003-.028.09-.084.092-.11a3.416 3.416 0 00-.423-1.065l-.003-.004c-.024-.023-.05-.044-.074-.066a6.038 6.038 0 00-.951-.726c.013.21.021.42.023.63v.07a10.206 10.206 0 01-.012.56 8.886 8.886 0 01-.015.232l-.002.024a8.6 8.6 0 01-.114.874l-.092.437c-.193.784-.586 1.494-.908 2.228a8.735 8.735 0 00-.238.591l-.02.057c.084-.09.17-.178.257-.265l.218-.216" fill="#FCB03F"/><path d="M145.638 51.126c.47-.208.904-.338 1.42-.44a5.747 5.747 0 00-.018-.335c.221-.57.424-1.148.61-1.732a8.812 8.812 0 00-.979.152 8.802 8.802 0 00-1.269.376l.73.177-.587 1.84.093-.038" fill="#525353"/><path d="M154.65 45.67a44.816 44.816 0 00-.388-.502l-.02-.026a33.025 33.025 0 00-.866-1.054l-.029-.033a21.198 21.198 0 00-.798-.864l-.177-.18a14.73 14.73 0 00-.57-.532l-.002.001c.127.365.272.733.344 1.113.019.1.034.195.047.29.177 1.314-.245 2.172-.914 3.301l-.147.247a2.685 2.685 0 00-.308.724 2.184 2.184 0 00-.043.222c1.311.211 3.284.25 5.303-.741 0 0-.396-.582-.992-1.382a67.864 67.864 0 00-.402-.535l-.038-.049" fill="#DF0067"/><path d="M145.475 51.494l.656-2.17-.729-.177a8.788 8.788 0 00-.485.198l-.65 2.149.726.011.482-.011" fill="#AA9678"/><path d="M145.936 50.555c.064.025.13.047.194.07a6.99 6.99 0 004.936-.113l.128-.055.205-.09.18-.086-.043.006a2.93 2.93 0 01-.746-.005c-1.443-.208-1.762-.904-1.716-1.628a3.599 3.599 0 01-.318-.206c-1.11-.805-1.768-1.662-1.768-1.662s.856.66 2.135 1.155l.08.03c.06-.207.13-.403.192-.577l.02-.057c.072-.2.153-.397.239-.591.322-.734.715-1.444.908-2.228l.092-.437h-.789v.008a.94.94 0 01-1.04.937c-.008 0-.015-.002-.022-.003a.996.996 0 01-.073-.012l-.02-.005a.906.906 0 01-.073-.019l-.013-.005a.943.943 0 01-.076-.029l-.006-.003a.944.944 0 01-.078-.039h-.002a.951.951 0 01-.219-.17l-2.703-.66h-2.951l-.04.067-.065.123a7.519 7.519 0 00-.372.818l-.007.018a7.517 7.517 0 00-.321 1.085 7.03 7.03 0 002.55 3.492c.034.025.07.047.105.072a7.014 7.014 0 001.497.799" fill="#FFF"/><path d="M153.011 52.232a5.825 5.825 0 01-.03-.564.207.207 0 00-.206-.207h-8.68a.207.207 0 00-.208.207 5.8 5.8 0 01-.123 1.174c.126.067.253.132.382.193.086-.377.137-.76.151-1.147l.001-.013h8.273l.001.013c.014.386.065.77.151 1.147.129-.061.256-.126.382-.193a5.746 5.746 0 01-.094-.61" fill="#8B7460"/></g></g></svg>