<svg width="169" height="60" viewBox="0 0 169 60" xmlns="http://www.w3.org/2000/svg"><g fill="none" fill-rule="evenodd"><g fill="#000" fill-rule="nonzero"><path d="M109 30c0 11.875 6.875 22.125 16.875 27l-14.25-39.25C109.875 21.5 109 25.625 109 30zm50.25-1.5c0-3.75-1.375-6.25-2.5-8.25-1.5-2.5-3-4.625-3-7 0-2.75 2.125-5.375 5-5.375h.375A29.573 29.573 0 00139 0c-10.5 0-19.75 5.375-25.125 13.5h1.875c3.125 0 8-.375 8-.375 1.625-.125 1.75 2.25.25 2.5 0 0-1.625.25-3.375.25l10.875 32.5 6.625-19.625L133.5 16c-1.625-.125-3.125-.25-3.125-.25-1.625-.125-1.375-2.625.25-2.5 0 0 5 .375 7.875.375 3.125 0 8-.375 8-.375 1.625-.125 1.75 2.25.25 2.5 0 0-1.625.25-3.375.25L154 48.125l3-10C158.25 34 159.25 31 159.25 28.5z"/><path d="M139.5 32.625l-9 26.125c2.75.75 5.5 1.25 8.5 1.25 3.5 0 6.875-.625 10-1.75-.125-.125-.125-.25-.25-.375l-9.25-25.25zm25.875-17c.125 1 .25 2 .25 3.125 0 3-.625 6.5-2.25 10.75L154.25 56C163 50.75 169 41.125 169 30c0-5.25-1.375-10.125-3.625-14.375z"/></g><path fill="#13132E" d="M23.578 16.648l.02 24.196h4.5l-.021-5.227 10.6-12.448h-5.085l-5.515 7.425V16.648z"/><path fill="#13132E" d="M31.127 34.884l3.12 4.227h5.361l-5.361-7.57zm-19.066 4.227h5.362l3.119-4.227-3.119-3.344z"/><path fill="#13132E" d="M23.469 16.648v13.946l-5.516-7.425h-5.085l10.6 12.448.083 5.227h4.498l-.082-24.196z"/><path fill="#3ACF6E" d="M25.858 0L.126 14.857l5.876 3.393L25.835 6.8l19.832 11.45v22.9l5.924 3.42V14.858z"/><path fill="#2E80DD" d="M0 45.143L25.733 60l25.733-14.857-5.924-3.42-19.832 11.45-19.833-11.45v-22.9L0 15.429z"/><path fill="#000" fill-rule="nonzero" d="M81.694 38.57v-7.596h7.38v-2.7h-7.38v-7.56h-2.7v7.56h-7.416v2.7h7.416v7.596z"/></g></svg>