<?xml version="1.0" standalone="no"?>
<!DOCTYPE svg PUBLIC "-//W3C//DTD SVG 20010904//EN"
 "http://www.w3.org/TR/2001/REC-SVG-20010904/DTD/svg10.dtd">
<svg version="1.0" xmlns="http://www.w3.org/2000/svg"
 width="260.000000pt" height="260.000000pt" viewBox="0 0 260.000000 260.000000"
 preserveAspectRatio="xMidYMid meet">
<metadata>
Created by potrace 1.14, written by Peter Selinger 2001-2017
</metadata>
<g transform="translate(0.000000,260.000000) scale(0.100000,-0.100000)"
fill="#000000" stroke="none">
<path d="M1194 2282 c-54 -33 -232 -137 -394 -232 -162 -94 -312 -183 -333
-197 l-39 -25 78 -44 c42 -24 79 -44 82 -44 5 0 591 339 622 360 14 9 40 24
58 34 l32 17 93 -54 c346 -201 631 -368 636 -373 3 -3 4 -189 3 -414 l-1 -409
75 -46 c42 -25 79 -43 82 -40 3 3 7 230 9 504 3 463 1 499 -15 513 -9 8 -71
45 -137 83 -66 38 -151 87 -190 110 -213 126 -544 315 -552 315 -5 0 -54 -26
-109 -58z"/>
<path d="M1204 1555 c1 -146 -1 -265 -4 -264 -3 0 -51 63 -107 139 l-102 140
-88 -1 c-88 -2 -113 -6 -96 -18 5 -3 85 -96 179 -206 93 -110 179 -211 191
-225 13 -14 23 -29 24 -35 1 -5 2 -50 4 -100 1 -49 3 -92 4 -95 0 -3 39 -5 86
-5 l85 0 1 35 c0 19 0 65 -1 101 l-1 66 63 74 c233 271 338 396 338 403 0 3
-42 5 -94 4 l-95 -2 -103 -139 -103 -139 -3 266 -2 266 -88 0 -89 0 1 -265z"/>
<path d="M401 1653 c-1 -681 -1 -876 1 -879 2 -1 188 -110 413 -241 226 -131
425 -248 443 -258 39 -24 -6 -45 377 180 149 87 279 163 290 169 84 46 235
139 235 145 0 4 -34 26 -75 49 l-74 43 -73 -41 c-40 -23 -88 -50 -107 -61
-251 -148 -534 -308 -539 -306 -114 63 -710 413 -717 422 -7 9 -11 154 -10
420 l0 407 -67 39 c-105 62 -96 70 -97 -88z"/>
<path d="M870 1103 c-52 -74 -96 -138 -98 -142 -1 -3 43 -6 99 -6 l100 0 60
79 c49 66 57 82 47 95 -20 27 -102 111 -108 111 -3 -1 -48 -62 -100 -137z"/>
<path d="M1556 1179 l-57 -61 25 -36 c15 -21 41 -57 59 -82 l33 -45 102 0 c56
-1 101 2 100 6 -7 16 -194 278 -199 279 -3 0 -32 -27 -63 -61z"/>
</g>
</svg>
