<svg width="1310" height="781" viewBox="0 0 1310 781" xmlns="http://www.w3.org/2000/svg" xmlns:xlink="http://www.w3.org/1999/xlink"><defs><path id="a" d="M0 0h1310v781H0z"/></defs><g fill="none" fill-rule="evenodd" opacity=".05"><mask id="b" fill="#fff"><use xlink:href="#a"/></mask><path d="M1517.87-594.689l-732.722-460.25c-10.746-6.748-23.866-6.748-34.612 0L17.813-594.688C6.927-587.86.227-575.129.227-561.396v843.791c0 13.732 6.7 26.465 17.586 33.293l732.723 460.25c5.375 3.376 11.305 5.062 17.307 5.062 6.003 0 11.933-1.686 17.308-5.063l732.723-460.25c10.886-6.827 17.585-19.56 17.585-33.292v-843.791c0-13.732-6.702-26.465-17.588-33.293z" fill="#2E80DD" fill-rule="nonzero" mask="url(#b)"/></g></svg>