<?xml version="1.0" encoding="UTF-8"?>
<svg width="1310px" height="781px" viewBox="0 0 1310 781" version="1.1" xmlns="http://www.w3.org/2000/svg" xmlns:xlink="http://www.w3.org/1999/xlink">
    <title>Path</title>
    <defs>
        <rect id="path-1" x="0" y="0" width="1310" height="781"></rect>
    </defs>
    <g id="Page-1" stroke="none" stroke-width="1" fill="none" fill-rule="evenodd" opacity="0.049827939">
        <g id="Kredeum_dapp_home" transform="translate(-130.000000, 0.000000)">
            <g id="Path" transform="translate(130.000000, 0.000000)">
                <mask id="mask-2" fill="white">
                    <use xlink:href="#path-1"></use>
                </mask>
                <g id="Mask"></g>
                <path d="M1517.87083,-594.688831 L785.147514,-1054.93816 C774.401996,-1061.68728 761.281669,-1061.68728 750.536151,-1054.93816 L17.8128316,-594.688831 C6.92665661,-587.8606 0.227471977,-575.128234 0.227471977,-561.396264 L0.227471977,282.395365 C0.227471977,296.127335 6.92665661,308.859701 17.8128316,315.687932 L750.536151,775.937257 C755.910545,779.313618 761.841025,781 767.843468,781 C773.845911,781 779.776391,779.313618 785.150785,775.937257 L1517.8741,315.687932 C1528.76028,308.859701 1535.45946,296.127335 1535.45946,282.395365 L1535.45946,-561.396264 C1535.45946,-575.128234 1528.75701,-587.8606 1517.87083,-594.688831 Z" fill="#2E80DD" fill-rule="nonzero" mask="url(#mask-2)"></path>
            </g>
        </g>
    </g>
</svg>