<?xml version="1.0" encoding="UTF-8"?>
<svg xmlns="http://www.w3.org/2000/svg" width="500" height="500" xml:space="preserve" version="1.1"> <g> <title>Layer 1</title> <g stroke="null" id="Layer_x0020_1"> <g stroke="null" id="_1577962445936"> <circle stroke="#000000" id="svg_1" stroke-miterlimit="22.9256" stroke-linejoin="round" stroke-linecap="round" stroke-width="2" clip-rule="evenodd" fill-rule="evenodd" r="248.80501" cy="249.99999" cx="249.99999" class="st0"></circle> <g stroke="null" id="svg_2"> <polygon stroke="null" id="svg_3" fill="#FFFFFF" points="93.02772521972656,100.19904327392578 93.02772521972656,399.8009033203125 370.31886291503906,399.8009033203125 370.31886291503906,366.13555908203125 126.29468536376953,366.13555908203125 126.29468536376953,133.86441040039062 370.31886291503906,133.86441040039062 370.31886291503906,100.19904327392578 " class="st1"></polygon> <path stroke="null" id="svg_4" fill="#FFFFFF" d="m397.8089,215.3386c0,-7.17132 -2.78885,-13.34663 -8.16734,-18.52591c-5.57769,-5.17929 -13.14742,-7.96814 -23.10759,-7.96814c-8.36654,0 -14.94025,1.79283 -19.92034,5.17929c-4.98008,3.58566 -7.37053,8.16734 -7.37053,14.14344c0,3.18725 0.59761,5.9761 1.79283,8.36654s3.18725,4.58168 6.1753,6.57371s6.77292,3.78486 11.5538,5.17929c4.78088,1.59363 10.95619,2.98805 18.12751,4.38247c18.52591,3.38646 32.66936,9.16336 42.43032,16.93229c9.76097,7.96814 14.74105,19.72114 14.74105,35.4582l0,3.18725c0,8.36654 -1.59363,15.73707 -4.38247,22.50998c-2.98805,6.57371 -7.17132,12.35061 -12.74902,17.13149s-12.15141,8.36654 -20.11954,10.95619c-7.96814,2.39044 -16.93229,3.78486 -26.69325,3.78486c-11.5538,0 -21.71317,-1.79283 -30.67732,-4.98008s-16.13547,-7.96814 -22.11158,-13.74503c-5.7769,-5.9761 -10.35858,-12.74902 -13.34663,-20.51795c-2.98805,-7.96814 -4.58168,-16.53388 -4.58168,-25.89644l0,-1.59363l33.26697,0c0,10.75698 2.98805,19.12353 9.16336,25.69724c6.1753,6.37451 15.53786,9.56176 28.68529,9.56176c10.15937,0 17.5299,-2.19124 22.50998,-6.57371c4.98008,-4.58168 7.37053,-9.76097 7.37053,-15.73707c0,-2.98805 -0.39841,-5.57769 -1.59363,-8.36654c-0.99602,-2.58964 -2.78885,-4.98008 -5.37849,-7.17132c-2.39044,-2.19124 -5.9761,-3.98407 -10.35858,-5.7769s-9.96017,-3.18725 -16.73308,-4.38247c-8.96415,-1.59363 -16.93229,-3.58566 -24.50202,-5.9761c-7.37053,-2.39044 -13.74503,-5.7769 -19.32273,-9.76097s-9.56176,-9.16336 -12.74902,-15.33866c-2.98805,-6.1753 -4.58168,-13.54583 -4.58168,-22.50998l0,-1.59363c0,-7.17132 1.59363,-14.14344 4.38247,-20.31875c2.98805,-6.1753 6.97212,-11.5538 12.35061,-16.33468c5.37849,-4.58168 11.5538,-8.16734 19.12353,-10.75698c7.56973,-2.39044 15.73707,-3.78486 25.09963,-3.78486c10.35858,0 19.52193,1.59363 27.68927,4.58168s14.94025,6.97212 20.31875,12.15141c5.57769,5.17929 9.16336,11.15539 12.35061,17.7291c3.98407,7.96814 4.18327,23.90441 4.18327,23.90441l-33.06776,-0.39841l0.1992,0.59761z" class="st1"></path> </g> </g> </g> </g> </svg>
