<svg width="24" height="24" viewBox="0 0 24 24" fill="none" xmlns="http://www.w3.org/2000/svg">
<g id="Icons">
<rect id="Rectangle 26" width="24" height="24" rx="10" fill="white"/>
<path id="Vector" fill-rule="evenodd" clip-rule="evenodd" d="M7.71957 17.737C5.97391 16.4326 4.8413 14.3478 4.8413 12C4.8413 8.04783 8.04783 4.8413 12 4.8413C15.263 4.8413 18.8261 6.7913 19.687 9.77826C18.7239 6.4413 15.6478 4 12 4C7.58261 4 4 7.58261 4 12C4 16.4174 7.58261 20 12 20C16.4174 20 20 16.4174 20 12V11.5783H19.5609C19.5478 11.5783 19.5283 11.5783 19.5022 11.5783C19.45 11.5783 19.3761 11.5761 19.2804 11.5717C19.0913 11.5652 18.8304 11.5522 18.537 11.5261C17.937 11.4739 17.2522 11.3717 16.787 11.1848C16.037 10.8848 15.613 10.4891 15.1304 10.0239L15.1022 9.99783C14.6174 9.53261 14.0739 9.0087 13.1283 8.56522C12.1978 8.12826 11.1696 8.19783 10.4152 8.35435C10.0326 8.43261 9.70217 8.53696 9.46957 8.62174C9.35217 8.66304 9.2587 8.70217 9.19348 8.72826C8.81304 8.88913 8.44348 9.07826 8.07174 9.25435C8.07174 9.25435 8.80435 9.45435 9.16522 9.56739C9.17826 9.57174 9.19783 9.57826 9.22609 9.58696C9.28044 9.60435 9.3587 9.63261 9.45217 9.67174C9.64348 9.75 9.89348 9.86522 10.1413 10.0261C10.5326 10.2761 10.8565 10.5935 10.9891 10.9804C10.1609 11.0891 9.38261 11.4543 8.8 11.7957C8.44783 12.0022 8.15435 12.2109 7.94783 12.3652C7.84565 12.4435 7.76304 12.5087 7.70652 12.5543C7.6587 12.5935 6.91087 13.2522 6.91087 13.2522C6.91087 13.2522 7.87609 13.3543 8.35217 13.45C8.66957 13.513 9.09565 13.6174 9.54348 13.7717C9.9913 13.9283 10.4435 14.1326 10.8196 14.3957C11.1957 14.6587 11.4717 14.9609 11.6065 15.3087C12.0022 16.3217 11.613 17.3065 10.8326 17.8609C10.0609 18.4087 8.88913 18.5391 7.71739 17.7348L7.71957 17.737ZM10.45 18.9891C10.7652 18.887 11.0587 18.737 11.3239 18.55C12.3848 17.7957 12.9435 16.413 12.3935 15.0043C12.1761 14.45 11.763 14.0283 11.3043 13.7065C10.8435 13.3848 10.3152 13.15 9.82391 12.9783C9.50217 12.8652 9.18913 12.7783 8.91739 12.713C9.01522 12.65 9.11739 12.5848 9.22826 12.5196C9.87609 12.1391 10.6935 11.7891 11.4761 11.7891C12.6565 11.7891 13.5348 12.1522 14.3739 12.5391C14.45 12.5739 14.5261 12.6109 14.6043 12.6457C15.3543 12.9978 16.1413 13.3674 17.0565 13.3674C17.9717 13.3674 18.6348 13.1174 19.1109 12.8565C18.687 16.4043 15.6674 19.1565 12.0043 19.1565C11.4717 19.1565 10.9522 19.0978 10.4543 18.9891H10.45ZM18.1978 12.3413C17.8826 12.4478 17.5 12.5261 17.0543 12.5261C16.337 12.5261 15.7196 12.2391 14.937 11.8739C14.8674 11.8413 14.7978 11.8087 14.7261 11.7761C13.9413 11.413 13.0348 11.0283 11.8543 10.9587C11.6957 10.1783 11.1043 9.64348 10.5957 9.31739C10.5391 9.28043 10.4826 9.24565 10.4261 9.21304C10.4761 9.20217 10.5283 9.18913 10.5826 9.17826C11.2652 9.03696 12.0783 9.00217 12.7674 9.32826C13.5848 9.71304 14.0478 10.1565 14.5283 10.6174L14.5457 10.6326C15.0391 11.1065 15.563 11.6043 16.4739 11.9696C16.9804 12.1717 17.637 12.2804 18.1978 12.3413Z" fill="black"/>
</g>
</svg>
