<?xml version="1.0" encoding="UTF-8"?>
<svg width="52px" height="60px" viewBox="0 0 52 60" version="1.1" xmlns="http://www.w3.org/2000/svg" xmlns:xlink="http://www.w3.org/1999/xlink">
    <title>logo-kredeum-bl</title>
    <g id="Page-1" stroke="none" stroke-width="1" fill="none" fill-rule="evenodd">
        <g id="Kredeum_site_V2" transform="translate(-251.000000, -2107.000000)">
            <g id="Group-22" transform="translate(151.500000, 2016.083759)">
                <g id="Group-13" transform="translate(74.076352, 89.000905)">
                    <g id="logo-kredeum-bl" transform="translate(25.423648, 1.915336)">
                        <polygon id="Fill-1" fill="#13132E" points="23.5778666 16.6476393 23.5983188 40.8442258 28.0973934 40.8442258 28.0769412 35.616644 38.6769064 23.1686181 33.59249 23.1686181 28.0769412 30.5939932 28.0769412 16.6476393"></polygon>
                        <polygon id="Fill-2" fill="#13132E" points="31.1273047 34.8838008 34.246674 39.1112702 39.6080132 39.1112702 34.246674 31.5402755"></polygon>
                        <polygon id="Fill-3" fill="#13132E" points="12.0609885 39.1111475 17.4231458 39.1111475 20.5416969 34.8836781 17.4231458 31.5401528"></polygon>
                        <polygon id="Fill-4" fill="#13132E" points="23.4685292 16.6476393 23.4685292 30.5939932 17.9525714 23.1686181 12.8681549 23.1686181 23.4685292 35.616644 23.550747 40.8442258 28.0494125 40.8442258 27.9671947 16.6476393"></polygon>
                        <polygon id="Fill-5" fill="#3ACF6E" points="25.8581231 0 0.125576496 14.8568857 6.0023111 18.2503145 25.8348076 6.79994682 45.6673041 18.2503145 45.6673041 41.1506407 51.5910788 44.5706572 51.5910788 14.8568857"></polygon>
                        <polygon id="Fill-6" fill="#2E80DD" points="0 45.1431143 25.7329556 60 51.4655023 45.1431143 45.5417276 41.7230977 25.7096401 53.1734653 5.87714365 41.7230977 5.87714365 18.8227715 0 15.4293428"></polygon>
                    </g>
                </g>
            </g>
        </g>
    </g>
</svg>