<svg xmlns="http://www.w3.org/2000/svg" width="124.983" height="140.32" viewBox="0 0 124.983 140.32"><path data-name="Path 153" d="M78.301 64.294l10.305-17.485 27.776 43.262.013 8.3-.091-57.131a4.3 4.3 0 00-1.99-3.428L64.307 9.049a4.408 4.408 0 00-3.821.018 4.352 4.352 0 00-.448.259l-.174.11-48.541 28.128-.189.085a4.417 4.417 0 00-.717.418 4.29 4.29 0 00-1.729 2.731 4.419 4.419 0 00-.062.505l.076 46.556 25.872-40.1c3.257-5.317 10.354-7.03 16.942-6.937l7.732.2-45.56 73.064 5.371 3.092 46.106-76.083 20.379-.074-45.987 78 19.166 11.03 2.29 1.317a4.4 4.4 0 003.087.061l50.71-29.387-9.7 5.618zm3.932 56.627L62.877 90.542l11.815-20.049 25.42 40.066z" fill="#2d374b"/><path data-name="Path 154" d="M62.877 90.542l19.356 30.378 17.88-10.362-25.419-40.065z" fill="#28a0f0"/><path data-name="Path 155" d="M116.398 98.372l-.013-8.3L88.609 46.81 78.298 64.293l26.814 43.366 9.7-5.618a4.3 4.3 0 001.587-3.129z" fill="#28a0f0"/><path data-name="Path 156" d="M0 106.202l13.691 7.889 45.56-73.064-7.732-.2c-6.588-.093-13.685 1.619-16.942 6.937l-25.872 40.1-8.7 13.373v4.969z" fill="#fff"/><path data-name="Path 157" d="M85.546 41.026l-20.378.074-46.106 76.083 16.115 9.279 4.382-7.433z" fill="#fff"/><path data-name="Path 158" d="M124.982 40.921a12.98 12.98 0 00-6.093-10.435L68.227 1.352a13.178 13.178 0 00-11.624 0c-.423.213-49.268 28.542-49.268 28.542a13.016 13.016 0 00-1.94 1.148 12.881 12.881 0 00-5.4 9.854v60.338l8.7-13.373-.067-46.554a4.325 4.325 0 011.791-3.236c.23-.165 49.909-28.921 50.067-29a4.408 4.408 0 013.821-.018l50.007 28.765a4.3 4.3 0 011.99 3.428v57.672a4.2 4.2 0 01-1.495 3.129l-9.7 5.618-5 2.9-17.88 10.362-18.133 10.509a4.395 4.395 0 01-3.087-.061l-21.453-12.339-4.382 7.432 19.28 11.1c.638.362 1.206.684 1.672.946.722.4 1.214.675 1.387.759a12.528 12.528 0 005.118 1.053 12.89 12.89 0 004.72-.888l52.667-30.5a12.876 12.876 0 004.962-9.7z" fill="#96bedc"/></svg>