<svg width="29" height="27" viewBox="0 0 29 27" fill="none" xmlns="http://www.w3.org/2000/svg">
<path d="M26.6113 0.900024L16.0564 8.75181L18.0193 4.11797L26.6113 0.900024Z" fill="#E17726" stroke="#E17726" stroke-width="0.321795" stroke-linecap="round" stroke-linejoin="round"/>
<path d="M2.21899 0.900024L12.7095 8.81617L10.8431 4.11797L2.21899 0.900024Z" fill="#E27625" stroke="#E27625" stroke-width="0.321795" stroke-linecap="round" stroke-linejoin="round"/>
<path d="M22.814 19.0814L19.9822 23.3935L26.0319 25.0668L27.7374 19.178L22.814 19.0814Z" fill="#E27625" stroke="#E27625" stroke-width="0.321795" stroke-linecap="round" stroke-linejoin="round"/>
<path d="M1.125 19.178L2.83051 25.0668L8.84807 23.3935L6.04846 19.0814L1.125 19.178Z" fill="#E27625" stroke="#E27625" stroke-width="0.321795" stroke-linecap="round" stroke-linejoin="round"/>
<path d="M8.52636 11.8089L6.85303 14.3511L12.8062 14.6085L12.6132 8.17261L8.52636 11.8089Z" fill="#E27625" stroke="#E27625" stroke-width="0.321795" stroke-linecap="round" stroke-linejoin="round"/>
<path d="M20.336 11.8089L16.1849 8.10828L16.0562 14.6085L22.0094 14.3511L20.336 11.8089Z" fill="#E27625" stroke="#E27625" stroke-width="0.321795" stroke-linecap="round" stroke-linejoin="round"/>
<path d="M8.84814 23.3934L12.4522 21.6557L9.33084 19.2101L8.84814 23.3934Z" fill="#E27625" stroke="#E27625" stroke-width="0.321795" stroke-linecap="round" stroke-linejoin="round"/>
<path d="M16.4102 21.6557L19.9821 23.3934L19.4994 19.2101L16.4102 21.6557Z" fill="#E27625" stroke="#E27625" stroke-width="0.321795" stroke-linecap="round" stroke-linejoin="round"/>
<path d="M19.9823 23.3935L16.4104 21.6558L16.7 23.9727L16.6678 24.9702L19.9823 23.3935Z" fill="#D5BFB2" stroke="#D5BFB2" stroke-width="0.321795" stroke-linecap="round" stroke-linejoin="round"/>
<path d="M8.84814 23.3935L12.1948 24.9702L12.1626 23.9727L12.4522 21.6558L8.84814 23.3935Z" fill="#D5BFB2" stroke="#D5BFB2" stroke-width="0.321795" stroke-linecap="round" stroke-linejoin="round"/>
<path d="M12.2593 17.6655L9.2666 16.7967L11.3583 15.8313L12.2593 17.6655Z" fill="#233447" stroke="#233447" stroke-width="0.321795" stroke-linecap="round" stroke-linejoin="round"/>
<path d="M16.6035 17.6655L17.4724 15.8313L19.5962 16.7967L16.6035 17.6655Z" fill="#233447" stroke="#233447" stroke-width="0.321795" stroke-linecap="round" stroke-linejoin="round"/>
<path d="M8.8482 23.3935L9.36307 19.0814L6.04858 19.178L8.8482 23.3935Z" fill="#CC6228" stroke="#CC6228" stroke-width="0.321795" stroke-linecap="round" stroke-linejoin="round"/>
<path d="M19.4998 19.0814L19.9824 23.3935L22.8142 19.178L19.4998 19.0814Z" fill="#CC6228" stroke="#CC6228" stroke-width="0.321795" stroke-linecap="round" stroke-linejoin="round"/>
<path d="M22.0096 14.3511L16.0564 14.6085L16.6034 17.6656L17.4723 15.8313L19.5961 16.7967L22.0096 14.3511Z" fill="#CC6228" stroke="#CC6228" stroke-width="0.321795" stroke-linecap="round" stroke-linejoin="round"/>
<path d="M9.26649 16.7967L11.3582 15.8313L12.2592 17.6656L12.8062 14.6085L6.85303 14.3511L9.26649 16.7967Z" fill="#CC6228" stroke="#CC6228" stroke-width="0.321795" stroke-linecap="round" stroke-linejoin="round"/>
<path d="M6.85303 14.3511L9.33084 19.2102L9.26649 16.7967L6.85303 14.3511Z" fill="#E27525" stroke="#E27525" stroke-width="0.321795" stroke-linecap="round" stroke-linejoin="round"/>
<path d="M19.5963 16.7967L19.4998 19.2102L22.0098 14.3511L19.5963 16.7967Z" fill="#E27525" stroke="#E27525" stroke-width="0.321795" stroke-linecap="round" stroke-linejoin="round"/>
<path d="M12.8063 14.6085L12.2593 17.6656L12.935 21.3018L13.0959 16.5071L12.8063 14.6085Z" fill="#E27525" stroke="#E27525" stroke-width="0.321795" stroke-linecap="round" stroke-linejoin="round"/>
<path d="M16.0565 14.6085L15.7668 16.5071L15.8956 21.3018L16.6035 17.6656L16.0565 14.6085Z" fill="#E27525" stroke="#E27525" stroke-width="0.321795" stroke-linecap="round" stroke-linejoin="round"/>
<path d="M16.6035 17.6655L15.8955 21.3018L16.4104 21.6557L19.4996 19.2101L19.5961 16.7966L16.6035 17.6655Z" fill="#F5841F" stroke="#F5841F" stroke-width="0.321795" stroke-linecap="round" stroke-linejoin="round"/>
<path d="M9.2666 16.7966L9.33096 19.2101L12.4524 21.6557L12.9351 21.3018L12.2593 17.6655L9.2666 16.7966Z" fill="#F5841F" stroke="#F5841F" stroke-width="0.321795" stroke-linecap="round" stroke-linejoin="round"/>
<path d="M16.6678 24.9702L16.6999 23.9727L16.4103 23.7474H12.4201L12.1626 23.9727L12.1948 24.9702L8.84814 23.3934L10.0066 24.3588L12.3879 26H16.4425L18.8238 24.3588L19.9822 23.3934L16.6678 24.9702Z" fill="#C0AC9D" stroke="#C0AC9D" stroke-width="0.321795" stroke-linecap="round" stroke-linejoin="round"/>
<path d="M16.4103 21.6557L15.8954 21.3018H12.9349L12.4522 21.6557L12.1626 23.9727L12.42 23.7474H16.4103L16.6999 23.9727L16.4103 21.6557Z" fill="#161616" stroke="#161616" stroke-width="0.321795" stroke-linecap="round" stroke-linejoin="round"/>
<path d="M27.0618 9.26668L27.9628 4.92246L26.6113 0.900024L16.4104 8.49438L20.3363 11.8089L25.8712 13.4178L27.094 12.0019L26.5791 11.6158L27.4158 10.8435L26.7722 10.3286L27.6088 9.68502L27.0618 9.26668Z" fill="#763E1A" stroke="#763E1A" stroke-width="0.321795" stroke-linecap="round" stroke-linejoin="round"/>
<path d="M0.899902 4.92246L1.80093 9.26668L1.2217 9.68502L2.05836 10.3286L1.41477 10.8435L2.28362 11.6158L1.73657 12.0019L2.95939 13.4178L8.52643 11.8089L12.4523 8.49438L2.21926 0.900024L0.899902 4.92246Z" fill="#763E1A" stroke="#763E1A" stroke-width="0.321795" stroke-linecap="round" stroke-linejoin="round"/>
<path d="M25.8713 13.4178L20.3364 11.8088L22.0098 14.351L19.4998 19.2101L22.8142 19.1779H27.7377L25.8713 13.4178Z" fill="#F5841F" stroke="#F5841F" stroke-width="0.321795" stroke-linecap="round" stroke-linejoin="round"/>
<path d="M8.52652 11.8088L2.95947 13.4178L1.12524 19.1779H6.0487L9.331 19.2101L6.85319 14.351L8.52652 11.8088Z" fill="#F5841F" stroke="#F5841F" stroke-width="0.321795" stroke-linecap="round" stroke-linejoin="round"/>
<path d="M16.0563 14.6084L16.4103 8.49433L18.0193 4.11792H10.8433L12.4522 8.49433L12.8062 14.6084L12.9349 16.5392V21.3018H15.8954V16.5392L16.0563 14.6084Z" fill="#F5841F" stroke="#F5841F" stroke-width="0.321795" stroke-linecap="round" stroke-linejoin="round"/>
</svg>
