<?xml version="1.0" encoding="UTF-8"?>
<svg width="457px" height="409px" viewBox="0 0 457 409" version="1.1" xmlns="http://www.w3.org/2000/svg" xmlns:xlink="http://www.w3.org/1999/xlink">
    <title>Group 5</title>
    <g id="Page-1" stroke="none" stroke-width="1" fill="none" fill-rule="evenodd" opacity="0.270996094">
        <g id="Kredeum_site_V2" transform="translate(-771.000000, -212.000000)" fill="#BFC8D6">
            <g id="Group-8" transform="translate(748.833186, 187.944728)">
                <g id="Group-5" transform="translate(22.731364, 24.071338)">
                    <path d="M118.592595,41.2918419 C118.546881,41.2918419 118.500602,41.2880775 118.453759,41.2803604 L108.34167,39.58938 C107.886031,39.5129621 107.578447,39.0813706 107.654449,38.6253103 C107.730452,38.16925 108.157872,37.8609435 108.618025,37.9375495 L118.729926,39.62853 C119.185565,39.7047597 119.493337,40.1363512 119.417335,40.5924115 C119.349045,41.0017929 118.994242,41.2918419 118.592595,41.2918419 M138.816021,44.6739911 C138.770307,44.6739911 138.724216,44.6702267 138.677185,44.6625096 L128.565284,42.9713409 C128.109457,42.8951113 127.801873,42.4635198 127.877876,42.0074595 C127.953878,41.5513992 128.381674,41.2432808 128.841451,41.3195105 L138.953352,43.0106792 C139.408991,43.0869088 139.716763,43.5185003 139.640761,43.9745606 C139.572471,44.383942 139.217856,44.6739911 138.816021,44.6739911 M159.039447,48.0561403 C158.993733,48.0561403 158.947643,48.0523759 158.900611,48.0444706 L148.78871,46.3533019 C148.333072,46.2772604 148.025299,45.8456689 148.101302,45.3894204 C148.177304,44.9329837 148.609239,44.6258065 149.064877,44.7016596 L159.176779,46.3926401 C159.632417,46.469058 159.940189,46.9006495 159.864187,47.3567098 C159.795898,47.7660912 159.441282,48.0561403 159.039447,48.0561403 M179.262874,51.4381012 C179.217159,51.4381012 179.171069,51.4343368 179.124038,51.4266197 L169.012136,49.735451 C168.556498,49.6592214 168.248725,49.2276299 168.324728,48.7715696 C168.40073,48.3155093 168.829467,48.0075792 169.288304,48.0838088 L179.400205,49.7747893 C179.855843,49.8510189 180.163616,50.2826104 180.087613,50.7386707 C180.019324,51.1480521 179.664708,51.4381012 179.262874,51.4381012 M199.486488,54.8202504 C199.440586,54.8202504 199.394495,54.816486 199.347464,54.8087689 L189.235562,53.1176002 C188.779924,53.0413706 188.47234,52.609779 188.548154,52.1535305 C188.624721,51.6976584 189.053269,51.3893519 189.51173,51.465958 L199.623819,53.1569385 C200.079458,53.2331681 200.38723,53.6647596 200.311039,54.1208199 C200.24275,54.5303895 199.888135,54.8202504 199.486488,54.8202504 M219.709914,58.2023996 C219.6642,58.2023996 219.617921,58.1986351 219.571078,58.1909181 L209.458989,56.4997494 C209.00335,56.4235197 208.695766,55.9919282 208.771768,55.5358679 C208.847771,55.0798076 209.277072,54.7720657 209.735344,54.8479189 L219.847245,56.5390876 C220.302884,56.6153173 220.610656,57.0467206 220.534654,57.5029691 C220.466364,57.9123505 220.111561,58.2023996 219.709914,58.2023996 M239.93334,61.5845487 C239.887626,61.5845487 239.841159,61.5807843 239.794504,61.572879 L229.682979,59.8817103 C229.226776,59.8056689 228.919568,59.3740774 228.995571,58.9178288 C229.072326,58.4619568 229.502379,58.1528973 229.959147,58.2300681 L240.070672,59.9212368 C240.526686,59.9974664 240.834082,60.4290579 240.75808,60.8851182 C240.689226,61.2944996 240.335551,61.5845487 239.93334,61.5845487 M260.157331,64.9665097 C260.111617,64.9665097 260.064962,64.9627452 260.018307,64.9550282 L249.906029,63.2640477 C249.450014,63.1876298 249.142618,62.7562265 249.218621,62.3001662 C249.295564,61.8441059 249.724489,61.5352347 250.182197,61.6122173 L260.294474,63.3031977 C260.750489,63.3794274 261.057885,63.8110189 260.981882,64.2672674 C260.913217,64.6766488 260.559354,64.9665097 260.157331,64.9665097 M280.380381,68.3486588 C280.334667,68.3486588 280.288012,68.3448944 280.241357,68.3371773 L270.129832,66.6460086 C269.673817,66.5699672 269.366421,66.1383757 269.442423,65.6823154 C269.518614,65.2262551 269.950737,64.918325 270.405999,64.9943664 L280.517524,66.6853469 C280.973539,66.7615765 281.280935,67.1931681 281.204932,67.6492283 C281.136267,68.058798 280.782404,68.3486588 280.380381,68.3486588 M300.604183,71.730808 C300.558469,71.730808 300.511814,71.7270436 300.465347,71.7191383 L290.352882,70.0281578 C289.896867,69.9519282 289.589471,69.5203366 289.665473,69.0642763 C289.742416,68.608216 290.173222,68.3002859 290.629049,68.3763274 L300.741326,70.0674961 C301.197529,70.1435375 301.504925,70.575129 301.428923,71.0313775 C301.360069,71.4407589 301.006394,71.730808 300.604183,71.730808 M320.827233,75.1129572 C320.781519,75.1129572 320.734864,75.1091927 320.688397,75.1012874 L310.576872,73.410307 C310.120669,73.3340773 309.813461,72.9024858 309.889276,72.4464255 C309.966219,71.9903652 310.395332,71.6824351 310.852851,71.7586647 L320.964376,73.449457 C321.420579,73.5258749 321.727975,73.9574664 321.651973,74.4135267 C321.583307,74.8229081 321.229444,75.1129572 320.827233,75.1129572 M341.051036,78.4951063 C341.005321,78.4951063 340.958855,78.4913419 340.9122,78.4836248 L330.800675,76.7924561 C330.34466,76.7160383 330.037264,76.284635 330.113266,75.8283864 C330.189457,75.3725144 330.62158,75.064396 331.076842,75.1406257 L341.188367,76.8317944 C341.644382,76.908024 341.951778,77.3394273 341.875775,77.7956758 C341.80711,78.2050572 341.453247,78.4951063 341.051036,78.4951063 M361.274086,81.8770673 C361.228371,81.8770673 361.181905,81.8733028 361.13525,81.8655858 L351.023725,80.1744171 C350.56771,80.0983756 350.260314,79.6667841 350.336316,79.2105356 C350.412507,78.7546635 350.843877,78.4456041 351.299892,78.5227749 L361.411417,80.2137553 C361.867432,80.289985 362.174828,80.7215765 362.098825,81.177825 C362.03016,81.5872064 361.676297,81.8770673 361.274086,81.8770673 M381.498076,85.2592164 C381.452362,85.2592164 381.405707,85.255452 381.35924,85.2477349 L371.247715,83.5567545 C370.791512,83.4803366 370.484304,83.0489333 370.560119,82.5926848 C370.636874,82.1368127 371.066927,81.8288826 371.523694,81.904924 L381.635219,83.5959045 C382.091422,83.6721341 382.39863,84.1037257 382.322816,84.5599742 C382.253962,84.9693556 381.900287,85.2592164 381.498076,85.2592164 M401.721879,88.6413656 C401.676164,88.6413656 401.629698,88.6376012 401.583043,88.6298841 L391.470765,86.9387154 C391.014562,86.8624858 390.707354,86.4308942 390.783169,85.9748339 C390.859359,85.5187736 391.289225,85.2106553 391.746744,85.2870732 L401.85921,86.9780537 C402.315225,87.0542833 402.622621,87.4858748 402.546618,87.9419351 C402.477765,88.3515047 402.12409,88.6413656 401.721879,88.6413656" id="Fill-9"></path>
                    <path d="M411.902803,116.337533 C411.849752,116.337533 411.796701,116.332451 411.742521,116.32191 C411.288951,116.234011 410.992467,115.794514 411.080697,115.340524 L413.043781,105.218169 C413.132011,104.763991 413.573352,104.468484 414.024476,104.55563 C414.478045,104.643906 414.774906,105.083214 414.686675,105.537204 L412.723404,115.659371 C412.645708,116.05953 412.295984,116.337533 411.902803,116.337533 M407.976636,136.582431 C407.923585,136.582431 407.870346,136.577161 407.816354,136.566809 C407.362785,136.478721 407.066112,136.039224 407.154531,135.585423 L409.117426,125.462879 C409.205845,125.008701 409.646433,124.712817 410.098309,124.80034 C410.551878,124.888616 410.848551,125.327925 410.760321,125.781915 L408.797049,135.90427 C408.719542,136.304428 408.369817,136.582431 407.976636,136.582431 M404.05047,156.827142 C403.997231,156.827142 403.943991,156.82206 403.890187,156.811519 C403.436618,156.723432 403.139945,156.283935 403.228176,155.829945 L405.191259,145.707778 C405.27949,145.253412 405.719326,144.957716 406.171954,145.045239 C406.625523,145.133326 406.922196,145.572823 406.834154,146.026813 L404.870883,156.14898 C404.793187,156.549139 404.443463,156.827142 404.05047,156.827142 M400.123363,177.071664 C400.070312,177.071664 400.016884,177.06677 399.96308,177.05623 C399.509511,176.96833 399.212838,176.528833 399.301069,176.074655 L401.264152,165.952488 C401.352571,165.49831 401.792219,165.202426 402.244847,165.289949 C402.698416,165.378037 402.995089,165.817345 402.907047,166.271335 L400.943775,176.393879 C400.866268,176.794037 400.516544,177.071664 400.123363,177.071664 M396.197008,197.316562 C396.143769,197.316562 396.090717,197.31148 396.036726,197.301128 C395.583157,197.21304 395.286484,196.773544 395.374902,196.319742 L397.337986,186.19701 C397.426216,185.743021 397.865864,185.447325 398.318681,185.53466 C398.77225,185.622747 399.068923,186.062056 398.980692,186.516046 L397.017609,196.638589 C396.939913,197.038748 396.590189,197.316562 396.197008,197.316562 M392.270841,217.561273 C392.217602,217.561273 392.164551,217.556191 392.110559,217.54565 C391.65699,217.457563 391.360317,217.018254 391.448548,216.564264 L393.411631,206.441909 C393.50005,205.987731 393.941955,205.692223 394.392514,205.77937 C394.846083,205.867457 395.142568,206.306954 395.054337,206.760944 L393.091254,216.883299 C393.013747,217.28327 392.663834,217.561273 392.270841,217.561273 M388.344299,237.805983 C388.291247,237.805983 388.238196,237.800901 388.184204,237.790549 C387.730635,237.702273 387.43415,237.262964 387.522193,236.808974 L389.485464,226.686619 C389.573695,226.232441 390.015036,225.937122 390.466159,226.02408 C390.919728,226.112356 391.216401,226.551665 391.128171,227.005654 L389.165088,237.128198 C389.087392,237.528168 388.73748,237.805983 388.344299,237.805983 M384.418132,258.050693 C384.365081,258.050693 384.31203,258.045611 384.258038,258.035259 C383.804469,257.947171 383.507796,257.507675 383.596026,257.053873 L385.55911,246.931518 C385.647528,246.47734 386.087929,246.181832 386.539993,246.268979 C386.993562,246.357066 387.290235,246.796563 387.201816,247.250365 L385.238921,257.37272 C385.161225,257.772879 384.811313,258.050693 384.418132,258.050693 M380.491966,278.295592 C380.438726,278.295592 380.385675,278.29051 380.331871,278.279969 C379.878302,278.19207 379.581441,277.752573 379.669672,277.298583 L381.632943,267.17604 C381.720986,266.721862 382.161574,266.426731 382.613638,266.513689 C383.067207,266.601588 383.36388,267.041085 383.27565,267.495263 L381.312566,277.617619 C381.234683,278.017777 380.884958,278.295592 380.491966,278.295592 M376.564858,298.540114 C376.511807,298.540114 376.458568,298.53522 376.404764,298.52468 C375.951195,298.436592 375.654334,297.997095 375.742564,297.543105 L377.705836,287.420939 C377.793878,286.96676 378.234467,286.6705 378.686531,286.758399 C379.1401,286.846487 379.436773,287.285984 379.348542,287.739974 L377.385459,297.862141 C377.307764,298.262299 376.957851,298.540114 376.564858,298.540114 M372.638504,318.785012 C372.585452,318.785012 372.532401,318.77993 372.478409,318.769578 C372.024652,318.681491 371.727979,318.241994 371.816398,317.788004 L373.779669,307.665649 C373.867712,307.211471 374.30736,306.915399 374.760176,307.00311 C375.213934,307.091386 375.510606,307.530694 375.422188,307.984684 L373.459104,318.107039 C373.381409,318.507198 373.031685,318.785012 372.638504,318.785012 M368.712337,339.029723 C368.659286,339.029723 368.606047,339.024641 368.552055,339.014289 C368.098486,338.926013 367.801813,338.486704 367.890043,338.032714 L369.853127,327.910547 C369.941545,327.456181 370.380441,327.160297 370.83401,327.24782 C371.287579,327.335908 371.584252,327.775404 371.496021,328.229394 L369.53275,338.351749 C369.455242,338.751908 369.105518,339.029723 368.712337,339.029723" id="Fill-13"></path>
                    <path d="M117.348281,310.555411 C117.300497,310.555411 117.251773,310.551458 117.203236,310.5428 L107.463634,308.836197 C107.008372,308.756391 106.703798,308.322541 106.783563,307.867046 C106.863328,307.411926 107.299213,307.106631 107.75203,307.186814 L117.491632,308.893228 C117.946894,308.973034 118.25128,309.406884 118.171703,309.86238 C118.100592,310.269126 117.747482,310.555411 117.348281,310.555411 M136.828049,313.968428 C136.780077,313.968428 136.731541,313.964288 136.682817,313.955629 L126.943215,312.249215 C126.487952,312.169409 126.183566,311.735559 126.263331,311.280063 C126.343284,310.824756 126.778605,310.519461 127.231798,310.599643 L136.9714,312.306246 C137.426663,312.386052 137.731049,312.819902 137.651472,313.275397 C137.580361,313.681956 137.226874,313.968428 136.828049,313.968428 M156.308194,317.381446 C156.26041,317.381446 156.211686,317.377305 156.16315,317.368647 L146.422983,315.662232 C145.967721,315.582426 145.663335,315.148576 145.7431,314.692892 C145.823053,314.237585 146.258374,313.93229 146.711379,314.01266 L156.451545,315.719263 C156.906807,315.798881 157.211193,316.232919 157.131616,316.688415 C157.060505,317.094973 156.707019,317.381446 156.308194,317.381446 M175.787962,320.794275 C175.73999,320.794275 175.691454,320.790323 175.642918,320.781664 L165.902752,319.07525 C165.447489,318.995444 165.143103,318.561405 165.22268,318.10591 C165.302821,317.650602 165.737578,317.345307 166.191147,317.425678 L175.931313,319.132093 C176.386576,319.211898 176.690962,319.645749 176.611197,320.101432 C176.540274,320.507991 176.187163,320.794275 175.787962,320.794275 M195.267543,324.207293 C195.219759,324.207293 195.171223,324.203152 195.122498,324.194682 L185.382896,322.488079 C184.927634,322.408461 184.623248,321.974423 184.702825,321.518927 C184.782966,321.06362 185.217346,320.758325 185.671292,320.838695 L195.411082,322.54511 C195.866344,322.624728 196.17073,323.058766 196.090965,323.514262 C196.019854,323.921008 195.666744,324.207293 195.267543,324.207293 M214.747311,327.62031 C214.699527,327.62031 214.650991,327.616357 214.602267,327.607699 L204.862477,325.901096 C204.407403,325.821291 204.102828,325.38744 204.182593,324.931945 C204.26217,324.476073 204.699184,324.171719 205.15106,324.251525 L214.890662,325.958127 C215.345925,326.037933 215.650499,326.471972 215.570734,326.927279 C215.499623,327.334025 215.146512,327.62031 214.747311,327.62031 M234.22708,331.033328 C234.179672,331.033328 234.130572,331.028998 234.081659,331.020529 L224.341869,329.314114 C223.886607,329.234308 223.582597,328.800458 223.661797,328.344962 C223.741186,327.890031 224.167853,327.583042 224.631205,327.664542 L234.370807,329.370957 C234.826069,329.450763 235.130079,329.884613 235.050879,330.340108 C234.979767,330.746666 234.625904,331.033328 234.22708,331.033328 M253.707224,334.446345 C253.659817,334.446345 253.610716,334.442016 253.561804,334.433546 L243.822014,332.726943 C243.366751,332.647325 243.062742,332.213099 243.14213,331.757791 C243.221331,331.302861 243.648751,330.996248 244.11135,331.077371 L253.85114,332.784162 C254.306402,332.863592 254.610412,333.297818 254.531023,333.753126 C254.459912,334.159872 254.106049,334.446345 253.707224,334.446345 M273.187369,337.859174 C273.139962,337.859174 273.090861,337.855033 273.04176,337.846375 L263.301406,336.140149 C262.846144,336.060343 262.542134,335.626305 262.621334,335.170809 C262.700723,334.715878 263.129836,334.409077 263.590742,334.490389 L273.331097,336.196803 C273.786359,336.276609 274.090557,336.710648 274.011168,337.166143 C273.940057,337.572701 273.586194,337.859174 273.187369,337.859174 M292.666761,341.272192 C292.619354,341.272192 292.570253,341.268051 292.521153,341.259581 L282.781551,339.552978 C282.326288,339.47336 282.022279,339.039134 282.101667,338.583638 C282.18068,338.128519 282.606595,337.822095 283.070887,337.903406 L292.810489,339.610009 C293.265563,339.689627 293.569761,340.123665 293.49056,340.579161 C293.419449,340.985719 293.065586,341.272192 292.666761,341.272192 M312.146906,344.685021 C312.099499,344.685021 312.050398,344.681068 312.001297,344.67241 L302.260943,342.965807 C301.805681,342.886378 301.501671,342.452339 301.580871,341.996844 C301.660072,341.541725 302.087492,341.235112 302.550091,341.316424 L312.290634,343.022838 C312.745896,343.102644 313.049906,343.536683 312.970705,343.992178 C312.899594,344.398736 312.545731,344.685021 312.146906,344.685021 M331.62611,348.098038 C331.578703,348.098038 331.529602,348.093898 331.48069,348.085428 L321.741088,346.378825 C321.285825,346.299019 320.981816,345.865169 321.060828,345.409673 C321.140217,344.954742 321.567825,344.64813 322.030236,344.729253 L331.769838,346.435856 C332.2251,346.515662 332.52911,346.949512 332.449909,347.405007 C332.378986,347.811566 332.024935,348.098038 331.62611,348.098038 M351.106255,351.511056 C351.058848,351.511056 351.009935,351.506915 350.960834,351.498257 L341.221044,349.791842 C340.76597,349.712225 340.461772,349.278186 340.541161,348.822691 C340.620361,348.36776 341.048534,348.061147 341.510568,348.14227 L351.250171,349.848873 C351.705245,349.928679 352.009254,350.362529 351.930054,350.818025 C351.858943,351.224583 351.50508,351.511056 351.106255,351.511056" id="Fill-17"></path>
                    <path d="M80.9612763,53.3963372 C80.8124695,53.3963372 80.6621577,53.3568107 80.5261434,53.2738051 C80.1316455,53.0328818 80.0071068,52.5175318 80.2477186,52.1228316 L85.4151332,43.6494836 C85.6557449,43.254407 86.1719596,43.1303691 86.5655169,43.3707278 C86.9598267,43.6116511 87.0843654,44.1270011 86.8437536,44.5217012 L81.676339,52.9950493 C81.5186904,53.2536654 81.2432755,53.3963372 80.9612763,53.3963372 M70.6266352,70.3430333 C70.4778284,70.3430333 70.3275166,70.3035068 70.1913142,70.2205012 C69.7970044,69.9795779 69.6724657,69.4642279 69.9130775,69.0695277 L75.0804921,60.5961797 C75.3211038,60.2012913 75.8367542,60.076877 76.2306877,60.3174239 C76.6251856,60.5583472 76.7497243,61.0736972 76.5091125,61.4685856 L71.3416979,69.9417454 C71.1840493,70.2003615 70.9084463,70.3430333 70.6266352,70.3430333 M60.2919941,87.2897294 C60.1431873,87.2897294 59.9928755,87.2502029 59.8566731,87.1670091 C59.4623633,86.926274 59.3378246,86.410924 59.5784364,86.0162238 L64.745851,77.5428758 C64.9864627,77.1477992 65.5023012,77.0233849 65.8960466,77.2643082 C66.2905445,77.5050433 66.4150832,78.0203933 66.1742833,78.4150934 L61.0070568,86.8884415 C60.8494082,87.1470576 60.5738052,87.2897294 60.2919941,87.2897294 M49.957353,104.236425 C49.8085462,104.236425 49.6582344,104.196711 49.522032,104.113705 C49.1277222,103.87297 49.0031835,103.357432 49.2437953,102.962732 L54.4112099,94.4893836 C54.6518216,94.0944953 55.167472,93.9702692 55.5614055,94.2108161 C55.9559034,94.4517394 56.0804421,94.9670894 55.8398303,95.3617895 L50.6724157,103.835138 C50.5147671,104.093754 50.2393522,104.236425 49.957353,104.236425 M39.6227119,121.183122 C39.4739051,121.183122 39.3234052,121.143595 39.1873909,121.060401 C38.7930811,120.819666 38.6683543,120.304316 38.9091542,119.909428 L44.0765688,111.436268 C44.3171805,111.041191 44.833019,110.916965 45.2267644,111.157512 C45.6210742,111.398435 45.745801,111.913785 45.5051892,112.308486 L40.3377746,120.781834 C40.180126,121.04045 39.9047111,121.183122 39.6227119,121.183122 M29.2880708,138.129818 C29.139264,138.129818 28.9889522,138.090103 28.8527498,138.007097 C28.45844,137.766362 28.3337132,137.250824 28.5745131,136.856124 L33.7417396,128.382964 C33.9825394,127.987699 34.4981898,127.863661 34.8921233,128.104208 C35.2864331,128.344943 35.4111599,128.860482 35.1705481,129.255182 L30.0031335,137.728342 C29.8454849,137.986958 29.57007,138.129818 29.2880708,138.129818 M18.9534297,155.076514 C18.8046229,155.076514 18.6543111,155.036799 18.5181087,154.953793 C18.1237989,154.713058 17.9990721,154.19752 18.239872,153.80282 L23.4070985,145.329472 C23.6482746,144.934395 24.1631724,144.810169 24.5574822,145.050904 C24.951792,145.291639 25.0765188,145.806989 24.835907,146.20169 L19.6684924,154.675226 C19.5108438,154.933842 19.2354289,155.076514 18.9534297,155.076514 M8.61878861,172.023022 C8.46998182,172.023022 8.31967002,171.983683 8.1834676,171.90049 C7.78915782,171.659566 7.66443102,171.144404 7.90523088,170.749516 L13.0724574,162.276168 C13.3136335,161.881091 13.8285313,161.756865 14.2228411,161.9976 C14.6171509,162.238336 14.7418777,162.753686 14.5012659,163.148574 L9.33385133,171.621922 C9.17601455,171.88035 8.90078782,172.023022 8.61878861,172.023022" id="Fill-27"></path>
                    <path d="M263.976379,3.22334292 C263.575861,3.22334292 263.221246,2.9346114 263.15258,2.5261711 C263.074885,2.07048725 263.381528,1.63795462 263.836791,1.56040743 L272.938085,0.0119105107 C273.139943,-0.0223457722 273.344999,0.0179335934 273.51751,0.124466869 L274.045388,0.450277999 C274.439322,0.6928953 274.561226,1.20880998 274.319298,1.60238079 C274.075864,1.99557516 273.560026,2.11886013 273.167597,1.87567817 L272.907797,1.71569003 L264.117849,3.21148498 C264.070442,3.21939028 264.023034,3.22334292 263.976379,3.22334292 M244.550979,6.52869779 C244.150461,6.52869779 243.796034,6.23996626 243.726427,5.83152596 C243.649484,5.37565389 243.956128,4.94330948 244.41139,4.86576229 L254.12409,3.21299075 C254.580105,3.13563178 255.012416,3.44224434 255.090112,3.89811641 C255.166867,4.35398848 254.860411,4.78652111 254.405149,4.8640683 L244.692449,6.51665162 C244.645041,6.52474514 244.597634,6.52869779 244.550979,6.52869779 M225.126519,9.83405265 C224.726001,9.83405265 224.371386,9.54532112 224.30272,9.13688082 C224.225025,8.68119697 224.53148,8.24866434 224.986742,8.17111715 L234.69869,6.51834561 C235.156398,6.44136309 235.587768,6.7475992 235.663771,7.20347127 C235.741466,7.65934334 235.435011,8.09187597 234.979749,8.16942316 L225.267989,9.82200648 C225.220582,9.8301 225.173174,9.83405265 225.126519,9.83405265 M290.377451,12.348125 C290.227891,12.348125 290.075698,12.3080339 289.939308,12.2235225 L281.553264,7.04950622 C281.159143,6.80688892 281.037238,6.29097424 281.279355,5.89740343 C281.521283,5.50420906 282.036934,5.38073586 282.430867,5.62410605 L290.817099,10.7979341 C291.21122,11.0407396 291.332749,11.5564661 291.091008,11.9502251 C290.932231,12.206959 290.658509,12.348125 290.377451,12.348125 M205.700366,13.1394075 C205.299848,13.1394075 204.945985,12.850676 204.876567,12.4422357 C204.798872,11.9863636 205.105703,11.5540192 205.561342,11.476472 L215.274042,9.82370047 C215.728552,9.74596506 216.161615,10.0529541 216.239311,10.5088261 C216.317006,10.9646982 216.009987,11.3972308 215.554348,11.4745898 L205.841836,13.1273613 C205.79424,13.1354549 205.747021,13.1394075 205.700366,13.1394075 M186.275718,16.4447624 C185.874824,16.4447624 185.520961,16.1560308 185.451543,15.7475905 C185.373848,15.2917185 185.680867,14.8593741 186.136318,14.7818269 L195.849018,13.1290553 C196.300141,13.0520728 196.736779,13.3579325 196.814287,13.814181 C196.891982,14.2700531 196.584963,14.7025857 196.129512,14.7799447 L186.416812,16.4327162 C186.369404,16.4408097 186.322373,16.4447624 186.275718,16.4447624 M166.850318,19.7501172 C166.449612,19.7501172 166.095561,19.4613857 166.026143,19.0529454 C165.948447,18.5970733 166.255467,18.1645407 166.711105,18.0871817 L176.423806,16.4344102 C176.877375,16.356863 177.311379,16.6636638 177.388886,17.1195359 C177.466582,17.5754079 177.15975,18.0077523 176.704112,18.0852995 L166.991412,19.7380711 C166.944004,19.7461646 166.896973,19.7501172 166.850318,19.7501172 M307.148973,22.6959693 C306.999414,22.6959693 306.847597,22.65569 306.711018,22.5711786 L298.324787,17.3973505 C297.930853,17.1547332 297.809137,16.6386303 298.050877,16.2450595 C298.293746,15.8520534 298.808456,15.7285802 299.202578,15.9717622 L307.588621,21.1457784 C307.982743,21.3883957 308.10446,21.9043104 307.862531,22.2980694 C307.703942,22.5546151 307.429279,22.6959693 307.148973,22.6959693 M147.425106,23.0552839 C147.024211,23.0552839 146.67016,22.7667406 146.600742,22.3583003 C146.523235,21.9024282 146.830067,21.4698956 147.285705,21.3923484 L156.998405,19.7397651 C157.45442,19.6622179 157.885979,19.9690186 157.963674,20.4248907 C158.041182,20.8807628 157.73435,21.3131072 157.278711,21.3906544 L147.566011,23.0434259 C147.518604,23.0515194 147.471572,23.0552839 147.425106,23.0552839 M128.000081,26.3608269 C127.599187,26.3608269 127.245324,26.0720954 127.175718,25.6636551 C127.098211,25.207783 127.405042,24.7752504 127.860681,24.6977032 L137.573381,23.0451199 C138.030336,22.9671963 138.461331,23.2743735 138.53865,23.7302456 C138.616157,24.1861176 138.309326,24.6184621 137.853687,24.6960092 L128.140987,26.3487808 C128.09358,26.3568743 128.046548,26.3608269 128.000081,26.3608269 M108.574681,29.6659936 C108.173787,29.6659936 107.819924,29.3774503 107.750506,28.96901 C107.67281,28.5131379 107.979642,28.0806053 108.435281,28.0030581 L118.147981,26.3504748 C118.600421,26.2736805 119.035554,26.5791637 119.11325,27.0356004 C119.190945,27.4914725 118.883925,27.9238169 118.428287,28.0013641 L108.715587,29.6541356 C108.668179,29.6622292 108.621148,29.6659936 108.574681,29.6659936 M323.920684,33.0436254 C323.771125,33.0436254 323.61912,33.0035343 323.482541,32.9190229 L315.096309,27.7451949 C314.702564,27.5023893 314.580659,26.9864747 314.822588,26.5929039 C315.065269,26.1997095 315.581107,26.0762363 315.9741,26.3196065 L324.36052,31.4934345 C324.754265,31.73624 324.87617,32.2521547 324.634242,32.6457255 C324.475652,32.9024594 324.201931,33.0436254 323.920684,33.0436254 M340.692206,43.3914698 C340.542647,43.3914698 340.390642,43.3511904 340.254252,43.2668672 L331.86802,38.092851 C331.474087,37.8502337 331.35237,37.334319 331.594298,36.94056 C331.836979,36.5473656 332.35263,36.4240806 332.745811,36.6674508 L341.132042,41.8412788 C341.525976,42.0840844 341.647693,42.599999 341.405764,42.9935699 C341.247175,43.2501155 340.972512,43.3914698 340.692206,43.3914698 M357.463917,53.7391259 C357.314358,53.7391259 357.162353,53.6988465 357.025774,53.6145233 L348.639543,48.4406953 C348.245609,48.1978898 348.123892,47.6819751 348.365821,47.2884043 C348.608502,46.8952099 349.1234,46.7719249 349.517333,47.0151069 L357.903565,52.1889349 C358.297498,52.4317405 358.419215,52.9476551 358.177287,53.341226 C358.018885,53.5979599 357.744976,53.7391259 357.463917,53.7391259 M374.235628,64.0869702 C374.086068,64.0869702 373.933875,64.0466908 373.797485,63.9623677 L365.411253,58.7883514 C365.01732,58.5457341 364.895603,58.0298194 365.137343,57.6362486 C365.380213,57.2426778 365.896051,57.1203339 366.288856,57.3629512 L374.675276,62.5367793 C375.069209,62.7795848 375.190926,63.2954995 374.949185,63.6890703 C374.790596,63.945616 374.515934,64.0869702 374.235628,64.0869702 M391.00715,74.4348145 C390.857591,74.4348145 390.705774,74.3945351 390.569195,74.310212 L382.182964,69.1361957 C381.78903,68.8933902 381.667313,68.3774755 381.909242,67.9839047 C382.151923,67.5908986 382.666633,67.4676136 383.060755,67.7107955 L391.446986,72.8846236 C391.84092,73.1274291 391.962636,73.6433438 391.720708,74.0369146 C391.562119,74.2934603 391.288397,74.4348145 391.00715,74.4348145 M407.778673,84.7824706 C407.629301,84.7824706 407.477297,84.7421912 407.340718,84.6578681 L398.954486,79.4838518 C398.560553,79.2412345 398.438836,78.7253198 398.680765,78.331749 C398.923446,77.9383664 399.439096,77.8158343 399.832277,78.0584516 L408.218509,83.2322797 C408.612442,83.4750852 408.734347,83.9909999 408.49223,84.3845707 C408.333829,84.6411164 408.060107,84.7824706 407.778673,84.7824706 M419.612481,99.0180266 C419.259371,99.0180266 418.931657,98.7934785 418.816336,98.4399989 L416.084951,90.0532326 L415.726197,89.8318844 C415.332263,89.5892671 415.210358,89.0735406 415.452287,88.6797816 C415.694404,88.286399 416.210054,88.163114 416.603988,88.406296 L417.224235,88.7887617 C417.393548,88.8928481 417.519403,89.0534009 417.581485,89.2421869 L420.408437,97.9210727 C420.551412,98.3607577 420.311177,98.8333815 419.871529,98.9766179 C419.785744,99.0046629 419.698266,99.0180266 419.612481,99.0180266 M425.718451,117.76186 C425.36534,117.76186 425.037627,117.537312 424.922306,117.183832 L421.869792,107.811916 C421.726629,107.372231 421.966864,106.899607 422.4067,106.75637 C422.844655,106.612569 423.31873,106.853681 423.461893,107.292989 L426.514407,116.664906 C426.657382,117.104591 426.417147,117.577215 425.977499,117.720451 C425.891714,117.748685 425.804236,117.76186 425.718451,117.76186 M431.82442,136.505882 C431.47131,136.505882 431.143596,136.281145 431.028276,135.927666 L427.975761,126.555561 C427.832786,126.115876 428.072834,125.64344 428.51267,125.500016 C428.951565,125.356214 429.423947,125.597326 429.567862,126.036823 L432.620377,135.408739 C432.763352,135.848425 432.523116,136.321048 432.083468,136.464285 C431.997683,136.49233 431.910205,136.505882 431.82442,136.505882 M437.93039,155.249527 C437.57728,155.249527 437.249566,155.024979 437.134246,154.671311 L434.081731,145.299582 C433.938756,144.859897 434.178804,144.387274 434.61864,144.243849 C435.056594,144.100048 435.529917,144.341159 435.673832,144.780656 L438.726347,154.152573 C438.869322,154.59207 438.629086,155.064882 438.189438,155.208118 C438.103653,155.236163 438.016175,155.249527 437.93039,155.249527 M444.03636,173.99336 C443.683249,173.99336 443.355536,173.768812 443.240215,173.415332 L440.187701,164.043416 C440.044726,163.603731 440.284961,163.131107 440.724609,162.987871 C441.163505,162.844069 441.636827,163.084993 441.779802,163.52449 L444.832316,172.896406 C444.975291,173.336091 444.735244,173.808715 444.295408,173.951952 C444.209623,173.980185 444.122145,173.99336 444.03636,173.99336 M450.14233,192.737382 C449.789219,192.737382 449.461506,192.512646 449.346185,192.159166 L446.29367,182.787249 C446.150696,182.347564 446.390931,181.87494 446.830579,181.731704 C447.270227,181.588279 447.742797,181.828826 447.885771,182.268323 L450.938286,191.64024 C451.081261,192.079925 450.841214,192.552548 450.401378,192.695785 C450.315593,192.72383 450.228115,192.737382 450.14233,192.737382" id="Fill-31"></path>
                    <path d="M441.995619,227.969159 C441.847564,227.969159 441.698946,227.930009 441.56312,227.847945 C441.167681,227.608527 441.041073,227.093742 441.280368,226.698101 L446.358235,218.3055 C446.597718,217.909294 447.112616,217.78375 447.507302,218.022603 C447.902928,218.262209 448.029537,218.776994 447.790242,219.172635 L442.712374,227.565236 C442.555478,227.825358 442.27837,227.969159 441.995619,227.969159 M431.840825,244.75455 C431.692771,244.75455 431.543964,244.7154 431.408326,244.633524 C431.012699,244.393918 430.886091,243.879132 431.125574,243.483491 L436.203441,235.090702 C436.441984,234.694872 436.957822,234.568952 437.352508,234.807993 C437.748135,235.047599 437.874743,235.562385 437.63526,235.958026 L432.557393,244.350815 C432.400497,244.610749 432.123389,244.75455 431.840825,244.75455 M421.685091,261.53994 C421.537036,261.53994 421.388418,261.500978 421.252591,261.418726 C420.857153,261.179496 420.730545,260.664711 420.96984,260.26907 L426.047895,251.876281 C426.288131,251.480451 426.802088,251.354719 427.196774,251.593572 C427.5924,251.833178 427.719008,252.347963 427.479714,252.743604 L422.401846,261.136017 C422.24401,261.396139 421.967842,261.53994 421.685091,261.53994 M411.530297,278.325519 C411.382243,278.325519 411.233436,278.286557 411.097798,278.204304 C410.702171,277.964887 410.575563,277.449913 410.815046,277.05446 L415.892913,268.661671 C416.133149,268.265465 416.647294,268.139921 417.04198,268.378963 C417.437607,268.61838 417.564215,269.133354 417.324732,269.528807 L412.246865,277.921596 C412.089216,278.181718 411.813049,278.325519 411.530297,278.325519 M401.375315,295.110909 C401.227449,295.110909 401.078642,295.071759 400.943004,294.989883 C400.547566,294.750277 400.420769,294.235492 400.660064,293.839851 L405.737367,285.44725 C405.975909,285.051044 406.490807,284.925312 406.886246,285.164541 C407.282061,285.40377 407.40848,285.918556 407.169186,286.314197 L402.092259,294.706986 C401.935175,294.967108 401.658067,295.110909 401.375315,295.110909 M391.219769,311.8963 C391.071903,311.8963 390.923096,311.85715 390.78727,311.775273 C390.391643,311.535668 390.265223,311.020882 390.504518,310.625241 L395.582385,302.232452 C395.821868,301.836434 396.336014,301.711079 396.73164,301.949743 C397.127079,302.189349 397.253687,302.704134 397.014204,303.099776 L391.936337,311.492565 C391.77944,311.75231 391.502521,311.8963 391.219769,311.8963 M381.064787,328.68169 C380.916921,328.68169 380.768114,328.642728 380.632476,328.560476 C380.237038,328.321246 380.110241,327.806273 380.349536,327.410632 L385.426839,319.01803 C385.666134,318.622013 386.18122,318.496281 386.575718,318.735322 C386.971533,318.97474 387.098141,319.489525 386.858658,319.885166 L381.781731,328.277767 C381.624647,328.537889 381.348479,328.68169 381.064787,328.68169 M370.909241,345.467081 C370.761375,345.467081 370.612568,345.427931 370.47693,345.346054 C370.081115,345.106449 369.954695,344.591663 370.19399,344.19621 L375.271857,335.803421 C375.512281,335.407403 376.026238,335.281671 376.421112,335.520712 C376.816551,335.76013 376.943159,336.275104 376.703864,336.670557 L371.625809,345.063346 C371.468348,345.32328 371.191993,345.467081 370.909241,345.467081 M356.650691,357.018977 C356.294382,357.018977 355.964035,356.7901 355.852289,356.432291 C355.714017,355.9911 355.959332,355.520923 356.39992,355.382581 L365.074547,352.659206 L365.117063,352.588247 C365.357299,352.192794 365.872197,352.066685 366.266883,352.306291 C366.662698,352.546273 366.788553,353.061059 366.548882,353.456512 L366.342133,353.797569 C366.236783,353.971862 366.070857,354.101546 365.877088,354.16253 L356.901649,356.980391 C356.818122,357.006554 356.733278,357.018977 356.650691,357.018977 M337.939601,362.893929 C337.583292,362.893929 337.253133,362.665052 337.141198,362.307055 C337.002927,361.865864 337.248242,361.395876 337.68883,361.257533 L347.044281,358.320151 C347.486375,358.180679 347.955558,358.427625 348.09383,358.868251 C348.231914,359.309442 347.986599,359.779431 347.54601,359.917962 L338.190559,362.855344 C338.10722,362.881507 338.022187,362.893929 337.939601,362.893929 M319.22851,368.768694 C318.872202,368.768694 318.542231,368.539628 318.430108,368.182008 C318.291837,367.740629 318.537151,367.27064 318.97774,367.132297 L328.333191,364.194915 C328.774532,364.055443 329.244468,364.302578 329.38274,364.743204 C329.520823,365.184395 329.275508,365.654195 328.83492,365.792726 L319.479469,368.730108 C319.39613,368.756271 319.311097,368.768694 319.22851,368.768694 M300.516668,374.643458 C300.160359,374.643458 299.8302,374.414393 299.718266,374.056772 C299.580182,373.615393 299.825121,373.145404 300.265709,373.007062 L309.622289,370.06968 C310.065887,369.930207 310.533378,370.177342 310.67165,370.617968 C310.809733,371.059159 310.564418,371.52896 310.124018,371.66749 L300.767626,374.604873 C300.684287,374.631035 300.599255,374.643458 300.516668,374.643458 M281.805578,380.51841 C281.449457,380.51841 281.11911,380.289345 281.007175,379.931536 C280.869092,379.490346 281.114219,379.020357 281.554619,378.882014 L290.910258,375.944444 C291.352352,375.805536 291.821535,376.052295 291.959619,376.492544 C292.097702,376.933923 291.852576,377.403724 291.412175,377.542443 L282.056536,380.479825 C281.973197,380.505988 281.888164,380.51841 281.805578,380.51841 M263.094487,386.393175 C262.738367,386.393175 262.40802,386.164109 262.296085,385.806489 C262.158002,385.36511 262.403128,384.895121 262.843529,384.756778 L272.199168,381.819396 C272.641261,381.680301 273.110445,381.926871 273.248717,382.367497 C273.386612,382.808876 273.141674,383.278676 272.701085,383.417019 L263.345446,386.354589 C263.262107,386.380752 263.177262,386.393175 263.094487,386.393175 M244.383397,392.268127 C244.027277,392.268127 243.696929,392.039062 243.584995,391.681253 C243.446911,391.240062 243.692226,390.770074 244.132627,390.631731 L253.488266,387.694161 C253.929607,387.555065 254.399543,387.801635 254.537627,388.242261 C254.675522,388.68364 254.430583,389.153441 253.989995,389.291972 L244.634356,392.229542 C244.551016,392.255516 244.466172,392.268127 244.383397,392.268127 M225.671555,398.142892 C225.315246,398.142892 224.985087,397.914014 224.873152,397.556206 C224.735069,397.114827 224.980196,396.644838 225.420784,396.506307 L234.776988,393.569113 C235.220774,393.429641 235.688453,393.676588 235.826348,394.117214 C235.96462,394.558404 235.719493,395.028393 235.278905,395.166736 L225.922513,398.104306 C225.839174,398.130281 225.754141,398.142892 225.671555,398.142892 M206.960088,404.017656 C206.604344,404.017656 206.274561,403.788591 206.162062,403.43097 C206.023602,402.989591 206.269105,402.519602 206.71007,402.381071 L216.065897,399.443877 C216.508932,399.305535 216.976798,399.550787 217.11507,399.991978 C217.25353,400.433357 217.008027,400.903346 216.567062,401.041688 L207.211047,403.979071 C207.127707,404.005045 207.043427,404.017656 206.960088,404.017656" id="Fill-35"></path>
                    <path d="M15.1435431,204.994845 C14.8811089,204.994845 14.6230016,204.871748 14.4598973,204.641365 L8.75801984,196.586621 C8.49088249,196.209237 8.57986557,195.686547 8.95705598,195.419272 C9.33462264,195.15181 9.8564811,195.241403 10.1238066,195.618599 L15.8254959,203.673343 C16.0928214,204.050726 16.0038383,204.573417 15.6264598,204.840691 C15.4795342,204.944778 15.3107862,204.994845 15.1435431,204.994845 M26.547298,221.104332 C26.2848638,221.104332 26.0265683,220.981424 25.863464,220.750852 L20.1617747,212.696109 C19.8944492,212.318725 19.9836204,211.796222 20.3606227,211.52876 C20.7387538,211.261486 21.2606122,211.351079 21.5273733,211.728086 L27.2292508,219.783018 C27.4965762,220.160402 27.407405,220.683093 27.0302146,220.950367 C26.883101,221.054265 26.7143529,221.104332 26.547298,221.104332 M37.9508648,237.214008 C37.6884306,237.214008 37.4303232,237.090911 37.2672189,236.860717 L31.5653415,228.805784 C31.2982041,228.428401 31.3871872,227.905898 31.7643776,227.638624 C32.1428849,227.371161 32.6638027,227.460755 32.9311282,227.837762 L38.6328175,235.892506 C38.900143,236.26989 38.8111599,236.79258 38.4339695,237.059855 C38.2866677,237.163941 38.1181078,237.214008 37.9508648,237.214008 M49.3546197,253.323872 C49.0921854,253.323872 48.8338899,253.200587 48.6707857,252.970392 L42.9690964,244.91546 C42.7017709,244.538077 42.7909421,244.015574 43.1681325,243.7483 C43.5456992,243.480837 44.0683101,243.570242 44.334695,243.947438 L50.0365724,252.00237 C50.3037098,252.379754 50.2147267,252.902256 49.8375363,253.169531 C49.6904226,253.273617 49.5216746,253.323872 49.3546197,253.323872 M60.7581864,269.433548 C60.4959403,269.433548 60.2376448,269.310263 60.0745405,269.080068 L54.3726631,261.025136 C54.1053376,260.647752 54.1945088,260.125062 54.5716992,259.857976 C54.9496422,259.590513 55.4715006,259.679918 55.7384498,260.057114 L61.4403273,268.112046 C61.7074646,268.48943 61.6182934,269.011932 61.2412911,269.279206 C61.0941775,269.383481 60.9252413,269.433548 60.7581864,269.433548 M72.1619413,285.543035 C71.8995071,285.543035 71.6412116,285.419939 71.4782954,285.189556 L65.776418,277.134812 C65.5090925,276.757428 65.5982637,276.234738 65.9754541,275.967463 C66.353397,275.700001 66.8752555,275.789594 67.1420166,276.16679 L72.843894,284.221722 C73.1112195,284.599105 73.0220483,285.121608 72.6448579,285.388882 C72.4977442,285.492969 72.3289962,285.543035 72.1619413,285.543035 M83.565508,301.652711 C83.3032619,301.652711 83.0449665,301.529803 82.8818622,301.299232 L77.1799847,293.244488 C76.9128474,292.867104 77.0018305,292.344413 77.3790209,292.077139 C77.7575282,291.809865 78.278446,291.89927 78.5457715,292.276465 L84.2476489,300.331397 C84.5147863,300.708781 84.4258032,301.231284 84.0484246,301.498746 C83.9014991,301.602833 83.7327511,301.652711 83.565508,301.652711 M95.7909925,317.046581 C95.5849957,317.046581 95.3788108,316.971105 95.2172115,316.818834 L91.22633,313.058736 C91.1858832,313.020715 91.1491988,312.978365 91.1174057,312.933192 L88.5837396,309.354164 C88.3164141,308.97678 88.4055853,308.454089 88.7825876,308.186815 C89.1603424,307.919541 89.6822009,308.009134 89.9493382,308.38633 L92.4348443,311.896846 L96.3647734,315.599724 C96.701517,315.916689 96.7169432,316.446532 96.400329,316.78326 C96.2355316,316.958306 96.0133561,317.046581 95.7909925,317.046581 M110.155269,330.58026 C109.949272,330.58026 109.742899,330.504783 109.581676,330.352512 L102.399632,323.585767 C102.063265,323.268614 102.047274,322.738771 102.364076,322.402231 C102.68069,322.065127 103.210826,322.049693 103.547006,322.366469 L110.72905,329.133214 C111.065417,329.450367 111.08122,329.98021 110.764605,330.31675 C110.599996,330.491984 110.377632,330.58026 110.155269,330.58026 M124.519169,344.11375 C124.313172,344.11375 124.106799,344.038462 123.945388,343.886003 L116.763532,337.119257 C116.427165,336.802104 116.411174,336.27245 116.727976,335.935722 C117.044591,335.598617 117.575479,335.583559 117.910906,335.89996 L125.09295,342.666893 C125.429317,342.983858 125.44512,343.513889 125.128505,343.850617 C124.963896,344.025475 124.741533,344.11375 124.519169,344.11375 M138.883445,357.647429 C138.677448,357.647429 138.471452,357.571952 138.309852,357.419681 L131.127808,350.652936 C130.791441,350.335971 130.77545,349.80594 131.092253,349.469212 C131.409808,349.132108 131.939379,349.11705 132.275182,349.433826 L139.457226,356.200572 C139.793593,356.517536 139.809396,357.047379 139.492782,357.384107 C139.328173,357.559153 139.105809,357.647429 138.883445,357.647429 M153.247722,371.181108 C153.041913,371.181108 152.835916,371.105631 152.674129,370.95336 L145.491708,364.186615 C145.155341,363.869462 145.139351,363.339619 145.456153,363.003079 C145.772767,362.665974 146.302903,362.65054 146.639082,362.967317 L153.821503,369.734062 C154.15787,370.051215 154.17386,370.581058 153.857058,370.917598 C153.692449,371.092644 153.470085,371.181108 153.247722,371.181108 M167.611622,384.714598 C167.405813,384.714598 167.199816,384.63931 167.038029,384.48685 L159.855985,377.720105 C159.519617,377.402952 159.503815,376.873297 159.820429,376.536569 C160.137984,376.199465 160.667556,376.184407 161.003359,376.500807 L168.185403,383.267741 C168.52177,383.584705 168.537572,384.114737 168.220958,384.451465 C168.056349,384.626322 167.833985,384.714598 167.611622,384.714598 M181.975898,398.248277 C181.770089,398.248277 181.563528,398.1728 181.402305,398.020529 L174.220261,391.253784 C173.883518,390.936819 173.868091,390.406788 174.184706,390.07006 C174.501884,389.732955 175.032208,389.717898 175.367823,390.034674 L182.549679,396.801419 C182.886423,397.118384 182.902037,397.648415 182.585235,397.984955 C182.420625,398.160001 182.198262,398.248277 181.975898,398.248277" id="Fill-39"></path>
                    <path d="M94.539153,61.8538934 C94.0769301,61.8538934 93.8617152,61.4789565 93.8617152,61.0166849 L93.8617152,50.968489 C93.8617152,50.5062174 94.0769301,50.1312805 94.539153,50.1312805 C95.0013758,50.1312805 95.2165907,50.5062174 95.2165907,50.968489 L95.2165907,61.0166849 C95.2165907,61.4789565 95.0013758,61.8538934 94.539153,61.8538934 M94.539153,81.9500971 C94.0769301,81.9500971 93.8617152,81.574972 93.8617152,81.1127004 L93.8617152,71.0646927 C93.8617152,70.6022329 94.0769301,70.227296 94.539153,70.227296 C95.0013758,70.227296 95.2165907,70.6022329 95.2165907,71.0646927 L95.2165907,81.1127004 C95.2165907,81.574972 95.0013758,81.9500971 94.539153,81.9500971 M94.539153,102.046113 C94.0769301,102.046113 93.8617152,101.670987 93.8617152,101.208716 L93.8617152,91.1607082 C93.8617152,90.6982483 94.0769301,90.3233114 94.539153,90.3233114 C95.0013758,90.3233114 95.2165907,90.6982483 95.2165907,91.1607082 L95.2165907,101.208716 C95.2165907,101.670987 95.0013758,102.046113 94.539153,102.046113 M94.539153,122.142128 C94.0769301,122.142128 93.8617152,121.767191 93.8617152,121.304731 L93.8617152,111.256724 C93.8617152,110.794264 94.0769301,110.419327 94.539153,110.419327 C95.0013758,110.419327 95.2165907,110.794264 95.2165907,111.256724 L95.2165907,121.304731 C95.2165907,121.767191 95.0013758,122.142128 94.539153,122.142128 M94.539153,142.238144 C94.0769301,142.238144 93.8617152,141.863207 93.8617152,141.400747 L93.8617152,131.352739 C93.8617152,130.890279 94.0769301,130.515531 94.539153,130.515531 C95.0013758,130.515531 95.2165907,130.890279 95.2165907,131.352739 L95.2165907,141.400747 C95.2165907,141.863207 95.0013758,142.238144 94.539153,142.238144 M94.539153,162.334159 C94.0769301,162.334159 93.8617152,161.959222 93.8617152,161.496951 L93.8617152,151.448755 C93.8617152,150.986483 94.0769301,150.611546 94.539153,150.611546 C95.0013758,150.611546 95.2165907,150.986483 95.2165907,151.448755 L95.2165907,161.496951 C95.2165907,161.959222 95.0013758,162.334159 94.539153,162.334159 M94.539153,182.430175 C94.0769301,182.430175 93.8617152,182.055238 93.8617152,181.592966 L93.8617152,171.54477 C93.8617152,171.082498 94.0769301,170.707562 94.539153,170.707562 C95.0013758,170.707562 95.2165907,171.082498 95.2165907,171.54477 L95.2165907,181.592966 C95.2165907,182.055238 95.0013758,182.430175 94.539153,182.430175 M94.539153,202.52619 C94.0769301,202.52619 93.8617152,202.151253 93.8617152,201.688981 L93.8617152,191.640786 C93.8617152,191.178514 94.0769301,190.803577 94.539153,190.803577 C95.0013758,190.803577 95.2165907,191.178514 95.2165907,191.640786 L95.2165907,201.688981 C95.2165907,202.151253 95.0013758,202.52619 94.539153,202.52619 M94.539153,222.622394 C94.0769301,222.622394 93.8617152,222.247457 93.8617152,221.784997 L93.8617152,211.736801 C93.8617152,211.274529 94.0769301,210.899592 94.539153,210.899592 C95.0013758,210.899592 95.2165907,211.274529 95.2165907,211.736801 L95.2165907,221.784997 C95.2165907,222.247457 95.0013758,222.622394 94.539153,222.622394 M94.539153,242.718409 C94.0769301,242.718409 93.8617152,242.343284 93.8617152,241.881012 L93.8617152,231.833005 C93.8617152,231.370545 94.0769301,230.995608 94.539153,230.995608 C95.0013758,230.995608 95.2165907,231.370545 95.2165907,231.833005 L95.2165907,241.881012 C95.2165907,242.343284 95.0013758,242.718409 94.539153,242.718409 M94.539153,262.814425 C94.0769301,262.814425 93.8617152,262.439488 93.8617152,261.977028 L93.8617152,251.92902 C93.8617152,251.46656 94.0769301,251.091812 94.539153,251.091812 C95.0013758,251.091812 95.2165907,251.46656 95.2165907,251.92902 L95.2165907,261.977028 C95.2165907,262.439488 95.0013758,262.814425 94.539153,262.814425 M94.539153,282.91044 C94.0769301,282.91044 93.8617152,282.535503 93.8617152,282.073043 L93.8617152,272.025224 C93.8617152,271.562764 94.0769301,271.187639 94.539153,271.187639 C95.0013758,271.187639 95.2165907,271.562764 95.2165907,272.025224 L95.2165907,282.073043 C95.2165907,282.535503 95.0013758,282.91044 94.539153,282.91044 M94.539153,297.982452 C94.0769301,297.982452 93.8617152,297.607703 93.8617152,297.145243 L93.8617152,292.121051 C93.8617152,291.658591 94.0769301,291.283843 94.539153,291.283843 C95.0013758,291.283843 95.2165907,291.658591 95.2165907,292.121051 L95.2165907,297.145243 C95.2165907,297.607703 95.0013758,297.982452 94.539153,297.982452" id="Fill-49"></path>
                    <path d="M365.792168,354.083985 C365.74382,354.083985 365.69566,354.080032 365.646748,354.071374 L360.700568,353.204803 C360.245306,353.124997 359.941108,352.691335 360.020309,352.235652 C360.099697,351.780909 360.525612,351.474108 360.989716,351.555231 L365.126018,352.279884 L365.926113,348.155201 C366.014532,347.701023 366.453427,347.405139 366.906997,347.492474 C367.360566,347.580562 367.657239,348.020058 367.56882,348.474048 L366.612581,353.406012 C366.535074,353.805606 366.185349,354.083985 365.792168,354.083985" id="Fill-15"></path>
                    <path d="M3.73993877,188.885018 C3.47750454,188.885018 3.21920906,188.761921 3.0562929,188.531538 L0.153902024,184.431701 C-0.0393022428,184.15878 -0.051530361,183.797019 0.122485167,183.511487 L2.73779746,179.222864 C2.97897357,178.827788 3.49387141,178.703561 3.88818119,178.944297 C4.28249097,179.185032 4.40721777,179.700382 4.16660603,180.095082 L1.83799608,183.91334 L4.42189151,187.563516 C4.68921699,187.9409 4.60004579,188.463591 4.22285538,188.730865 C4.07574171,188.834951 3.90699368,188.885018 3.73993877,188.885018" id="Fill-25"></path>
                    <path d="M91.2962937,36.4497352 C91.1474869,36.4497352 90.9971751,36.4102087 90.8611608,36.3272031 C90.4666629,36.0862798 90.3421242,35.5709298 90.5829241,35.1762296 L93.1980482,30.8876065 C93.3239038,30.6807513 93.533663,30.5386442 93.7723935,30.4981766 L98.722712,29.6558861 C99.179103,29.5781507 99.6100971,29.8851397 99.6877927,30.3408235 C99.7654883,30.7968838 99.4586566,31.2292282 99.0030181,31.3067754 L94.4285732,32.0852589 L92.0113564,36.0484473 C91.8537077,36.3070634 91.5782929,36.4497352 91.2962937,36.4497352" id="Fill-29"></path>
                    <path d="M452.150318,211.183807 C452.002452,211.183807 451.852893,211.144657 451.718007,211.062592 C451.322569,210.823175 451.195773,210.308389 451.435256,209.912748 L453.837234,205.942972 L452.399584,201.531252 C452.256609,201.091379 452.497032,200.618943 452.93668,200.475519 C453.374635,200.332282 453.84871,200.572829 453.991685,201.012138 L455.547854,205.788819 C455.623104,206.020519 455.593756,206.273489 455.467713,206.482038 L452.867262,210.779884 C452.709425,211.040006 452.433258,211.183807 452.150318,211.183807" id="Fill-33"></path>
                    <path d="M192.813642,408.459359 C192.603694,408.459359 192.397697,408.37993 192.239861,408.231612 L188.584218,404.787161 C188.24785,404.470385 188.232048,403.940353 188.548662,403.603625 C188.865841,403.266521 189.395036,403.251275 189.731591,403.56824 L193.030738,406.67615 L197.354224,405.318698 C197.792931,405.180732 198.26456,405.42542 198.40302,405.866987 C198.541668,406.308178 198.296165,406.777978 197.855201,406.916697 L193.064224,408.420962 C192.982013,408.446749 192.897357,408.459359 192.813642,408.459359" id="Fill-37"></path>
                    <path d="M366.570215,350.066457 C366.202431,350.066457 365.864935,349.821393 365.763536,349.448903 L364.444404,344.601262 C364.322687,344.155178 364.585874,343.694789 365.031918,343.573386 C365.47815,343.451983 365.93774,343.715116 366.059268,344.161389 L367.378588,349.00903 C367.500117,349.455114 367.237118,349.915315 366.790886,350.036906 C366.717329,350.056858 366.64302,350.066457 366.570215,350.066457" id="Fill-45"></path>
                    <path d="M94.539153,41.7578968 C94.0769301,41.7578968 93.8617152,41.3829599 93.8617152,40.9205001 L93.8617152,35.8964962 C93.8617152,35.4340364 94.0769301,35.0592877 94.539153,35.0592877 C95.0013758,35.0592877 95.2165907,35.4340364 95.2165907,35.8964962 L95.2165907,40.9205001 C95.2165907,41.3829599 95.0013758,41.7578968 94.539153,41.7578968" id="Fill-47"></path>
                </g>
            </g>
        </g>
    </g>
</svg>