<?xml version="1.0" encoding="UTF-8"?>
<svg width="39px" height="45px" viewBox="0 0 39 45" version="1.1" xmlns="http://www.w3.org/2000/svg" xmlns:xlink="http://www.w3.org/1999/xlink">
    <title>secure-shield</title>
    <g id="Page-1" stroke="none" stroke-width="1" fill="none" fill-rule="evenodd">
        <g id="Kredeum_site_V2" transform="translate(-459.000000, -1456.000000)" fill="#3ACF6E" fill-rule="nonzero">
            <g id="Group-16" transform="translate(151.500000, 1456.249485)">
                <g id="Group-10" transform="translate(306.025828, 0.000000)">
                    <g id="secure-shield" transform="translate(2.155172, 0.000000)">
                        <path d="M36.7233054,7.57323841 C30.6890419,5.91984421 24.6193154,3.34535646 19.1702757,0.128167603 C18.8808332,-0.0427225343 18.5216641,-0.0427225343 18.2323073,0.128167603 C12.6260829,3.43778275 6.88434558,5.87298862 0.678763632,7.57323841 C0.277878499,7.68296787 0,8.04736217 0,8.46306635 L0,17.8895205 C0,27.5966799 4.47817818,34.022149 8.2350201,37.7030112 C12.2795057,41.6660349 16.9907626,43.857626 18.7012915,43.857626 C20.4116491,43.857626 25.122906,41.6660349 29.1673915,37.7030112 C32.9241478,34.0222347 37.402069,27.5967656 37.402069,17.8895205 L37.402069,8.46298069 C37.402069,8.04736217 37.1241905,7.68296787 36.7233054,7.57323841 Z M35.5569695,17.8894348 C35.5569695,26.9558633 31.3801404,32.9515802 27.8759932,36.3849729 C23.8987501,40.2820389 19.6463696,42.0123551 18.7012915,42.0123551 C17.7562133,42.0123551 13.5035759,40.2820389 9.52624713,36.3849729 C6.02218556,32.9514945 1.84518518,26.9558633 1.84518518,17.8894348 L1.84518518,9.16333045 C7.77948439,7.47841366 13.3060457,5.1269825 18.7014628,1.9915982 C23.9621379,5.0438074 29.7644363,7.51216339 35.5569695,9.16298781 L35.5569695,17.8894348 Z" id="Shape" stroke="#3ACF6E" stroke-width="0.5"></path>
                        <path d="M10.5238344,9.06011109 C10.3370973,8.58598733 9.8014702,8.35307992 9.32726077,8.53990267 C7.67917745,9.18928519 5.98757924,9.7870152 4.29949306,10.3165605 C3.91479752,10.43734 3.65302295,10.7936823 3.65302295,11.1967946 L3.65302295,14.7594471 C3.65302295,15.2689481 4.06615735,15.6819968 4.57557271,15.6819968 C5.08498807,15.6819968 5.49812247,15.2689481 5.49812247,14.7594471 L5.49812247,11.8710183 C7.01249176,11.3810476 8.52523353,10.8390817 10.0036259,10.2565134 C10.4777497,10.0698619 10.7106571,9.53423485 10.5238344,9.06011109 Z" id="Path"></path>
                        <path d="M29.6929965,29.7480111 C29.2666706,29.4693617 28.694981,29.5891989 28.4159889,30.0156962 C27.6557633,31.179291 26.7638796,32.2935461 25.7647505,33.3271958 C24.9431073,34.1771066 24.0527654,34.969283 23.1184803,35.6815394 C22.7133979,35.9904265 22.635448,36.5693115 22.9442495,36.9745653 C23.1259326,37.2126122 23.4006418,37.337846 23.6785203,37.337846 C23.873652,37.337846 24.0702399,37.276257 24.2372753,37.1487961 C25.245056,36.3803473 26.2052958,35.5260679 27.0911834,34.6096856 C28.1714318,33.4923468 29.1368112,32.286265 29.9606815,31.0249331 C30.2395023,30.5983502 30.1194937,30.0266606 29.6929965,29.7480111 Z" id="Path"></path>
                        <path d="M12.4127058,20.0459056 C11.8462414,19.4793556 11.0928685,19.167556 10.2916122,19.167556 C9.49035592,19.167556 8.73689745,19.4794412 8.17017608,20.0459056 C7.00067079,21.2156679 7.00067079,23.1190157 8.17017608,24.2886923 L13.6177596,29.7361045 C14.1843097,30.3024832 14.9376825,30.6143684 15.7390245,30.6143684 C16.5403664,30.6143684 17.2937392,30.3024832 17.8603749,29.7359332 L29.2325782,18.3636443 C30.4019978,17.193625 30.4019978,15.2905342 29.2324069,14.1212002 C28.6658568,13.5546502 27.912484,13.2428506 27.1110564,13.2428506 C26.3097144,13.2428506 25.5563416,13.5547358 24.9897059,14.1212002 L15.7389388,23.3719673 L12.4127058,20.0459056 Z M26.2944671,15.4259614 C26.5124698,15.2079587 26.8025975,15.0879502 27.111142,15.0879502 C27.4198579,15.0879502 27.7097286,15.2079587 27.9279027,15.4259614 C28.3780419,15.8761006 28.3780419,16.6088296 27.9277314,17.0591401 L16.5556994,28.4312576 C16.3376967,28.6492603 16.0475689,28.7692689 15.7390245,28.7692689 C15.43048,28.7692689 15.1403522,28.6492603 14.9222638,28.4312576 L9.4748516,22.9840167 C9.0245411,22.5337062 9.0245411,21.8009773 9.47468028,21.3508381 C9.69276865,21.1328354 9.98289642,21.0126555 10.2915266,21.0126555 C10.6001567,21.0126555 10.8901132,21.1326641 11.1081159,21.3506668 L15.0865582,25.3291948 C15.2596755,25.5021407 15.4942104,25.5993639 15.7389388,25.5993639 C15.9836672,25.5993639 16.2182021,25.5022264 16.3911481,25.3291948 L26.2944671,15.4259614 Z" id="Shape"></path>
                    </g>
                </g>
            </g>
        </g>
    </g>
</svg>