<?xml version="1.0" encoding="UTF-8"?>
<svg width="42px" height="43px" viewBox="0 0 42 43" version="1.1" xmlns="http://www.w3.org/2000/svg" xmlns:xlink="http://www.w3.org/1999/xlink">
    <title>global</title>
    <g id="Page-1" stroke="none" stroke-width="1" fill="none" fill-rule="evenodd">
        <g id="Kredeum_site_V2" transform="translate(-773.000000, -1459.000000)" fill="#2E80DD" fill-rule="nonzero">
            <g id="Group-16" transform="translate(151.500000, 1456.249485)">
                <g id="global" transform="translate(621.500000, 3.583615)">
                    <path d="M21,0 C9.38773006,0 0,9.38773006 0,21 C0,32.6122699 9.38773006,42 21,42 C32.6122699,42 42,32.6122699 42,21 C42,9.38773006 32.6122699,0 21,0 Z M14.6613497,2.8601227 C13.5533742,4.41472393 12.608589,6.05521472 11.8184049,7.77300613 L7.05153374,7.77300613 C9.13006135,5.57423313 11.7325153,3.87361963 14.6613497,2.8601227 Z M5.54846626,9.5595092 L11.0625767,9.5595092 C9.76564417,12.9006135 9.05276074,16.4650307 8.94969325,20.1067485 L1.81226994,20.1067485 C1.99263804,16.1644172 3.34969325,12.5312883 5.54846626,9.5595092 L5.54846626,9.5595092 Z M5.54846626,32.4404908 C3.34969325,29.4687117 1.99263804,25.8355828 1.81226994,21.8932515 L8.94969325,21.8932515 C9.05276074,25.5349693 9.79141104,29.0993865 11.0969325,32.4404908 L5.54846626,32.4404908 Z M7.05153374,34.2269939 L11.8613497,34.2269939 C12.6601227,35.9447853 13.604908,37.602454 14.6957055,39.1570552 C11.7582822,38.1435583 9.13865031,36.4343558 7.05153374,34.2269939 Z M20.1067485,40.196319 C19.2134969,40.1533742 18.3288344,40.0503067 17.4699387,39.8957055 C16.0441718,38.1349693 14.8245399,36.2368098 13.8368098,34.2355828 L20.1067485,34.2355828 L20.1067485,40.196319 L20.1067485,40.196319 Z M20.1067485,32.4404908 L13.0208589,32.4404908 C11.6380368,29.1079755 10.8478528,25.5435583 10.7361963,21.8932515 L20.1067485,21.8932515 L20.1067485,32.4404908 Z M20.1067485,20.1067485 L10.7361963,20.1067485 C10.8478528,16.4650307 11.6294479,12.8920245 13.003681,9.5595092 L20.1067485,9.5595092 L20.1067485,20.1067485 L20.1067485,20.1067485 Z M20.1153374,7.77300613 L20.1067485,7.77300613 L13.8196319,7.77300613 C14.8159509,5.75460123 16.0355828,3.85644172 17.4699387,2.11288344 C18.3288344,1.94969325 19.2134969,1.85521472 20.1153374,1.81226994 L20.1153374,7.77300613 Z M36.4515337,9.5595092 C38.6503067,12.5312883 40.0159509,16.1558282 40.1877301,20.1067485 L33.0503067,20.1067485 C32.9472393,16.4650307 32.208589,12.9006135 30.9030675,9.5595092 L36.4515337,9.5595092 Z M34.9484663,7.77300613 L30.1386503,7.77300613 C29.3398773,6.05521472 28.395092,4.39754601 27.2957055,2.84294479 C30.2417178,3.85644172 32.8613497,5.56564417 34.9484663,7.77300613 Z M21.8932515,1.81226994 C22.7865031,1.85521472 23.6711656,1.95828221 24.5300613,2.11288344 C25.9558282,3.87361963 27.1754601,5.77177914 28.1631902,7.77300613 L21.8932515,7.77300613 L21.8932515,1.81226994 Z M21.8932515,9.5595092 L28.9791411,9.5595092 C30.3619632,12.8834356 31.1521472,16.4564417 31.2638037,20.1067485 L21.8932515,20.1067485 L21.8932515,9.5595092 L21.8932515,9.5595092 Z M21.8932515,21.8932515 L31.2638037,21.8932515 C31.1521472,25.5349693 30.3705521,29.1079755 28.996319,32.4404908 L21.8932515,32.4404908 L21.8932515,21.8932515 L21.8932515,21.8932515 Z M21.8846626,40.1877301 L21.8846626,34.2269939 L21.8932515,34.2269939 L28.1803681,34.2269939 C27.1840491,36.2453988 25.9644172,38.1435583 24.5300613,39.8871166 C23.6711656,40.0503067 22.7865031,40.1447853 21.8846626,40.1877301 L21.8846626,40.1877301 Z M27.2957055,39.1570552 C28.3865031,37.602454 29.3312883,35.9447853 30.1214724,34.2269939 L34.9570552,34.2269939 C32.8613497,36.4343558 30.2417178,38.1435583 27.2957055,39.1570552 Z M30.8773006,32.4404908 C32.1656442,29.0993865 32.8957055,25.5349693 33.0417178,21.8932515 L40.196319,21.8932515 C40.0159509,25.8355828 38.6588957,29.4687117 36.4601227,32.4404908 L30.8773006,32.4404908 Z" id="Shape"></path>
                </g>
            </g>
        </g>
    </g>
</svg>