<?xml version="1.0" encoding="UTF-8"?>
<svg width="46px" height="40px" viewBox="0 0 46 40" version="1.1" xmlns="http://www.w3.org/2000/svg" xmlns:xlink="http://www.w3.org/1999/xlink">
    <title>download-speed</title>
    <g id="Page-1" stroke="none" stroke-width="1" fill="none" fill-rule="evenodd">
        <g id="Kredeum_site_V2" transform="translate(-151.000000, -1461.000000)" fill="#E94747" fill-rule="nonzero">
            <g id="Group-16" transform="translate(151.500000, 1456.249485)">
                <g id="download-speed" transform="translate(0.000000, 5.429338)">
                    <path d="M44.641848,22.320924 C44.641848,16.2229939 42.1830336,10.6893075 38.2058108,6.65675819 C38.1747811,6.61548277 38.1417022,6.57508556 38.104086,6.53746931 C38.0664697,6.49985307 38.0262189,6.46677419 37.9849434,6.43589081 C33.9523941,2.45866807 28.4187077,0 22.320924,0 C16.2231403,0 10.6894539,2.45881444 6.65675819,6.43589081 C6.61548277,6.46692056 6.57523193,6.5 6.53761568,6.53746931 C6.5,6.57508556 6.46692056,6.61533641 6.43589081,6.65675819 C2.45881444,10.6893075 0,16.2229939 0,22.320924 C0,28.2822939 2.32122973,33.8865291 6.53600565,38.1023296 C6.53659111,38.102915 6.53717658,38.1036469 6.53776205,38.1042323 C6.53820115,38.1045251 6.53849388,38.1049642 6.53893298,38.1052569 C6.53951845,38.1058424 6.54010392,38.1064278 6.54068938,38.1070133 C6.75497025,38.3212942 7.03584798,38.4282882 7.3167257,38.4282882 C7.5977498,38.4282882 7.87877389,38.3211478 8.09305476,38.1067206 C8.1113506,38.0884247 8.12789004,38.0689579 8.14457584,38.0496375 L11.5274034,34.6666637 C11.9561115,34.2378092 11.9561115,33.54286 11.5274034,33.1141519 C11.0986952,32.6855902 10.4035997,32.6855902 9.97503798,33.1141519 L7.33516791,35.754022 C4.25692953,32.3286018 2.47110925,28.0175165 2.2255059,23.4186744 L5.95888169,23.4186744 C6.56513262,23.4186744 7.05663205,22.9273213 7.05663205,22.320924 C7.05663205,21.7145267 6.56513262,21.2231736 5.95888169,21.2231736 L2.22579863,21.2231736 C2.48106218,16.499627 4.3727056,12.2043494 7.34233988,8.89485162 L9.97503798,11.5275497 C10.1893188,11.7418306 10.4703429,11.848971 10.7512207,11.848971 C11.0320984,11.848971 11.3131225,11.7418306 11.5274034,11.5275497 C11.9561115,11.0986952 11.9561115,10.4037461 11.5274034,9.97503798 L8.89485162,7.34219351 C12.2044958,4.37255924 16.499627,2.48091582 21.2231736,2.22579863 L21.2231736,5.95902806 C21.2231736,6.56542536 21.7146731,7.05677842 22.320924,7.05677842 C22.9271749,7.05677842 23.4186744,6.56542536 23.4186744,5.95902806 L23.4186744,2.22579863 C28.142221,2.48091582 32.4373522,4.3727056 35.7469964,7.34233988 L33.1142983,9.97503798 C32.6855902,10.4038925 32.6855902,11.0988416 33.1142983,11.5275497 C33.3285791,11.7418306 33.6096032,11.848971 33.890481,11.848971 C34.1713587,11.848971 34.4523828,11.7418306 34.6666637,11.5275497 L37.2993618,8.89485162 C40.268996,12.2044958 42.1607858,16.499627 42.415903,21.2231736 L38.6826736,21.2231736 C38.0764226,21.2231736 37.5849232,21.7145267 37.5849232,22.320924 C37.5849232,22.9273213 38.0764226,23.4186744 38.6826736,23.4186744 L42.4160494,23.4186744 C42.170446,28.0175165 40.3847721,32.3287481 37.3065337,35.7541683 L34.6666637,33.1141519 C34.2381019,32.6855902 33.5430064,32.6855902 33.1142983,33.1141519 C32.6855902,33.5430064 32.6855902,34.2379555 33.1142983,34.6666637 L36.5517206,38.104086 C36.7660014,38.3183668 37.0470255,38.4255073 37.3279033,38.4255073 C37.4682689,38.4255073 37.608781,38.3987221 37.7409501,38.3451519 C37.8731193,38.2915817 37.9969455,38.2112264 38.1042323,38.104086 C42.3200328,33.8881391 44.641848,28.2828794 44.641848,22.320924 Z" id="Path"></path>
                    <path d="M27.3641355,9.7322156 C26.8010628,9.50666449 26.1623184,9.78007751 25.9369137,10.3430039 L22.7647079,18.2614432 C22.6168775,18.2456356 22.4690471,18.2348044 22.3210704,18.2348044 C20.7760233,18.2348044 19.3804167,19.0906106 18.6785883,20.4682141 C17.9449983,21.9083162 18.1329332,23.6290033 19.1809189,25.0707155 C19.2880593,25.2181068 19.4227167,25.3529105 19.5711325,25.4607828 C20.4225477,26.0797676 21.3734923,26.4068972 22.3210704,26.4068972 C23.8661174,26.4068972 25.2618704,25.551091 25.9635524,24.1734875 C26.6971424,22.7333854 26.5092075,21.0128447 25.4619537,19.5721571 C25.3548133,19.4243267 25.2198632,19.2890839 25.0710082,19.1807725 C24.9909456,19.1225185 24.9091266,19.0693874 24.8273076,19.0164027 L27.9749238,11.1592911 C28.2003286,10.5966574 27.9269155,9.95762034 27.3641355,9.7322156 Z M24.0070686,23.1768765 C23.6819881,23.8148891 23.0359254,24.2112501 22.320924,24.2112501 C21.851965,24.2112501 21.3799324,24.0474658 20.9174136,23.7242881 C20.3904934,22.9677185 20.2870121,22.1474794 20.6349258,21.4646787 C20.9598599,20.8266662 21.6059226,20.4303051 22.3210704,20.4303051 C22.5491097,20.4303051 22.7777345,20.4698242 23.0057739,20.5466667 C23.0132386,20.5497404 23.0201178,20.5536923 23.0277289,20.556766 C23.051733,20.5662798 23.0758835,20.5740373 23.100034,20.5817947 C23.3093384,20.66215 23.5177646,20.7728033 23.7244344,20.9171208 C24.2512082,21.6736904 24.3548359,22.4940758 24.0070686,23.1768765 Z" id="Shape"></path>
                </g>
            </g>
        </g>
    </g>
</svg>