<?xml version="1.0" encoding="UTF-8"?>
<svg width="30px" height="30px" viewBox="0 0 30 30" version="1.1" xmlns="http://www.w3.org/2000/svg" xmlns:xlink="http://www.w3.org/1999/xlink">
    <title>Path</title>
    <g id="Page-1" stroke="none" stroke-width="1" fill="none" fill-rule="evenodd">
        <g id="Octicons-mark-github" fill="#FFFFFF">
            <path d="M15,0 C6.7125,0 0,6.7125 0,15 C0,21.6375 4.29375,27.24375 10.25625,29.23125 C11.00625,29.3625 11.2875,28.9125 11.2875,28.51875 C11.2875,28.1625 11.26875,26.98125 11.26875,25.725 C7.5,26.41875 6.525,24.80625 6.225,23.9625 C6.05625,23.53125 5.325,22.2 4.6875,21.84375 C4.1625,21.5625 3.4125,20.86875 4.66875,20.85 C5.85,20.83125 6.69375,21.9375 6.975,22.3875 C8.325,24.65625 10.48125,24.01875 11.34375,23.625 C11.475,22.65 11.86875,21.99375 12.3,21.61875 C8.9625,21.24375 5.475,19.95 5.475,14.2125 C5.475,12.58125 6.05625,11.23125 7.0125,10.18125 C6.8625,9.80625 6.3375,8.26875 7.1625,6.20625 C7.1625,6.20625 8.41875,5.8125 11.2875,7.74375 C12.4875,7.40625 13.7625,7.2375 15.0375,7.2375 C16.3125,7.2375 17.5875,7.40625 18.7875,7.74375 C21.65625,5.79375 22.9125,6.20625 22.9125,6.20625 C23.7375,8.26875 23.2125,9.80625 23.0625,10.18125 C24.01875,11.23125 24.6,12.5625 24.6,14.2125 C24.6,19.96875 21.09375,21.24375 17.75625,21.61875 C18.3,22.0875 18.76875,22.9875 18.76875,24.39375 C18.76875,26.4 18.75,28.0125 18.75,28.51875 C18.75,28.9125 19.03125,29.38125 19.78125,29.23125 C25.70625,27.24375 30,21.61875 30,15 C30,6.7125 23.2875,0 15,0 Z" id="Path"></path>
        </g>
    </g>
</svg>