<?xml version="1.0" encoding="UTF-8"?>
<svg width="42px" height="43px" viewBox="0 0 42 43" version="1.1" xmlns="http://www.w3.org/2000/svg" xmlns:xlink="http://www.w3.org/1999/xlink">
    <title>resize-square-and-arrow</title>
    <g id="Page-1" stroke="none" stroke-width="1" fill="none" fill-rule="evenodd">
        <g id="Kredeum_site_V2" transform="translate(-1054.000000, -1459.000000)" fill="#FFB30D" fill-rule="nonzero">
            <g id="Group-16" transform="translate(151.500000, 1456.249485)">
                <g id="resize-square-and-arrow" transform="translate(902.500000, 3.583615)">
                    <path d="M18.2708078,22.5629704 L1.16622177,22.5629704 C0.522156363,22.5629704 0,23.0851268 0,23.7291922 L0,24.9276017 L0,25.0061273 L0,32.8611752 L0,32.9397008 L0,40.7949042 L0,40.8337782 C0,41.4778436 0.522156363,42 1.16622177,42 L1.20509583,42 L9.06029922,42 L9.13882482,42 L16.9940282,42 L17.0725538,42 L18.2709633,42 C18.9150287,42 19.4371851,41.4778436 19.4371851,40.8337782 L19.4371851,23.7291922 C19.4371851,23.0849713 18.9148732,22.5629704 18.2708078,22.5629704 Z M17.104586,39.6675565 L17.0723983,39.6675565 L16.9938727,39.6675565 L9.13866932,39.6675565 L9.06014372,39.6675565 L2.33244355,39.6675565 L2.33244355,32.9397008 L2.33244355,32.8611752 L2.33244355,25.0061273 L2.33244355,24.9276017 L2.33244355,24.895414 L17.104586,24.895414 L17.104586,39.6675565 Z" id="Shape"></path>
                    <path d="M40.8337782,39.6286824 C40.5017938,39.6286824 40.202308,39.767385 39.9899001,39.9899001 C39.7672295,40.202308 39.6286824,40.5017938 39.6286824,40.8337782 C39.6286824,41.4778436 40.1508388,42 40.7949042,42 L40.8337782,42 C41.4778436,42 42,41.4778436 42,40.8337782 L42,40.7949042 C42,40.1506833 41.4778436,39.6286824 40.8337782,39.6286824 Z" id="Path"></path>
                    <path d="M25.0059718,39.6675565 L24.9274462,39.6675565 C24.2833808,39.6675565 23.7612244,40.1897128 23.7612244,40.8337782 C23.7612244,41.4778436 24.2833808,42 24.9274462,42 L25.0059718,42 C25.6500372,42 26.1721936,41.4778436 26.1721936,40.8337782 C26.1721936,40.1897128 25.6501927,39.6675565 25.0059718,39.6675565 Z" id="Path"></path>
                    <path d="M32.9397008,39.6675565 L32.8611752,39.6675565 C32.2171098,39.6675565 31.6949534,40.1897128 31.6949534,40.8337782 C31.6949534,41.4778436 32.2171098,42 32.8611752,42 L32.9397008,42 C33.5837662,42 34.1059226,41.4778436 34.1059226,40.8337782 C34.1059226,40.1897128 33.5837662,39.6675565 32.9397008,39.6675565 Z" id="Path"></path>
                    <path d="M1.16622177,10.3048911 C1.81028719,10.3048911 2.33244355,9.78273473 2.33244355,9.13866932 L2.33244355,9.06014372 C2.33244355,8.41607831 1.81028719,7.89392195 1.16622177,7.89392195 C0.522156363,7.89392195 0,8.41623381 0,9.06029922 L0,9.13882482 C0,9.78289023 0.522156363,10.3048911 1.16622177,10.3048911 Z" id="Path"></path>
                    <path d="M1.16622177,18.2386201 C1.81028719,18.2386201 2.33244355,17.7164637 2.33244355,17.0723983 L2.33244355,16.9938727 C2.33244355,16.3498073 1.81028719,15.8276509 1.16622177,15.8276509 C0.522156363,15.8276509 0,16.3498073 0,16.9938727 L0,17.0723983 C0,17.7164637 0.522156363,18.2386201 1.16622177,18.2386201 Z" id="Path"></path>
                    <path d="M1.16622177,2.37131761 C1.49820624,2.37131761 1.79769199,2.23261497 2.01009985,2.01009985 C2.23277046,1.79769199 2.37131761,1.49820624 2.37131761,1.16622177 C2.37131761,0.522156363 1.84916125,0 1.20509583,0 L1.16622177,0 C0.522156363,0 0,0.522156363 0,1.16622177 L0,1.20509583 C0,1.84916125 0.522156363,2.37131761 1.16622177,2.37131761 Z" id="Path"></path>
                    <path d="M16.9938727,2.33244355 L17.0723983,2.33244355 C17.7164637,2.33244355 18.2386201,1.81028719 18.2386201,1.16622177 C18.2386201,0.522156363 17.7164637,0 17.0723983,0 L16.9938727,0 C16.3498073,0 15.8276509,0.522156363 15.8276509,1.16622177 C15.8276509,1.81028719 16.3498073,2.33244355 16.9938727,2.33244355 Z" id="Path"></path>
                    <path d="M9.06029922,2.33244355 L9.13882482,2.33244355 C9.78289023,2.33244355 10.3050466,1.81028719 10.3050466,1.16622177 C10.3050466,0.522156363 9.78289023,0 9.13882482,0 L9.06029922,0 C8.41623381,0 7.89407744,0.522156363 7.89407744,1.16622177 C7.89407744,1.81028719 8.41623381,2.33244355 9.06029922,2.33244355 Z" id="Path"></path>
                    <path d="M24.9276017,2.33244355 L25.0061273,2.33244355 C25.6501927,2.33244355 26.1723491,1.81028719 26.1723491,1.16622177 C26.1723491,0.522156363 25.6501927,0 25.0061273,0 L24.9276017,0 C24.2835363,0 23.7613799,0.522156363 23.7613799,1.16622177 C23.7613799,1.81028719 24.2833808,2.33244355 24.9276017,2.33244355 Z" id="Path"></path>
                    <path d="M32.8611752,2.33244355 L32.9397008,2.33244355 C33.5837662,2.33244355 34.1059226,1.81028719 34.1059226,1.16622177 C34.1059226,0.522156363 33.5837662,0 32.9397008,0 L32.8611752,0 C32.2171098,0 31.6949534,0.522156363 31.6949534,1.16622177 C31.6949534,1.81028719 32.2171098,2.33244355 32.8611752,2.33244355 Z" id="Path"></path>
                    <path d="M40.8337782,0 L40.7949042,0 C40.1508388,0 39.6286824,0.522156363 39.6286824,1.16622177 C39.6286824,1.49820624 39.767385,1.79769199 39.9899001,2.01009985 C40.202308,2.23277046 40.5017938,2.37131761 40.8337782,2.37131761 C41.4778436,2.37131761 42,1.84916125 42,1.20509583 L42,1.16622177 C42,0.522156363 41.4778436,0 40.8337782,0 Z" id="Path"></path>
                    <path d="M40.8337782,7.89407744 C40.1897128,7.89407744 39.6675565,8.41623381 39.6675565,9.06029922 L39.6675565,9.13882482 C39.6675565,9.78289023 40.1897128,10.3050466 40.8337782,10.3050466 C41.4778436,10.3050466 42,9.78289023 42,9.13882482 L42,9.06029922 C42,8.41623381 41.4778436,7.89407744 40.8337782,7.89407744 Z" id="Path"></path>
                    <path d="M40.8337782,15.8276509 C40.1897128,15.8276509 39.6675565,16.3498073 39.6675565,16.9938727 L39.6675565,17.0723983 C39.6675565,17.7164637 40.1897128,18.2386201 40.8337782,18.2386201 C41.4778436,18.2386201 42,17.7164637 42,17.0723983 L42,16.9938727 C42,16.3498073 41.4778436,15.8276509 40.8337782,15.8276509 Z" id="Path"></path>
                    <path d="M40.8337782,23.7613799 C40.1897128,23.7613799 39.6675565,24.2835363 39.6675565,24.9276017 L39.6675565,25.0061273 C39.6675565,25.6501927 40.1897128,26.1723491 40.8337782,26.1723491 C41.4778436,26.1723491 42,25.6501927 42,25.0061273 L42,24.9276017 C42,24.2833808 41.4778436,23.7613799 40.8337782,23.7613799 Z" id="Path"></path>
                    <path d="M40.8337782,31.6949534 C40.1897128,31.6949534 39.6675565,32.2171098 39.6675565,32.8611752 L39.6675565,32.9397008 C39.6675565,33.5837662 40.1897128,34.1059226 40.8337782,34.1059226 C41.4778436,34.1059226 42,33.5837662 42,32.9397008 L42,32.8611752 C42,32.2171098 41.4778436,31.6949534 40.8337782,31.6949534 Z" id="Path"></path>
                    <path d="M33.6800184,7.40099888 L26.690618,7.40099888 C26.0465526,7.40099888 25.5243962,7.92315524 25.5243962,8.56722065 C25.5243962,9.21128606 26.0465526,9.73344243 26.690618,9.73344243 L30.9981748,9.73344243 L21.98157,18.7500472 C21.5261215,19.2054957 21.5261215,19.9439473 21.98157,20.3992403 C22.2092165,20.6268868 22.5077693,20.7408655 22.8061665,20.7408655 C23.1045638,20.7408655 23.4031166,20.6270423 23.6307631,20.3992403 L32.5137966,11.5162068 L32.5137966,15.5564655 C32.5137966,16.2005309 33.035953,16.7226873 33.6800184,16.7226873 C34.3240838,16.7226873 34.8462401,16.2005309 34.8462401,15.5564655 L34.8462401,8.56722065 C34.8462401,7.92315524 34.3240838,7.40099888 33.6800184,7.40099888 Z" id="Path"></path>
                </g>
            </g>
        </g>
    </g>
</svg>