<?xml version="1.0" encoding="UTF-8"?>
<svg width="159px" height="60px" viewBox="0 0 159 60" version="1.1" xmlns="http://www.w3.org/2000/svg" xmlns:xlink="http://www.w3.org/1999/xlink">
    <title>kredeum-platforms</title>
    <g id="Page-1" stroke="none" stroke-width="1" fill="none" fill-rule="evenodd">
        <g id="Kredeum_site_V2" transform="translate(-1037.000000, -2104.000000)">
            <g id="Group-24" transform="translate(937.073952, 2016.083759)">
                <g id="Group-21" transform="translate(71.840909, 87.916241)">
                    <g id="kredeum-platforms" transform="translate(28.085139, 0.000000)">
                        <polygon id="+" fill="#000000" fill-rule="nonzero" points="81.6342412 38.4551191 81.6342412 30.8591191 89.0142412 30.8591191 89.0142412 28.1591191 81.6342412 28.1591191 81.6342412 20.5991191 78.9342412 20.5991191 78.9342412 28.1591191 71.5182412 28.1591191 71.5182412 30.8591191 78.9342412 30.8591191 78.9342412 38.4551191"></polygon>
                        <g id="logo-kredeum-bl">
                            <polygon id="Fill-1" fill="#13132E" points="23.5778666 16.6476393 23.5983188 40.8442258 28.0973934 40.8442258 28.0769412 35.616644 38.6769064 23.1686181 33.59249 23.1686181 28.0769412 30.5939932 28.0769412 16.6476393"></polygon>
                            <polygon id="Fill-2" fill="#13132E" points="31.1273047 34.8838008 34.246674 39.1112702 39.6080132 39.1112702 34.246674 31.5402755"></polygon>
                            <polygon id="Fill-3" fill="#13132E" points="12.0609885 39.1111475 17.4231458 39.1111475 20.5416969 34.8836781 17.4231458 31.5401528"></polygon>
                            <polygon id="Fill-4" fill="#13132E" points="23.4685292 16.6476393 23.4685292 30.5939932 17.9525714 23.1686181 12.8681549 23.1686181 23.4685292 35.616644 23.550747 40.8442258 28.0494125 40.8442258 27.9671947 16.6476393"></polygon>
                            <polygon id="Fill-5" fill="#3ACF6E" points="25.8581231 0 0.125576496 14.8568857 6.0023111 18.2503145 25.8348076 6.79994682 45.6673041 18.2503145 45.6673041 41.1506407 51.5910788 44.5706572 51.5910788 14.8568857"></polygon>
                            <polygon id="Fill-6" fill="#2E80DD" points="0 45.1431143 25.7329556 60 51.4655023 45.1431143 45.5417276 41.7230977 25.7096401 53.1734653 5.87714365 41.7230977 5.87714365 18.8227715 0 15.4293428"></polygon>
                        </g>
                        <g id="Group-5" transform="translate(109.000000, 6.000000)" fill-rule="nonzero">
                            <g id="Group-39" transform="translate(0.000000, 28.000000)" fill="#F26322">
                                <polygon id="Path" points="8.66626433 0 0 5.0090525 0 15.0030175 2.47435124 16.4272782 2.46228123 6.43331322 8.65419433 2.86059143 14.8461074 6.43331322 14.8461074 16.4272782 17.3204587 15.0030175 17.3204587 4.9969825"></polygon>
                                <polygon id="Path" points="9.89740495 16.4272782 8.66626433 17.1514786 7.42305371 16.4393482 7.42305371 6.43331322 4.94870247 7.86964393 4.94870247 17.8636089 8.66626433 20 12.3717562 17.8636089 12.3717562 7.86964393 9.89740495 6.43331322"></polygon>
                            </g>
                            <g id="joomla" transform="translate(29.434678, 0.000000)">
                                <path d="M19.8600473,2.71136016 C19.8600473,1.2622225 18.6852855,0.0874607186 17.2361478,0.0874607186 C15.9129443,0.0874607186 14.8191012,1.06705192 14.6388838,2.34048933 L14.6123263,2.32647069 C12.4664624,1.35863957 10.6589149,3.07288523 10.6589149,3.07288523 L5.87770297,7.87753942 L7.76687007,9.69684697 L11.6152196,5.91602058 C13.4122531,4.11890919 14.3907539,5.3352596 14.3907539,5.3352596 C15.7435524,6.47809004 14.437327,7.83088851 14.437327,7.83088851 L16.3732228,9.69684697 C17.9540578,7.98945487 18.0457241,6.49935164 17.5651964,5.313998 C18.8589608,5.15200486 19.8600473,4.04897177 19.8600473,2.71136016" id="Path" fill="#F9AE41"></path>
                                <path d="M17.5895732,14.7787586 C17.5985296,14.7620142 17.6035919,14.752279 17.6035919,14.752279 C18.5715009,12.6063372 16.8571773,10.7987897 16.8571773,10.7987897 L12.0524453,6.01742205 L10.2332156,7.90674491 L14.014042,11.7550165 C15.8110755,13.5521279 14.5947251,14.5307067 14.5947251,14.5307067 C13.4519725,15.8835051 12.0991741,14.5772797 12.0991741,14.5772797 L10.2332156,16.5130977 C11.9405298,18.0939327 13.4307109,18.185599 14.6159867,17.7050712 C14.7779798,18.9988357 15.8810908,20 17.2187024,20 C18.6678401,20 19.842524,18.8252382 19.842524,17.3761006 C19.842524,16.052897 18.8630107,14.9590539 17.5895732,14.7787586" id="Path" fill="#EE4035"></path>
                                <path d="M12.093333,10.303153 L8.24498347,14.0839015 C6.44787209,15.8810908 5.46937123,14.6648183 5.46937123,14.6648183 C4.11657275,13.52191 5.42272032,12.1691894 5.42272032,12.1691894 L3.48698019,10.303153 C1.90614523,12.0104672 1.81440103,13.5005705 2.29485088,14.6859241 C1.00108644,14.8479951 -9.13601224e-16,15.9509503 -9.13601224e-16,17.2886398 C-9.13601224e-16,18.7377775 1.17476178,19.9124614 2.62397732,19.9124614 C3.94718089,19.9124614 5.04102398,18.933026 5.22124135,17.6595886 C5.23806371,17.6685449 5.24779888,17.6735293 5.24779888,17.6735293 C7.39374068,18.6415941 9.20121028,16.9271148 9.20121028,16.9271148 L13.9825001,12.1223827 L12.093333,10.303153" id="Path" fill="#4F91CD"></path>
                                <path d="M5.84608315,8.24498347 C4.04897177,6.44787209 5.26516641,5.46929334 5.26516641,5.46929334 C6.40815262,4.11649487 7.76087321,5.42272032 7.76087321,5.42272032 L9.62683167,3.48698019 C7.91951745,1.90614523 6.42941422,1.81447892 5.24406058,2.29492876 C5.08206744,1.00108644 3.97911223,-9.13601224e-16 2.64126697,-9.13601224e-16 C1.19236296,-9.13601224e-16 0.0176790589,1.17476178 0.0175232962,2.62389944 C0.0175232962,3.94718089 0.997036616,5.04102398 2.27055191,5.22124135 C2.26159555,5.23806371 2.25661115,5.24787676 2.25661115,5.24787676 C1.28854638,7.3936628 3.00294781,9.20113239 3.00294781,9.20113239 L7.80775776,13.9825001 L9.62698743,12.093333 L5.84616104,8.24498347" id="Path" fill="#7AC043"></path>
                            </g>
                            <g id="drupal-3" transform="translate(1.000000, 0.000000)" fill="#009CDE">
                                <path d="M10.7901402,4.25487636 C9.38449825,2.84989012 8.04344581,1.51055898 7.64426939,0 C7.24509297,1.51055898 5.90379463,2.84989012 4.49839856,4.25487636 C2.39022248,6.36165901 4.0789903e-05,8.74934055 4.0789903e-05,12.330535 C-0.0088805278,15.0675762 1.44616915,17.6005499 3.81503388,18.9716642 C6.18389861,20.3427786 9.10505001,20.3427786 11.4739147,18.9716642 C13.8427795,17.6005499 15.2978291,15.0675762 15.2889078,12.330535 C15.2889078,8.74958645 12.8988901,6.36165901 10.7901402,4.25487636 M3.24923046,14.111829 C2.78046456,14.0959275 1.05056347,11.1142354 4.25979434,7.93951241 L6.38346207,10.2591618 C6.42035483,10.2955923 6.43991179,10.3460579 6.43720232,10.3978355 C6.43449285,10.4496131 6.40977548,10.4977619 6.36928188,10.5301428 C5.86248356,11.0498098 3.70258668,13.2157722 3.43406472,13.9646993 C3.37873739,14.119288 3.29775458,14.1134683 3.2491485,14.111829 M7.64451529,18.0415446 C6.94722768,18.0415446 6.27849171,17.7645852 5.78542723,17.2715361 C5.29236274,16.778487 5.01536071,16.1097596 5.01536071,15.412472 C5.02506775,14.7749786 5.25681814,14.1608328 5.67068216,13.6758497 C6.14477588,13.0961832 7.64418742,11.4657894 7.64418742,11.4657894 C7.64418742,11.4657894 9.12056641,13.1201174 9.61408617,13.6703579 C10.0439461,14.1482154 10.2792356,14.769747 10.2735879,15.412472 C10.2735426,16.86445 9.09649325,18.0415446 7.64451529,18.0415446 M12.6765972,13.7780618 C12.6199584,13.901995 12.4913531,14.1088782 12.3179121,14.1151896 C12.0086529,14.126501 11.9756204,13.967978 11.7470161,13.6297026 C11.2452177,12.8870869 6.86583439,8.31008255 6.04666209,7.42492729 C5.32617734,6.64641032 5.94518767,6.09748127 6.23239797,5.80986114 C6.59264035,5.44896303 7.64418742,4.39798972 7.64418742,4.39798972 C7.64418742,4.39798972 10.7798125,7.37304255 12.0859472,9.40580953 C13.392082,11.4385765 12.9420044,13.1975757 12.6765972,13.7780618" id="Shape"></path>
                            </g>
                            <g id="prestashop" transform="translate(29.434678, 28.000000)">
                                <path d="M6.48273437,15.345 C6.64242188,15.2739063 6.80421875,15.2085156 6.9675,15.1471875 C7.151875,15.0778906 7.33773438,15.0127344 7.52609375,14.9560156 C7.76054688,14.8853906 7.99695313,14.8214844 8.2365625,14.770625 C8.55987238,14.7018576 8.88679525,14.6513351 9.21578125,14.6192969 C9.02981196,15.2025585 8.82638713,15.7801099 8.60578125,16.3511719 C8.61487314,16.4626445 8.62070896,16.5743587 8.62328125,16.6861719 C9.07670619,16.5965226 9.53779749,16.5513345 10,16.55125 C10.4711719,16.55125 10.93125,16.5982813 11.3767188,16.6861719 C11.379291,16.5743587 11.3851269,16.4626445 11.3942187,16.3511719 C11.1735783,15.7801227 10.9701531,15.2025702 10.7842188,14.6192969 C11.1135156,14.65125 11.4403906,14.7020313 11.7634375,14.770625 C12.0029688,14.8214844 12.239375,14.8853906 12.4738281,14.9560156 C12.6622656,15.0127344 12.848125,15.0778906 13.0325,15.1471875 C13.1958594,15.2085938 13.3577344,15.2739844 13.5174219,15.3450781 C14.6717959,15.8583099 15.7001763,16.6174237 16.5307031,17.569375 C18.6541406,15.7357031 20,13.0258594 20,10 C20,4.4771875 15.5228125,0 10,0 C4.4771875,0 0,4.4771875 0,10 C0,13.0258594 1.34585938,15.735625 3.46929687,17.569375 C4.2998779,16.6173957 5.32830946,15.8582568 6.48273438,15.345" id="Path" fill="#A5DBE8"></path>
                                <path d="M13.5174219,15.3450781 L14.1382031,17.4796875 L14.3142969,17.4879688 C14.4285937,17.4879688 14.5089844,17.5180469 14.5089844,17.6323438 C14.5089844,17.8223438 14.5188281,18.0358594 14.5370312,18.2222656 C14.6917187,18.3535938 14.8800781,18.5017188 15.0228906,18.645625 C15.5576388,18.3341871 16.062398,17.9738989 16.5307031,17.569375 C15.7001763,16.6174237 14.6717959,15.8583099 13.5174219,15.3450781 M12.3035937,15.32375 L13.0325,15.1471875 C12.848125,15.0778906 12.6622656,15.0127344 12.4738281,14.9560156 C12.239375,14.8853906 12.0029688,14.8214844 11.7634375,14.770625 C11.4401276,14.7018576 11.1132047,14.6513351 10.7842188,14.6192969 C10.9701531,15.2025702 11.1735783,15.7801227 11.3942187,16.3511719 C11.3851269,16.4626445 11.379291,16.5743587 11.3767187,16.6861719 C11.8932031,16.7880469 12.4010156,16.9650781 12.8705469,17.1727344 L12.3035937,15.32375" id="Shape" fill="#525353"></path>
                                <path d="M4.97710937,18.645625 C5.09320312,18.7132813 5.21046875,18.7792969 5.3296875,18.8423438 C5.37140625,18.6419531 5.438125,18.3642969 5.45828125,18.158125 C5.30359375,18.2894531 5.11992187,18.5017188 4.97710937,18.645625 M12.8583594,17.1542969 C12.383331,16.943889 11.8864052,16.7868851 11.3767188,16.6861719 C10.9232932,16.5965265 10.4622023,16.5513385 10,16.55125 C9.52875,16.55125 9.06875,16.5982812 8.62328125,16.6861719 C8.106875,16.7879688 7.56804688,16.9424219 7.09867188,17.15 L7.04875,17.4610156 L12.9514063,17.4610156 L12.8583594,17.1542969" id="Shape" fill="#000000"></path>
                                <path d="M5.44,18.2173438 C5.45828125,18.0309375 5.47148438,17.8647656 5.47148438,17.6746875 C5.47148438,17.5604688 5.54984375,17.4872656 5.66414062,17.4872656 L5.8515625,17.4807031 L6.48273438,15.345 C5.32830946,15.8582568 4.2998779,16.6173957 3.46929688,17.569375 C3.93760196,17.9738989 4.44236115,18.3341871 4.97710938,18.645625 C5.11991505,18.5015818 5.26880039,18.363696 5.42335938,18.2323438" id="Path" fill="#525353"></path>
                                <path d="M14.6133594,18.5972656 C14.6538281,18.8003906 14.6629687,18.8408594 14.6703125,18.8423438 C14.7891685,18.7791835 14.9067192,18.7135968 15.0228906,18.645625 C14.8785422,18.5000275 14.728095,18.3606058 14.5719531,18.2277344 L14.6133594,18.5972656" id="Path" fill="#000000"></path>
                                <path d="M12.8583594,17.1542969 L12.9514063,17.4610156 L14.15875,17.4610156 L13.5174219,15.3450781 C13.3577734,15.2743346 13.1960617,15.208342 13.0325,15.1471875 L12.3035937,15.32375 L12.8583594,17.1542969" id="Path" fill="#AA9678"></path>
                                <path d="M5.87070156,17.9011781 C5.87880156,17.8954781 5.88700156,17.8897781 5.89500156,17.8839781 L5.87180156,17.8839781 C5.87160156,17.8896781 5.87100156,17.8954781 5.87070156,17.9011781" id="Path" fill="#C4B6A1"></path>
                                <path d="M14.1500953,17.8839781 L14.1267953,17.8839781 L14.1510953,17.9011781 C14.1508953,17.8954781 14.1502953,17.8896781 14.1500953,17.8839781" id="Path" fill="#AA9678"></path>
                                <path d="M14.1159375,17.8440625 L9.99140625,17.84875 L10,20 C11.535,20 12.98875,19.6532031 14.2885156,19.0350781 C14.2036719,18.6622656 14.1951563,18.2607031 14.1813281,17.8699219 C14.1750781,17.8653906 14.1159375,17.8440625 14.1159375,17.8440625" id="Path" fill="#AA9678"></path>
                                <path d="M9.99335938,17.8576562 C9.99335938,17.8576562 5.84609375,17.8524219 5.83976563,17.856875 C5.82601563,18.2477344 5.74539063,18.7114844 5.71148438,19.0350781 C7.01125,19.6532031 8.465,20 10,20 L10.0023437,17.8646094 L9.99335938,17.8576562" id="Path" fill="#C4B6A1"></path>
                                <polygon id="Path" fill="#786453" points="10.0109266 17.6679688 10.0110266 17.6679688 10.0110266 17.8749219 10.0109266 17.8749219"></polygon>
                                <path d="M13.0932812,16.2625 L13.0953906,16.2689844 L13.0932812,16.2625 C13.0932812,16.2625 12.991875,16.1821094 12.8632031,16.0340625 C12.991875,16.1821094 13.0932812,16.2625 13.0932812,16.2625" id="Path" fill="#AA9678"></path>
                                <polyline id="Path" fill="#BBBCBD" points="16.5623547 10.1021797 16.5622547 10.0986797 16.5623547 10.1021797"></polyline>
                                <path d="M16.5401563,9.93507813 C16.5404688,9.93773438 16.54125,9.94007813 16.5415625,9.94273438 C16.5417969,9.944375 16.5422656,9.94585938 16.5425,9.94742188 L16.5425,9.94804688 C16.5472656,9.98625 16.5490625,10.0261719 16.5499219,10.0664062 C16.5500781,10.0738281 16.5513281,10.0807813 16.5513281,10.088125 L16.5514063,10.0908594 L16.5513281,10.0938281 C16.55125,10.1017969 16.5499219,10.1092188 16.5498438,10.1171094 C16.5493132,10.1559025 16.5468884,10.1946466 16.5425781,10.2332031 L16.5425781,10.23375 L16.5414844,10.2394531 C16.5411719,10.2425 16.5402344,10.2452344 16.5398438,10.2482031 C16.5345922,10.288045 16.5271064,10.3275604 16.5174219,10.3665625 L16.5172656,10.3671094 L16.5172656,10.3671875 L16.5186719,10.365625 L16.5192188,10.3638281 L16.5192188,10.3639063 L16.7809375,10.0899219 L16.5171094,9.81375 L16.5171875,9.81429688 C16.5270313,9.8528125 16.5345313,9.89328125 16.5401563,9.93507813" id="Path" fill="#676A6A"></path>
                                <path d="M16.7324455,10.2482031 C16.7333194,10.2430469 16.73497,10.2384375 16.7358439,10.2332031 C16.7415726,10.1957031 16.7437087,10.1565625 16.7448739,10.1171094 C16.744971,10.1082031 16.7467187,10.0998437 16.7467187,10.0908594 C16.7467187,10.0825 16.7451652,10.0746875 16.744971,10.0664062 C16.7443953,10.0268527 16.7413165,9.98734844 16.7357468,9.94804688 C16.73497,9.94351562 16.7335136,9.93953125 16.7328339,9.93507813 C16.7262313,9.89440715 16.7166998,9.85407888 16.7042874,9.81429688 C16.7000152,9.80085938 16.6940923,9.78890625 16.6891403,9.7759375 C16.65972,9.69765625 16.619619,9.62851563 16.5720416,9.57109375 C16.5538305,9.54926771 16.5339181,9.52839252 16.5124242,9.50859375 C16.4927742,9.49110557 16.4712667,9.47502908 16.4481461,9.46054688 C16.4396016,9.4553125 16.4305716,9.45164062 16.4218328,9.44710938 C16.395044,9.43294248 16.3660544,9.42167386 16.3356109,9.41359375 C16.3068696,9.40590745 16.2768541,9.40174624 16.2465731,9.40125 C16.2160847,9.40125 16.1865673,9.40640625 16.1575353,9.41359375 C16.127044,9.42163945 16.0980169,9.43290999 16.0712163,9.44710938 C16.0626718,9.45164063 16.0535447,9.45523438 16.0450972,9.46046875 C16.0051082,9.48555989 15.9699652,9.51528431 15.9408153,9.54867188 C15.9340021,9.55603218 15.9274297,9.56353475 15.9211046,9.57117188 C15.8735272,9.62859375 15.8333291,9.69773438 15.8040059,9.77601563 L15.8003162,9.78539063 C15.7873052,9.82132813 15.7772071,9.85914063 15.7687597,9.89796875 C15.7662352,9.90984375 15.7628368,9.92125 15.7607978,9.9334375 C15.75303,9.976875 15.7490491,10.0221875 15.7480781,10.0685938 C15.747981,10.075 15.7467187,10.0810938 15.7467187,10.0875 L15.7486607,10.0875 C15.7486607,10.4684375 15.972663,10.7771875 16.2489034,10.7771875 C16.2964809,10.7771875 16.3422135,10.7671875 16.3858099,10.7500781 C16.4119438,10.7397694 16.4366196,10.7272229 16.4594093,10.7126563 C16.4688277,10.7065625 16.4776635,10.6992188 16.4866935,10.6923438 C16.5087345,10.6757813 16.5297074,10.6570313 16.5496122,10.6361719 C16.5634,10.6215625 16.5769935,10.6069531 16.5896161,10.590625 C16.5976752,10.5802344 16.6050545,10.5689844 16.612531,10.5578906 C16.6265129,10.5371094 16.6397181,10.5154688 16.651661,10.4925 C16.6561274,10.4842188 16.660691,10.4761719 16.664769,10.4676563 C16.6800132,10.4357031 16.6933155,10.4019531 16.7045787,10.3665625 C16.7165216,10.3288281 16.7254545,10.2891406 16.7324455,10.2482031 L16.7324455,10.2482031 Z M16.264536,9.9990625 C16.1609337,9.9990625 16.076945,9.88320313 16.076945,9.74039062 C16.076945,9.59765625 16.1609337,9.48179688 16.264536,9.48179688 C16.3681383,9.48179688 16.4520299,9.59765625 16.4520299,9.74039062 C16.4520299,9.88320313 16.3681383,9.9990625 16.264536,9.9990625 Z" id="Shape" fill="#000000"></path>
                                <path d="M16.1633594,9.48179688 C16.08,9.48179688 16.0124219,9.59765625 16.0124219,9.74039063 C16.0124219,9.88320313 16.08,9.9990625 16.1633594,9.9990625 C16.2467187,9.9990625 16.3142188,9.88320313 16.3142188,9.74039062 C16.3142188,9.59765625 16.2467188,9.48179688 16.1633594,9.48179688" id="Path" fill="#FFFFFF"></path>
                                <path d="M15.7928125,9.77601562 C15.8164062,9.69773437 15.84875,9.62859375 15.8870312,9.57117187 C15.8921875,9.56335938 15.8974219,9.55609375 15.9028906,9.54867188 C15.9262787,9.51523013 15.9545639,9.48549648 15.9867969,9.46046875 C15.9935937,9.45523438 16.0009375,9.45164063 16.0078125,9.44710938 C16.029358,9.43287742 16.052718,9.42160471 16.0772656,9.41359375 C16.1005469,9.40625 16.124375,9.40125 16.1489063,9.40125 C16.1734375,9.40125 16.1972656,9.40625 16.2205469,9.41359375 C16.245042,9.42167386 16.2683673,9.43294248 16.2899219,9.44710938 C16.2969531,9.45164063 16.3042188,9.4553125 16.3110937,9.46054688 C16.3290625,9.47429688 16.34625,9.49054688 16.3628125,9.50859375 C16.3801067,9.52839252 16.3961284,9.54926771 16.4107812,9.57109375 C16.4490625,9.62851563 16.4813281,9.69765625 16.505,9.7759375 L16.505,9.77609375 L16.1489062,8.14507813 L15.7927344,9.77601563 L15.7928125,9.77601563" id="Path" fill="#909393"></path>
                                <path d="M11.4296094,10.075625 C11.4291406,10.0428125 11.4270313,10.0103906 11.4233594,9.97851562 C11.4232812,9.978125 11.423125,9.97765625 11.423125,9.9771875 C11.4194204,9.94601054 11.4141797,9.91503537 11.4074219,9.884375 L11.4067969,9.88203125 C11.4000977,9.85211835 11.3919368,9.82255165 11.3823438,9.7934375 L11.3815625,9.79148437 C11.3720264,9.76260852 11.3610225,9.73423827 11.3485938,9.70648437 C11.3484375,9.7059375 11.3480469,9.70539062 11.3478125,9.70476562 C11.2485717,9.483909 11.0685003,9.30945696 10.8446094,9.21726562 L10.841875,9.21625 C10.787403,9.19402848 10.7309546,9.17699979 10.6732813,9.16539062 C10.6717969,9.16515625 10.6703906,9.16507812 10.6689063,9.16476562 C10.6093883,9.1530165 10.5488697,9.14707714 10.4882031,9.14703125 C10.4273438,9.14703125 10.3682031,9.15328125 10.310625,9.16429687 L10.3045313,9.16523437 C10.2472656,9.17664062 10.1920313,9.19335937 10.1389844,9.21460937 L10.1347656,9.21625 C10.081128,9.23801305 10.0296303,9.26471654 9.9809375,9.29601562 C9.93226562,9.32742187 9.8865625,9.363125 9.84453125,9.40257812 L9.84351563,9.40578125 L9.84,9.4065625 C9.77267703,9.47061376 9.71506444,9.54414943 9.66898438,9.62484375 L9.66726563,9.62773437 C9.65320313,9.6525 9.64046875,9.67828125 9.62875,9.70453125 C9.6275,9.70734375 9.6259375,9.71 9.62476563,9.7128125 C9.6140625,9.73710937 9.60484375,9.76226562 9.59625,9.78757812 C9.59460938,9.79257812 9.59242188,9.79726562 9.59085938,9.8021875 C9.58335938,9.82585937 9.57726563,9.85015625 9.57148438,9.87445312 C9.57,9.88148437 9.56773438,9.88820312 9.56625,9.89515625 C9.56125,9.91921875 9.5578125,9.94382812 9.55460938,9.96851562 C9.55367188,9.97609375 9.55203125,9.98335937 9.55125,9.9909375 C9.54143635,10.0844887 9.54575554,10.1789841 9.5640625,10.27125 C9.56421875,10.2724219 9.56429687,10.27375 9.56460937,10.275 C9.57640625,10.3338281 9.59375,10.3905469 9.61601562,10.4448437 C9.61632812,10.445625 9.61648437,10.4464062 9.616875,10.4471094 C9.66194722,10.556139 9.72702574,10.6557706 9.80875,10.7408594 C9.8728125,10.8076562 9.9465625,10.8649219 10.0276562,10.9107031 L10.0288281,10.9114062 C10.0541406,10.925625 10.0803125,10.9384375 10.1069531,10.9503125 C10.1091406,10.95125 10.11125,10.9525 10.1135156,10.9534375 C10.1382031,10.9642187 10.16375,10.9735156 10.1894531,10.9821875 C10.1938281,10.9836719 10.1980469,10.9855469 10.2024219,10.9869531 C10.2261719,10.9945312 10.2507031,11.000625 10.2752344,11.00625 C10.281875,11.0078125 10.2882812,11.01 10.295,11.0114062 C10.3188281,11.0163281 10.3433594,11.0196875 10.3680469,11.0228906 C10.3754687,11.02375 10.3828125,11.0254687 10.3903906,11.02625 C10.610413,11.04943 10.8315614,10.9942673 11.0149219,10.8704687 C11.1152346,10.8026814 11.201635,10.7163076 11.2694531,10.6160156 C11.3745213,10.4604374 11.4305763,10.2769523 11.4303911,10.0892187 C11.4303911,10.0869531 11.4300781,10.0848437 11.4300781,10.0827344 C11.43,10.0803125 11.4296875,10.0780469 11.4296094,10.075625 L11.4296094,10.075625 Z M10.4882031,9.96523437 C10.3617506,9.96522042 10.2449112,9.89774593 10.181697,9.78822789 C10.1184829,9.67870985 10.1184977,9.54378666 10.1817361,9.43428257 C10.2449744,9.32477849 10.3618288,9.25732979 10.4882813,9.25734375 C10.6837598,9.25736533 10.8422091,9.41584953 10.8421875,9.61132812 C10.8421659,9.80680672 10.6836817,9.96525594 10.4882031,9.96523437 Z" id="Shape" fill="#000000"></path>
                                <path d="M10.4882031,9.25734375 C10.2927461,9.25734375 10.1342969,9.41579298 10.1342969,9.61125 C10.1342969,9.80670702 10.2927461,9.96515625 10.4882031,9.96515625 C10.6836601,9.96515625 10.8421094,9.80670702 10.8421094,9.61125 C10.8421094,9.41579298 10.6836601,9.25734375 10.4882031,9.25734375" id="Path" fill="#FFFFFF"></path>
                                <path d="M9.84,9.4065625 L9.84351563,9.40578125 L9.84453125,9.40257813 L10.4934375,7.41804687 L10.4934375,6.95359375 L10.4933594,6.94835938 C10.127104,6.87252969 9.75410065,6.83405145 9.38007812,6.83351563 C9.253125,6.83351563 9.1271875,6.83890625 9.00203125,6.84742188 C8.98382812,6.84867188 8.96554687,6.84976562 8.94726562,6.85117188 C8.2959375,6.900625 7.65453125,7.07039062 7.060625,7.34148438 C6.55132812,7.5740625 6.078125,7.88039063 5.65273437,8.24359375 L5.65273437,8.24367188 L5.65203125,8.24429687 C5.5382142,8.34176264 5.42795983,8.44331341 5.32148438,8.54875 C5.30148438,8.56828125 5.28117188,8.58765625 5.26140625,8.6075 C5.16075645,8.70901298 5.06338868,8.81372828 4.96945313,8.92148437 C4.9490625,8.945 4.92898438,8.96898437 4.90882813,8.99273437 C4.81403099,9.10395216 4.72278716,9.21815026 4.63523437,9.33515625 C4.62796875,9.345 4.62117187,9.3553125 4.61398437,9.36515625 C4.53093523,9.47856984 4.4513159,9.59445556 4.37523437,9.71265625 C4.3603125,9.73570313 4.345,9.7584375 4.33039063,9.78171875 C4.26867188,9.87960938 4.21125,9.98015625 4.15421875,10.0809375 L7.11023438,10.0809375 L9.84,9.4065625" id="Path" fill="#BBBCBD"></path>
                                <path d="M12.3355469,9.18328125 C12.3415625,9.10585938 12.3464844,9.02851563 12.3504688,8.95101563 C12.3558594,8.84617188 12.3595313,8.74117188 12.3615625,8.63625 C12.363125,8.55476563 12.3628906,8.47320313 12.3625,8.39171875 C12.3625,8.36820313 12.3630469,8.3446875 12.3628125,8.32109375 C12.3603761,8.11069787 12.3526393,7.90039678 12.3396094,7.69039063 L12.3378125,7.68921875 L12.3370313,7.68773438 C12.2589354,7.64285933 12.1807321,7.5981717 12.1024219,7.55367187 L12.0969531,7.55054687 L12.0357813,7.5159375 L12.0346875,7.5153125 L11.9922656,7.4915625 L11.9839063,7.486875 C11.9736666,7.48119045 11.9633798,7.47559129 11.9530469,7.47007812 C11.8171562,7.3995533 11.6785325,7.33442439 11.5375,7.27484375 C11.2013281,7.13289062 10.7485156,7.0084375 10.4934375,6.94835937 L10.4934375,7.41804687 L11.1366406,9.40578125 L11.1373438,9.40742187 C11.20375,9.47070312 11.2608594,9.5434375 11.3066406,9.62359375 L11.3066406,9.62367187 C11.3216406,9.64992187 11.3353906,9.67703125 11.3478125,9.70476562 C11.348125,9.70539062 11.3484375,9.7059375 11.3485938,9.70648437 C11.3610156,9.73414062 11.3719531,9.7625 11.3815625,9.79148437 L11.3823438,9.7934375 C11.391875,9.82242187 11.4000781,9.85195312 11.4067969,9.88203125 L11.4074219,9.884375 C11.4141406,9.91476562 11.419375,9.94578125 11.423125,9.9771875 C11.423125,9.97765625 11.4232813,9.978125 11.4233594,9.97851562 C11.4270313,10.0103906 11.4291406,10.0428125 11.4296094,10.075625 L11.4320313,10.0809375 L12.2196094,10.0809375 C12.2724484,9.79190118 12.310441,9.50034698 12.3334375,9.20742187 C12.3339844,9.199375 12.3349219,9.19132812 12.3355469,9.18328125" id="Path" fill="#E3DDDB"></path>
                                <path d="M13.3766813,8.49102344 C13.3759813,8.49212344 13.3754813,8.49342344 13.3748813,8.49452344 L13.3766813,8.49112344" id="Path" fill="#FCB03F"></path>
                                <path d="M9.84453125,9.40257813 C9.88686046,9.36291286 9.93269918,9.32716755 9.98148438,9.29578125 C10.0300118,9.26459302 10.0813249,9.23796878 10.1347656,9.21625 C10.1361719,9.215625 10.1376563,9.21523437 10.1389844,9.21460937 C10.1925286,9.19308854 10.2479463,9.17655998 10.3045313,9.16523437 L10.310625,9.16429687 C10.3691387,9.15293988 10.4285977,9.14715878 10.4882031,9.14703125 C10.5500781,9.14703125 10.6103906,9.15328125 10.6689062,9.16476562 C10.6703906,9.16507812 10.6717969,9.16515625 10.6732813,9.16539062 C10.7319189,9.17716067 10.7892913,9.194532 10.8446094,9.21726563 C10.9531053,9.26200641 11.0523621,9.32648222 11.1373438,9.40742188 L11.1366406,9.40578125 L10.4934375,7.41804687 L9.84453125,9.40257813" id="Path" fill="#909393"></path>
                                <path d="M9.61601562,10.4448437 C9.59349626,10.3900005 9.57628222,10.3331262 9.56460937,10.275 C9.56429688,10.27375 9.56421875,10.2724219 9.5640625,10.27125 C9.54575554,10.1789841 9.54143635,10.0844887 9.55125,9.9909375 C9.55203125,9.98335937 9.55367187,9.97609375 9.55460937,9.96851562 C9.5578125,9.94382812 9.56125,9.91921875 9.56625,9.89515625 C9.56773438,9.88820312 9.57,9.88148437 9.57148437,9.87445312 C9.57726562,9.85015625 9.58335937,9.82585937 9.59085937,9.8021875 C9.5925,9.79726562 9.59453125,9.79257812 9.59625,9.78757812 C9.60484375,9.76226562 9.6140625,9.73710937 9.62476562,9.7128125 C9.6259375,9.71 9.6275,9.70734375 9.62875,9.70453125 C9.64046875,9.67828125 9.65320312,9.6525 9.66726562,9.62773437 L9.66898437,9.62484375 C9.71506444,9.54414943 9.77267703,9.47061376 9.84,9.4065625 L7.11023438,10.0809375 L7.105,10.0809375 L9.80875,10.7408594 C9.72702574,10.6557706 9.66194722,10.556139 9.616875,10.4471094 C9.61648437,10.4464063 9.61632812,10.445625 9.61601562,10.4448438" id="Path" fill="#676A6A"></path>
                                <path d="M15.7580469,9.9334375 C15.7597656,9.92125 15.7623438,9.90984375 15.7644531,9.89796875 C15.77125,9.85914062 15.779375,9.82132812 15.7898438,9.78539062 C15.7910156,9.78132812 15.7914844,9.77671875 15.7927344,9.77273437 L16.1489063,8.14179687 L16.1488281,7.211875 C15.8578125,6.97148437 15.5461719,6.84007812 15.2217188,6.84007812 C14.8117188,6.84007812 14.4294531,7.06648437 14.1435938,7.34609375 C13.8307813,7.65210937 13.5890625,8.03710937 13.3935938,8.425625 C13.3846094,8.44351562 13.3753906,8.46070312 13.3664844,8.47867187 C13.4267187,8.53085937 13.4863281,8.58375 13.5451563,8.63757812 C13.678096,8.75963199 13.8087438,8.88415893 13.9370313,9.01109375 C13.996875,9.07015625 14.055625,9.13046875 14.1145313,9.19054687 C14.1770313,9.25421875 14.2396094,9.31773437 14.3011719,9.38242187 C14.41375,9.50067916 14.5247494,9.62042934 14.6341406,9.74164062 C14.7280098,9.84517314 14.8208529,9.94963137 14.9126563,10.055 L14.9128125,10.0551562 C14.9282031,10.07125 14.9389844,10.0828125 14.943125,10.0875 L15.7464063,10.0875 C15.7464063,10.0810156 15.7477344,10.0750781 15.7478125,10.0685937 C15.7485938,10.0221875 15.7517969,9.976875 15.7580469,9.9334375" id="Shape" fill="#E3DDDB"></path>
                                <path d="M3.66992188,11.1072656 L3.67710938,11.0892969 C3.78496981,10.8094291 3.90935543,10.5362138 4.04960938,10.2710938 C4.07132813,10.2298438 4.09257813,10.1884375 4.11507813,10.1475781 C4.1275,10.125 4.1415625,10.1034375 4.15421875,10.0809375 C4.21125,9.98015625 4.26867188,9.87960938 4.33039063,9.78171875 C4.345,9.75835938 4.3603125,9.73570313 4.37523438,9.71265625 C4.4513159,9.59445556 4.53093523,9.47856984 4.61398438,9.36515625 C4.62117188,9.3553125 4.62796875,9.345 4.63523438,9.33515625 C4.72278716,9.21815026 4.81403099,9.10395216 4.90882813,8.99273438 C4.92898438,8.96898438 4.94898438,8.94507813 4.96945313,8.92148438 C5.06338868,8.81372828 5.16075645,8.70901298 5.26140625,8.6075 C5.28125,8.58765625 5.30148438,8.56828125 5.32148438,8.54875 C5.42795983,8.44331341 5.5382142,8.34176264 5.65203125,8.24429688 L5.65273438,8.24359375 C6.10203125,6.73859375 7.5528125,5.81375 9.17945313,5.81375 C9.83414063,5.81375 10.4852344,6.00242188 11.0432031,6.34375 C11.6155469,6.69382813 12.0057813,7.03585938 12.30875,7.63375 L12.3132813,7.64273438 C12.3209375,7.65789063 12.3295313,7.67242188 12.3370313,7.68773438 L12.3378125,7.68921875 L12.3396094,7.69039063 C12.5940362,7.84781645 12.8363978,8.02395365 13.0646875,8.21734375 C13.1414834,8.28215534 13.2168149,8.34868251 13.290625,8.416875 C13.315,8.43921875 13.3400781,8.46046875 13.3641406,8.48320313 C13.3646094,8.48226563 13.365,8.48132813 13.3655469,8.48046875 C13.3657857,8.479823 13.366073,8.47919622 13.3664063,8.47859375 C13.3746875,8.46164063 13.3828125,8.444375 13.3911719,8.42765625 C13.6203906,6.98101563 14.3486719,6.1921875 15.1013281,6.1921875 C15.6686719,6.1921875 16.0810938,6.53046875 16.3925781,7.44109375 L16.3957813,7.45085938 L16.3965625,7.45195313 C16.4884027,7.55214474 16.5741555,7.65775074 16.6533594,7.76820313 L16.6532031,7.768125 C16.6548437,7.7703125 16.6565625,7.77234375 16.6582031,7.77460938 L16.658125,7.77453125 L16.6582031,7.77460938 C16.6626562,7.7878125 16.6664844,7.80140625 16.6707812,7.81460938 L16.6707812,7.81453125 L16.6590625,7.76710938 C15.7227344,4.99507813 13.1008594,2.99929688 10.0127344,2.99929688 C6.13929687,2.99929688 2.99929687,6.13929688 2.99929687,10.0127344 C2.99929687,10.7763281 3.12132812,11.5114844 3.34789062,12.1955469 L3.34882812,12.1915625 C3.42848199,11.8225806 3.5358169,11.4601229 3.66992187,11.1072656" id="Path" fill="#525353"></path>
                                <path d="M16.7638281,10.0902344 L16.5192187,10.3639062 L16.5192187,10.3638281 L16.5186719,10.365625 C16.509375,10.4016406 16.4979687,10.4352344 16.4853906,10.4676562 C16.4821094,10.4761719 16.4784375,10.4842187 16.4748437,10.4925 C16.4654646,10.5148167 16.4549563,10.5366418 16.4433594,10.5578906 C16.4373437,10.5689844 16.4314062,10.5802344 16.4249219,10.590625 C16.4147656,10.606875 16.4038281,10.6216406 16.3927344,10.6361719 C16.3774312,10.6562548 16.3604989,10.6750424 16.3421094,10.6923437 C16.3348437,10.6991406 16.3278125,10.7065625 16.3201562,10.7126562 C16.3018194,10.7272229 16.281965,10.7397694 16.2609375,10.7500781 C16.2258594,10.7671875 16.1890625,10.7771875 16.1507812,10.7771875 C15.9285156,10.7771875 15.7482812,10.4684375 15.7482812,10.0875 L14.9407031,10.0875 L14.9411719,10.088125 C15.0928945,10.2634869 15.2422311,10.4408991 15.3891406,10.6203125 C15.5303253,10.7928286 15.6697595,10.9667698 15.8074219,11.1421094 L15.8277344,11.1678125 C15.9581892,11.334343 16.0874633,11.5017951 16.2155469,11.6701562 L16.2528906,11.7189062 C16.3889518,11.8980093 16.5241357,12.077777 16.6584375,12.2582031 C16.8947813,11.5585683 17.0189208,10.82594 17.02625,10.0875 L16.7992187,10.0789062 L16.7638281,10.0902344" id="Path" fill="#FFFFFF"></path>
                                <path d="M8.94726562,6.85117188 C8.96554688,6.84976562 8.98382813,6.84867188 9.00203125,6.84742188 C9.12785282,6.8385027 9.2539413,6.8338646 9.38007813,6.83351562 C9.76039062,6.83351562 10.1319531,6.87421875 10.4933594,6.94835937 L10.4934375,6.94835937 C10.7485156,7.0084375 11.2013281,7.13289062 11.5375,7.27484375 C11.6785325,7.33442439 11.8171562,7.3995533 11.9530469,7.47007812 L11.9839063,7.486875 L11.9922656,7.4915625 C12.0048438,7.49859375 12.0185938,7.50617187 12.0346875,7.5153125 L12.0357813,7.5159375 L12.0969531,7.55054687 L12.1024219,7.55367187 C12.1888281,7.60265625 12.2844531,7.65757812 12.3210156,7.67851562 L12.3303906,7.68390625 L12.3370313,7.68773437 C12.3295313,7.67242187 12.3209375,7.65789062 12.3132813,7.64273437 L12.30875,7.63375 C12.0057813,7.03585937 11.539375,6.52304688 10.9670313,6.17296875 C10.4090625,5.83164062 9.75796875,5.64296875 9.10320313,5.64296875 C7.47664063,5.64296875 6.10203125,6.73859375 5.65273438,8.24359375 C6.078125,7.88039062 6.55132813,7.5740625 7.060625,7.34148437 C7.65453125,7.07039062 8.2959375,6.900625 8.94726563,6.85117187" id="Path" fill="#000000"></path>
                                <path d="M16.6582031,7.77460937 L16.658125,7.77453125 L16.6582031,7.77460937 C16.6565625,7.77234375 16.6548438,7.7703125 16.6532031,7.768125 L16.6533594,7.76820313 C16.5741555,7.65775074 16.4884027,7.55214474 16.3965625,7.45195313 L16.3942969,7.44921875 C16.3551706,7.40672419 16.3147613,7.36542907 16.273125,7.32539063 C16.2577344,7.310625 16.2417969,7.29773438 16.22625,7.28359375 C16.2005469,7.26023438 16.175,7.23609375 16.1489062,7.2146875 L16.1489062,8.14507813 L16.5050781,9.77617188 L16.5050781,9.77609375 C16.5089844,9.78875 16.5136719,9.800625 16.5171094,9.81375 L16.7638281,10.0902344 L16.76625,10.0875 L17.0244531,10.0875 C17.0247656,10.0635938 17.02625,10.04 17.02625,10.0160156 L17.02625,10.015625 C17.0261232,9.26764731 16.9061115,8.52452442 16.6707813,7.81453125 L16.6707813,7.81460938 C16.6664844,7.80140625 16.6626562,7.7878125 16.6582031,7.77460938" id="Path" fill="#BBBCBD"></path>
                                <path d="M14.1435938,7.34609375 C14.4294531,7.06648438 14.8117188,6.84007812 15.2217188,6.84007812 C15.5461719,6.84007812 15.8578125,6.97148438 16.1488281,7.211875 L16.1489063,7.2146875 L16.1489063,7.21515625 L16.1489063,7.2146875 C16.175,7.23609375 16.2005469,7.26023438 16.22625,7.28359375 C16.2417969,7.29773438 16.2577344,7.310625 16.273125,7.32539063 C16.3147613,7.36542907 16.3551706,7.40672419 16.3942969,7.44921875 L16.3965625,7.45195312 C16.3963729,7.45160944 16.3961362,7.45129389 16.3958594,7.45101562 L16.3957813,7.4509375 L16.3925781,7.44109375 C16.0810938,6.53046875 15.5785156,5.93882812 15.0113281,5.93882812 C14.2585938,5.93882812 13.6203906,6.98101562 13.3911719,8.42765625 L13.3935938,8.425625 C13.5890625,8.03710937 13.8307813,7.65210937 14.1435938,7.34609375 M13.1264844,16.2371875 C13.1264844,16.2371875 13.0251563,16.156875 12.8964844,16.0088281 C12.8366186,15.9403597 12.7808197,15.8684394 12.729375,15.7934375 C12.7129688,15.7695312 12.6967188,15.7446875 12.6805469,15.7190625 C12.631875,15.6421094 12.5930469,15.5484375 12.5502344,15.4558594 C12.5007031,15.3486719 12.5005469,15.2773438 12.4721094,15.1775 C12.4511867,15.1039736 12.43457,15.0292895 12.4223438,14.9538281 C12.4026035,14.8317497 12.3946763,14.7080527 12.3986719,14.5844531 C12.4008594,14.513125 12.4082031,14.4392969 12.4189063,14.3641406 C12.4295352,14.2895003 12.4440602,14.2154669 12.4624219,14.1423438 C12.5191406,13.9155469 12.6171875,13.6739844 12.7701563,13.4189844 L12.8090625,13.3316406 C12.8590625,13.2483594 12.8701563,13.2520312 12.9176563,13.1717969 C13.5867188,12.0426563 13.9476563,11.1888281 13.7710938,9.87414062 C13.7517301,9.73945471 13.7297467,9.60515845 13.7051563,9.47132812 C13.6897704,9.56832458 13.6734937,9.66517763 13.6563281,9.761875 C13.6496875,9.791875 13.6314844,9.82445312 13.6246094,9.84484375 C13.3339844,10.705 12.8764844,11.3377344 12.2182031,12.0521875 C12.126551,12.151277 12.0337847,12.2493301 11.9399219,12.3463281 C11.7722629,12.5196536 11.6028532,12.691277 11.4317187,12.8611719 C11.3604687,12.9320313 11.2878125,13.0039062 11.2139062,13.0771875 C11.1460156,13.144375 11.0615625,13.2880469 10.9607812,13.3939063 C10.8985937,13.5680469 10.8278906,13.7644531 10.768125,13.9710156 C10.7411719,13.9607813 10.7154687,13.9516406 10.6880469,13.9410156 C9.40929687,13.4464063 8.553125,12.7855469 8.553125,12.7855469 C8.553125,12.7855469 9.211875,13.6432813 10.3217187,14.4484375 C10.4237545,14.5223796 10.5296034,14.5909115 10.6388281,14.65375 C10.5930469,15.3784375 10.9127344,16.0741406 12.3557812,16.2816406 C12.5997656,16.3167187 12.8496094,16.3150781 13.10125,16.2867187 C13.09875,16.2792187 13.1153125,16.279375 13.1139844,16.2752344 C13.1125781,16.2710156 13.1274219,16.2599219 13.1274219,16.2599219" id="Shape" fill="#000000"></path>
                                <path d="M12.3546094,14.3717969 C13.6357031,14.5785156 15.5317187,14.5446094 17.5,13.6230469 C17.5474219,13.6008594 17.5996875,13.6592969 17.6471094,13.6360156 C17.6471094,13.6360156 16.301875,15.01 14.6953125,15.7867969 C14.6483594,15.8094531 14.6020312,15.8335938 14.5546094,15.8551563 C14.399375,15.9260938 14.2414844,15.9878906 14.0829687,16.0449219 C13.7721094,16.1566406 13.4571094,16.2414063 13.144375,16.2805469 C13.13,16.2824219 13.115625,16.2851563 13.10125,16.2867188 C13.0992684,16.2808167 13.0973152,16.2749052 13.0953906,16.2689844 L13.0932812,16.2625 C13.0932812,16.2625 12.991875,16.1821094 12.8632031,16.0340625 C12.8032855,15.9656567 12.747509,15.8937316 12.6961719,15.8186719 C12.6244686,15.7145311 12.5617181,15.6045021 12.5085937,15.4897656 C12.4636978,15.3928931 12.4264234,15.2926675 12.3971094,15.19 C12.3419817,14.9973296 12.3171796,14.7972524 12.3235937,14.5969531 C12.3262812,14.5231994 12.3330362,14.44965 12.3438281,14.3766406 L12.3546094,14.3717969" id="Path" fill="#9F2254"></path>
                                <path d="M11.4364063,12.9132813 C11.6075857,12.7434056 11.7770217,12.571782 11.9446875,12.3984375 C12.0385298,12.3014199 12.1312959,12.203367 12.2229688,12.1042969 C12.8811719,11.3898438 13.364375,10.72125 13.6550781,9.86109375 C13.661875,9.84070313 13.66875,9.81382813 13.6753906,9.78359375 L13.6785156,9.76960938 C13.6853125,9.7375 13.6919531,9.70179688 13.6985938,9.6615625 C13.70125,9.63382813 13.7882031,9.57789063 13.790625,9.551875 C13.7177344,9.17734375 13.5497656,8.78359375 13.3664063,8.48296875 C13.3668578,8.48418054 13.3672747,8.485405 13.3676563,8.48664063 L13.3641406,8.48320313 C13.3400781,8.46046875 13.315,8.43921875 13.290625,8.416875 C13.2168149,8.34868251 13.1414834,8.28215534 13.0646875,8.21734375 C12.8363836,8.02397181 12.5940233,7.84783562 12.3396094,7.69039063 C12.3524219,7.90085938 12.360625,8.11109375 12.3628125,8.32109375 C12.363125,8.3446875 12.3625,8.36820313 12.3625,8.39171875 C12.3628906,8.47320313 12.363125,8.55476563 12.3615625,8.63625 C12.3595438,8.74122433 12.3558454,8.84615964 12.3504688,8.95101563 C12.3464844,9.02851563 12.3415625,9.10585938 12.3355469,9.18328125 C12.3349219,9.19132813 12.3339844,9.199375 12.3334375,9.20742188 C12.310441,9.50034698 12.2724484,9.79190118 12.2196094,10.0809375 L12.1271094,10.5183594 C11.9339063,11.3016406 11.5414844,12.0121094 11.2188281,12.7457031 C11.1332813,12.9402344 11.0521094,13.1369531 10.9809375,13.3373438 L10.9607813,13.3939063 C11.0454936,13.3045177 11.1314393,13.2163061 11.2185938,13.1292969 C11.2925781,13.0560937 11.3652344,12.9841406 11.4364063,12.9132812" id="Path" fill="#FCB03F"></path>
                                <path d="M7.20296875,17.1260156 C7.67242187,16.9183594 8.106875,16.7879688 8.62328125,16.6861719 C8.62070896,16.5743587 8.61487314,16.4626445 8.60578125,16.3511719 C8.82638713,15.7801099 9.02981196,15.2025585 9.21578125,14.6192969 C8.88679525,14.6513351 8.55987238,14.7018576 8.2365625,14.770625 C7.99695312,14.8214844 7.76054687,14.8853906 7.52609375,14.9560156 C7.33773437,15.0127344 7.151875,15.0778906 6.9675,15.1471875 L7.69648437,15.32375 L7.10992187,17.1648438 L7.20296875,17.1260156" id="Path" fill="#525353"></path>
                                <path d="M16.2155469,11.6701562 C16.0874633,11.5017951 15.9581892,11.334343 15.8277344,11.1678125 L15.8074219,11.1421094 C15.6680585,10.9645992 15.5268792,10.7885222 15.3839062,10.6139062 C15.2386841,10.4366755 15.0910927,10.2613993 14.9411719,10.088125 C14.9317187,10.0771094 14.9222656,10.0659375 14.9126562,10.055 C14.7891121,9.91310217 14.6636843,9.77285537 14.5364062,9.63429687 C14.4587826,9.54960619 14.3803677,9.46564417 14.3011719,9.38242188 C14.2394539,9.31798333 14.1772385,9.25402308 14.1145312,9.19054687 C14.055625,9.13046875 13.996875,9.07015625 13.9370312,9.01109375 C13.8087053,8.88419855 13.6780583,8.75967232 13.5451562,8.63757812 C13.4862762,8.58379789 13.4266876,8.53079846 13.3664062,8.47859375 C13.366073,8.47919622 13.3657857,8.479823 13.3655469,8.48046875 C13.4922656,8.8446875 13.636875,9.2134375 13.7092969,9.59328125 C13.728125,9.69210937 13.7436719,9.78820312 13.7563281,9.88210937 C13.9328906,11.1967188 13.5116406,12.0550781 12.8426562,13.1842187 C12.7936742,13.2667402 12.7444814,13.3491363 12.6950781,13.4314063 C12.5421094,13.6865625 12.4441406,13.9280469 12.3873437,14.1548438 C12.3690196,14.2279753 12.3544949,14.3020067 12.3438281,14.3766406 C13.6557813,14.5883594 15.6285938,14.6278125 17.6471094,13.6360156 C17.6471094,13.6360156 17.25125,13.0542188 16.655625,12.2544531 C16.5222485,12.0752862 16.3880022,11.8967684 16.2528906,11.7189063 C16.2405469,11.7025781 16.2279687,11.6863281 16.2155469,11.6701563" id="Path" fill="#DF0067"></path>
                                <path d="M7.04023438,17.4939063 L7.69648438,15.32375 L6.9675,15.1471875 C6.80421875,15.2085156 6.64242188,15.2739063 6.48273438,15.345 L5.8328125,17.4939063 L6.55835938,17.5052344 L7.04023438,17.4939063" id="Path" fill="#AA9678"></path>
                                <path d="M7.5015625,16.555 C7.565625,16.5796094 7.63078125,16.6017969 7.69578125,16.6245313 C8.44033052,16.8858131 9.22374868,17.0191299 10.0128125,17.0188293 C10.910432,17.0193432 11.7997513,16.8469858 12.6321875,16.5111719 C12.675,16.4939844 12.7169531,16.4750781 12.7592969,16.4570312 C12.8279683,16.4278646 12.8961798,16.3976266 12.9639062,16.3663281 C13.024375,16.3382031 13.0848437,16.3103125 13.144375,16.2805469 C13.13,16.2824219 13.115625,16.2851562 13.10125,16.2867187 C12.8496094,16.3150781 12.5997656,16.3167187 12.3557812,16.2816406 C10.9127344,16.0741406 10.5930469,15.3784375 10.6388281,14.65375 C10.5296034,14.5909115 10.4237545,14.5223796 10.3217187,14.4484375 C9.211875,13.6432812 8.553125,12.7855469 8.553125,12.7855469 C8.553125,12.7855469 9.40929687,13.4464062 10.6880469,13.9410156 C10.7154687,13.9516406 10.7411719,13.9607812 10.768125,13.9710156 C10.8278906,13.7644531 10.8985937,13.5680469 10.9607812,13.3939062 L10.9809375,13.3373437 C11.0521094,13.1369531 11.1332812,12.9402344 11.2188281,12.7457031 C11.5414844,12.0121094 11.9339062,11.3016406 12.1271094,10.5183594 L12.2196094,10.0809375 L11.4303906,10.0809375 L11.4303125,10.0810156 L11.4303906,10.0825781 L11.4300781,10.0827344 C11.4300781,10.0848438 11.4303906,10.0869531 11.4303906,10.0892188 C11.4305763,10.2769523 11.3745213,10.4604374 11.2694531,10.6160156 C11.167047,10.7673347 11.023096,10.8858379 10.8549219,10.9572656 C10.7084293,11.0192661 10.5485786,11.0430044 10.3903906,11.02625 C10.3828125,11.0254688 10.3755469,11.0238281 10.3680469,11.0228906 C10.3433594,11.0196875 10.3188281,11.0163281 10.295,11.0114063 C10.2882812,11.0099219 10.281875,11.0078125 10.2752344,11.00625 C10.2507031,11.000625 10.2261719,10.9945313 10.2024219,10.9869531 C10.1980469,10.9854687 10.1938281,10.9836719 10.1894531,10.9821875 C10.16375,10.9735156 10.1382031,10.9642188 10.1135156,10.9534375 C10.11125,10.9525 10.1091406,10.9513281 10.1069531,10.9503125 C10.0803258,10.9385547 10.0542563,10.9255721 10.0288281,10.9114063 L10.0276562,10.9107031 C9.94678938,10.8650756 9.87303851,10.8078542 9.80875,10.7408594 L7.105,10.0809375 L4.15421875,10.0809375 C4.1415625,10.1034375 4.1275,10.125 4.11507812,10.1475781 C4.09257812,10.1884375 4.07132812,10.2299219 4.04960937,10.2710938 C3.97709516,10.4080655 3.90883338,10.5472466 3.84492187,10.6884375 C3.78516269,10.8204251 3.72920218,10.9540999 3.67710937,11.0892969 L3.66992187,11.1072656 C3.5358169,11.4601229 3.42848199,11.8225806 3.34882812,12.1915625 C3.81335937,13.6084375 4.7171875,14.8259375 5.89867187,15.6840625 C5.93304687,15.7089844 5.96929687,15.7311719 6.00414062,15.7555469 C6.20407465,15.8959261 6.41120588,16.0257645 6.6246875,16.1445313 C6.9070685,16.3015981 7.20007281,16.4387546 7.5015625,16.555" id="Path" fill="#FFFFFF"></path>
                                <path d="M14.5765625,18.2323438 C14.5576452,18.0448048 14.547842,17.8564582 14.5471875,17.6679688 C14.5471875,17.5537022 14.454579,17.4610588 14.3403125,17.4610156 L5.6596875,17.4610156 C5.54540831,17.4610587 5.45277749,17.5536896 5.45273438,17.6679688 C5.45273438,17.8579688 5.4415625,18.0459375 5.42335938,18.2323438 C5.40312478,18.4372133 5.37185541,18.6408423 5.3296875,18.8423437 C5.45554688,18.9089062 5.58242188,18.9736719 5.71148438,19.0350781 C5.79779477,18.6584444 5.84833177,18.2744991 5.86242188,17.8883594 C5.86265625,17.8839062 5.863125,17.879375 5.86328125,17.8749219 L14.1367188,17.8749219 C14.136875,17.879375 14.1373438,17.8839062 14.1375,17.8883594 C14.1516548,18.2744984 14.2022174,18.65844 14.2885156,19.0350781 C14.4171293,18.9735394 14.5444236,18.9092802 14.6703125,18.8423437 C14.6281566,18.6408368 14.5968614,18.4372098 14.5765625,18.2323437" id="Path" fill="#8B7460"></path>
                            </g>
                        </g>
                    </g>
                </g>
            </g>
        </g>
    </g>
</svg>