<?xml version="1.0" encoding="UTF-8"?>
<svg width="169px" height="60px" viewBox="0 0 169 60" version="1.1" xmlns="http://www.w3.org/2000/svg" xmlns:xlink="http://www.w3.org/1999/xlink">
    <title>kredeum_wp</title>
    <g id="Page-1" stroke="none" stroke-width="1" fill="none" fill-rule="evenodd">
        <g id="Kredeum_site_V2" transform="translate(-251.000000, -2107.000000)">
            <g id="Group-22" transform="translate(151.500000, 2016.083759)">
                <g id="Group-13" transform="translate(74.076352, 89.000905)">
                    <g id="kredeum_wp" transform="translate(25.423648, 1.915336)">
                        <g id="logo-wordpress" transform="translate(109.000000, 0.000000)" fill="#000000" fill-rule="nonzero">
                            <path d="M0,30 C0,41.875 6.875,52.125 16.875,57 L2.625,17.75 C0.875,21.5 0,25.625 0,30 Z" id="Path"></path>
                            <path d="M50.25,28.5 C50.25,24.75 48.875,22.25 47.75,20.25 C46.25,17.75 44.75,15.625 44.75,13.25 C44.75,10.5 46.875,7.875 49.75,7.875 C49.875,7.875 50,7.875 50.125,7.875 C44.875,3 37.75,0 30,0 C19.5,0 10.25,5.375 4.875,13.5 C5.625,13.5 6.25,13.5 6.75,13.5 C9.875,13.5 14.75,13.125 14.75,13.125 C16.375,13 16.5,15.375 15,15.625 C15,15.625 13.375,15.875 11.625,15.875 L22.5,48.375 L29.125,28.75 L24.5,16 C22.875,15.875 21.375,15.75 21.375,15.75 C19.75,15.625 20,13.125 21.625,13.25 C21.625,13.25 26.625,13.625 29.5,13.625 C32.625,13.625 37.5,13.25 37.5,13.25 C39.125,13.125 39.25,15.5 37.75,15.75 C37.75,15.75 36.125,16 34.375,16 L45,48.125 L48,38.125 C49.25,34 50.25,31 50.25,28.5 Z" id="Path"></path>
                            <path d="M30.5,32.625 L21.5,58.75 C24.25,59.5 27,60 30,60 C33.5,60 36.875,59.375 40,58.25 C39.875,58.125 39.875,58 39.75,57.875 L30.5,32.625 Z" id="Path"></path>
                            <path d="M56.375,15.625 C56.5,16.625 56.625,17.625 56.625,18.75 C56.625,21.75 56,25.25 54.375,29.5 L45.25,56 C54,50.75 60,41.125 60,30 C60,24.75 58.625,19.875 56.375,15.625 Z" id="Path"></path>
                        </g>
                        <g id="Group-7">
                            <polygon id="Fill-1" fill="#13132E" points="23.5778666 16.6476393 23.5983188 40.8442258 28.0973934 40.8442258 28.0769412 35.616644 38.6769064 23.1686181 33.59249 23.1686181 28.0769412 30.5939932 28.0769412 16.6476393"></polygon>
                            <polygon id="Fill-2" fill="#13132E" points="31.1273047 34.8838008 34.246674 39.1112702 39.6080132 39.1112702 34.246674 31.5402755"></polygon>
                            <polygon id="Fill-3" fill="#13132E" points="12.0609885 39.1111475 17.4231458 39.1111475 20.5416969 34.8836781 17.4231458 31.5401528"></polygon>
                            <polygon id="Fill-4" fill="#13132E" points="23.4685292 16.6476393 23.4685292 30.5939932 17.9525714 23.1686181 12.8681549 23.1686181 23.4685292 35.616644 23.550747 40.8442258 28.0494125 40.8442258 27.9671947 16.6476393"></polygon>
                            <polygon id="Fill-5" fill="#3ACF6E" points="25.8581231 0 0.125576496 14.8568857 6.0023111 18.2503145 25.8348076 6.79994682 45.6673041 18.2503145 45.6673041 41.1506407 51.5910788 44.5706572 51.5910788 14.8568857"></polygon>
                            <polygon id="Fill-6" fill="#2E80DD" points="0 45.1431143 25.7329556 60 51.4655023 45.1431143 45.5417276 41.7230977 25.7096401 53.1734653 5.87714365 41.7230977 5.87714365 18.8227715 0 15.4293428"></polygon>
                        </g>
                        <polygon id="+" fill="#000000" fill-rule="nonzero" points="81.6937972 38.570496 81.6937972 30.974496 89.0737972 30.974496 89.0737972 28.274496 81.6937972 28.274496 81.6937972 20.714496 78.9937972 20.714496 78.9937972 28.274496 71.5777972 28.274496 71.5777972 30.974496 78.9937972 30.974496 78.9937972 38.570496"></polygon>
                    </g>
                </g>
            </g>
        </g>
    </g>
</svg>