<?xml version="1.0" encoding="UTF-8"?>
<svg width="127px" height="147px" viewBox="0 0 127 147" version="1.1" xmlns="http://www.w3.org/2000/svg" xmlns:xlink="http://www.w3.org/1999/xlink">
    <title>Group 7</title>
    <g id="Page-1" stroke="none" stroke-width="1" fill="none" fill-rule="evenodd">
        <g id="Group-7">
            <polygon id="Fill-1" fill="#FFFFFF" points="57.6414 40.6989 57.6914 99.8529 68.6904 99.8529 68.6404 87.0729 94.5544 56.6409 82.1244 56.6409 68.6404 74.7939 68.6404 40.6989"></polygon>
            <polygon id="Fill-2" fill="#FFFFFF" points="76.0977 85.2813 83.7237 95.6163 96.8307 95.6163 83.7237 77.1073"></polygon>
            <polygon id="Fill-3" fill="#FFFFFF" points="29.4858 95.616 42.5948 95.616 50.2188 85.281 42.5948 77.107"></polygon>
            <polygon id="Fill-4" fill="#FFFFFF" points="57.3741 40.6989 57.3741 74.7939 43.8891 56.6409 31.4591 56.6409 57.3741 87.0729 57.5751 99.8529 68.5731 99.8529 68.3721 40.6989"></polygon>
            <polygon id="Fill-5" fill="#3ACF6E" points="63.216 0 0.307 36.321 14.674 44.617 63.159 16.624 111.644 44.617 111.644 100.602 126.126 108.963 126.126 36.321"></polygon>
            <polygon id="Fill-6" fill="#2E80DD" points="0 110.3625 62.91 146.6835 125.819 110.3625 111.337 102.0015 62.853 129.9945 14.368 102.0015 14.368 46.0165 0 37.7205"></polygon>
        </g>
    </g>
</svg>